####
#
# OBJ File Generated by Meshlab
#
####
# Object bunny.obj
#
# Vertices: 453
# Faces: 908
#
####
vn 0.800663 6.083686 -0.900294
v -0.542818 1.306665 0.136203
vn 3.810751 4.293305 -1.347098
v -0.776760 1.391632 0.147671
vn 1.591941 2.855471 4.434114
v -1.187481 1.615259 0.772622
vn -0.863647 6.037097 0.838992
v -0.104332 1.373114 0.359326
vn -1.106426 6.060878 -0.875503
v -0.301765 1.329374 0.138766
vn 4.192825 2.803910 3.518759
v 0.574629 0.961802 0.595005
vn 5.544212 2.625200 0.599496
v 0.696957 0.935500 0.340337
vn -0.665736 2.803704 5.538397
v -0.524712 0.946461 0.734149
vn 4.206894 4.272017 0.877031
v 0.528869 1.167217 0.370740
vn 4.197188 2.894566 0.718853
v -1.114131 1.889941 -0.234992
vn 5.918524 1.300687 -0.758858
v 0.777233 0.724110 0.122535
vn 2.664222 -0.292627 5.233120
v -0.550708 2.077309 -0.047380
vn -3.518107 1.574286 4.229715
v -1.475240 1.426313 0.866836
vn 2.281795 -0.809472 4.055914
v -1.197106 1.215524 0.944767
vn 0.679014 5.942252 0.900120
v 0.103529 1.384022 0.358282
vn 5.465856 2.729936 -0.399275
v 0.703487 0.938360 0.150289
vn 5.864903 2.647110 -3.713167
v 0.673432 0.890626 -0.042726
vn -6.207776 0.498008 -0.296695
v -1.589970 1.438382 0.346872
vn -4.544612 -2.199694 3.222503
v -1.423426 0.964444 0.578744
vn 0.113641 6.102549 0.437964
v -1.168650 1.820827 0.368636
vn -1.847186 5.007956 2.062459
v -1.383379 1.759361 0.576786
vn 0.782017 3.907269 4.629497
v 0.103622 1.229715 0.647185
vn 5.226273 2.179005 2.506459
v -0.897667 1.626728 0.374838
vn -0.535753 1.741362 4.780822
v -1.355725 1.398152 0.941565
vn -0.796248 5.395549 2.693882
v -0.102700 1.326748 0.524652
vn 3.787452 3.249832 3.556482
v -0.833019 1.350693 0.516506
vn -5.087213 0.000779 -3.348500
v -1.433074 0.728490 -0.062336
vn 2.590272 5.364926 0.949954
v 0.303211 1.325877 0.369385
vn -5.243437 -0.265661 -2.568083
v -1.576678 1.201824 0.160599
vn -0.654575 2.005291 1.856214
v -0.511214 2.227968 -0.070771
vn -1.346513 3.614573 4.025725
v -1.387211 1.596203 0.795355
vn -1.199655 2.703787 5.494618
v -0.317955 0.980779 0.761578
vn 0.209070 1.076646 -0.120659
v -0.351763 2.280778 -0.251334
vn -3.023311 1.555521 -4.165260
v -0.655519 2.037925 -0.164536
vn 0.597563 5.274669 2.866246
v 0.101215 1.328776 0.532334
vn 3.652699 4.584024 1.539131
v -0.756966 1.366574 0.352835
vn 2.235144 3.973132 4.039237
v 0.328072 1.184611 0.607651
vn -0.193447 3.182593 3.681281
v -0.765158 2.015700 0.102066
vn -5.453712 0.716610 -2.504549
v -1.561452 1.411938 0.171625
vn 4.503782 1.825600 3.439074
v -0.997120 1.621699 0.601482
vn 5.887474 1.370141 1.016204
v 0.769542 0.731022 0.341201
vn 5.536355 1.145342 2.409713
v 0.716899 0.704745 0.530515
vn 3.052544 4.383878 1.221303
v -0.980487 1.793563 0.350521
vn 1.535375 -1.431394 1.487725
v -0.358386 1.892982 -0.065647
vn -3.589351 -4.857745 0.974088
v -1.268990 0.246893 0.340078
vn 0.433938 5.803911 -1.031621
v -1.171757 1.809664 0.158460
vn -4.078684 -1.886860 1.688720
v -1.573194 1.159611 0.760251
vn 3.396520 3.659734 2.900626
v 0.474884 1.153039 0.541074
vn 5.428273 1.274424 -2.446473
v 0.728594 0.708073 -0.062927
vn 0.830772 3.459872 1.226343
v -1.220685 1.993649 -0.277243
vn -0.608069 4.260502 4.299646
v -0.107527 1.233567 0.650046
vn 3.488660 1.429601 4.839609
v 0.521819 0.718937 0.767099
vn 1.571385 -1.410470 -1.641500
v -0.304479 1.936608 -0.192947
vn -1.493069 0.436491 0.212934
v -1.328249 2.105731 -0.651107
vn -5.305280 0.448053 -3.131814
v -1.485157 0.943716 0.097974
vn 4.690185 3.456088 0.832095
v 0.644030 1.025211 0.401040
vn 0.159648 -2.925447 6.024327
v -0.114701 -0.161499 0.831695
vn 1.298183 -3.061257 5.263334
v 0.111234 -0.144560 0.830089
vn -1.321903 4.662441 1.008548
v -0.972305 1.850235 0.172377
vn -5.595852 -1.787738 0.983957
v -1.584643 1.167378 0.562683
vn 4.146292 0.894152 4.377036
v -1.034655 1.329392 0.742087
vn -1.385861 5.900048 1.255744
v -0.306576 1.324551 0.358954
vn 0.771827 4.786413 2.848647
v -1.158480 1.775631 0.593465
vn -2.949950 2.852736 -1.469590
v -0.758755 2.060360 -0.032994
vn -1.545326 2.522642 3.314104
v -0.995797 -0.151048 0.761017
vn -4.678321 0.459949 0.323629
v -1.327894 1.852214 -0.235434
vn 3.066287 0.000667 3.499632
v -0.755353 1.823339 0.164734
vn -1.106672 0.824355 5.837054
v -0.742586 -0.169735 0.757810
vn -3.516748 1.000861 4.701488
v -0.441953 0.635649 0.908535
vn -2.035407 5.035512 2.598423
v -0.246516 1.298128 0.509773
vn -5.704438 -0.954024 -1.312166
v -1.534455 0.672673 0.154315
vn 2.077903 3.506230 1.722372
v -1.197363 1.858107 -0.061184
vn 1.137794 -0.323879 -4.785795
v -1.181683 1.599443 -0.078868
vn 1.559684 2.736713 5.356035
v 0.327792 0.945323 0.763961
vn 0.613349 0.586861 0.967174
v -0.634362 2.089186 0.072781
vn -1.800877 1.655619 -5.720399
v -1.155041 1.153938 -0.128257
vn 2.596361 1.074889 -0.160310
v -1.186777 2.091170 -0.696585
vn -4.709174 2.326982 -0.037489
v -1.580820 1.644756 0.384922
vn 0.865819 3.019906 5.378373
v 0.117985 1.112352 0.717387
vn 3.821943 1.997643 -5.049793
v 0.539207 0.737467 -0.274955
vn 0.642151 2.855651 5.270183
v 0.099058 0.937630 0.796158
vn 2.400189 2.529383 4.373792
v -1.228352 1.365185 0.921740
vn 0.620564 5.967144 -0.794087
v 0.103874 1.385584 0.149107
vn 2.916977 -2.720230 4.408192
v 0.320279 -0.166981 0.753983
vn 2.089097 1.978302 5.448162
v 0.257097 0.675630 0.919526
vn -0.196243 2.910503 5.425299
v -0.104008 1.104327 0.741475
vn -3.877405 0.148878 -4.767909
v -1.410545 1.165071 -0.018863
vn -4.255644 0.482280 -4.003582
v -1.368332 1.622363 -0.014283
vn 0.531127 3.201590 -5.145432
v 0.101184 0.967298 -0.323954
vn -1.765385 4.426033 3.950896
v -0.335134 1.184308 0.614550
vn -0.805831 6.085635 -0.678558
v -0.103119 1.374349 0.151637
vn -5.362321 2.267076 1.493041
v -1.553127 1.583613 0.557423
vn -0.585351 4.850290 -3.804825
v -0.132575 1.259513 -0.125037
vn 0.541875 1.567376 -1.038807
v -1.203567 2.243244 -0.877245
vn 0.277912 5.505196 2.850444
v -0.519418 1.265149 0.410396
vn -3.470311 3.367941 1.367174
v -1.474793 1.690730 0.624689
vn -5.557320 -0.930623 1.228547
v -1.544772 0.687812 0.344833
vn 0.560624 5.467940 -2.908310
v -0.531800 1.242782 -0.065261
vn -0.471183 4.447844 4.328785
v -0.534094 1.152717 0.575803
vn -1.386917 -1.713706 4.934073
v -1.357170 1.191339 0.938044
vn 4.809082 3.592772 -4.049539
v 0.578456 1.001812 -0.089068
vn -3.086364 1.246127 -7.260733
v -1.177225 0.734038 -0.259088
vn -3.729918 0.571192 -5.361994
v -1.315527 0.703136 -0.204364
vn -4.935042 -0.188075 3.530258
v -1.432987 0.754896 0.575535
vn -4.897343 1.066473 -3.587606
v -1.489950 1.492091 0.084012
vn -2.425741 0.402276 3.831766
v -0.509068 -0.179726 0.908830
vn 1.636487 1.140381 4.155001
v -0.308288 -0.169200 0.914045
vn 0.351459 0.274421 -1.329342
v -1.142236 2.106541 -0.921362
vn -2.227906 -0.167005 -4.960832
v -0.519011 2.089948 -0.224674
vn 4.756215 1.527712 3.766834
v -0.977965 1.447731 0.624317
vn 3.564759 1.922089 4.579434
v -1.158127 1.408795 0.826236
vn -0.330702 -2.798882 -3.370287
v -0.739563 1.817800 -0.072782
vn -1.220767 -3.238202 5.125031
v -0.948071 0.340594 0.716561
vn -1.329763 0.177997 -6.033548
v -0.718317 0.697916 -0.359096
vn -1.543934 2.432546 4.901828
v -0.300562 0.695553 0.966127
vn -0.284772 2.627977 5.300739
v -0.103989 0.727531 0.977990
vn 4.002770 0.796720 4.493880
v 0.736686 0.271263 0.539029
vn 3.687835 3.932914 -2.487701
v 0.496789 1.146713 -0.024873
vn -3.183129 1.590958 4.766526
v -0.576886 -0.120048 0.800849
vn 3.126472 1.552876 5.621988
v -0.937803 1.160988 0.658694
vn 5.548534 -0.041628 -2.781551
v 0.734947 0.498111 -0.071308
vn 2.920027 -4.262972 3.424957
v 0.516838 -0.158519 0.545841
vn -2.429344 2.278899 -4.999941
v -0.548769 0.789416 -0.376139
vn 4.887242 2.305804 2.464286
v 0.663803 0.930495 0.502875
vn -3.124110 2.323178 -4.766584
v -0.495479 0.696837 -0.472106
vn 0.596708 -1.504362 2.667397
v -0.301106 -0.141618 0.768304
vn 1.056224 -2.947020 5.154336
v 0.065502 -0.075333 0.890299
vn 2.393433 -3.677069 3.696911
v 0.752244 -0.100537 0.500602
vn 1.111795 1.195629 0.973621
v -0.405653 2.267625 -0.129222
vn -0.825900 -2.072206 5.689756
v -0.097810 0.075377 0.957467
vn 1.313959 -1.995083 5.595582
v 0.092047 0.061274 0.946843
vn -5.833059 -0.949498 0.885589
v -1.535562 0.945024 0.339781
vn -6.027421 4.634433 1.530195
v -0.984696 -0.080884 0.548943
vn -1.754633 1.151772 5.128364
v -0.515047 0.042569 0.713542
vn -0.411923 3.012736 5.443493
v -0.103865 0.937561 0.805126
vn -2.887677 0.345470 4.954234
v -0.372272 0.047398 0.796175
vn -2.936291 -1.843827 4.898725
v -0.280763 0.092687 0.906051
vn 0.653210 1.643071 -5.465450
v -0.988054 1.658716 0.008192
vn -5.798178 -0.693447 -0.152890
v -1.619444 1.176122 0.356809
vn 1.819531 -0.069470 1.036710
v -1.075531 1.877593 -0.450768
vn 1.948411 -2.010199 -0.750949
v -1.487993 0.962211 0.417196
vn 3.417802 -1.883761 4.832394
v 0.585285 0.039750 0.629819
vn 2.344917 -0.407447 5.599084
v 0.743616 0.075483 0.569278
vn 1.314342 3.414800 4.977522
v -0.755575 1.138444 0.594416
vn 1.743644 -1.850063 -1.579172
v -1.183919 1.853035 -0.682833
vn 3.026161 2.181871 4.867261
v 0.473566 0.891529 0.728308
vn -3.413153 2.396994 -1.674290
v -0.511029 2.221850 -0.187008
vn -3.311067 0.705505 4.333046
v -1.326023 0.684639 0.700189
vn -1.595787 3.375271 4.951434
v -0.332568 0.810049 0.830250
vn -5.234933 -1.480618 2.778103
v -0.923039 0.088539 0.531946
vn -2.159858 0.030536 5.714375
v -0.751036 0.064751 0.699905
vn -2.410496 -2.898885 3.616956
v -1.448347 1.105945 0.856723
vn 2.108158 4.828822 2.272911
v 0.250958 1.312352 0.504081
vn 1.767460 4.500021 3.892603
v -0.676163 1.255131 0.479923
vn 3.876010 -0.481081 4.854323
v -1.033351 1.182561 0.739190
vn -2.024744 -3.358404 -1.520843
v -1.221073 1.806087 -0.485982
vn 2.904031 2.476697 2.036610
v -0.998777 1.754711 0.550945
vn -2.439345 -3.561664 2.827520
v -0.834593 0.079495 0.651223
vn 0.631420 0.499104 -0.679438
v -0.186485 2.246299 -0.415877
vn -5.158743 2.052238 -1.412185
v -1.533952 0.953660 0.186399
vn -3.005164 4.725169 -0.890576
v -1.373388 1.787294 0.170239
vn 0.379071 6.113951 0.891548
v -0.514060 1.299126 0.300978
vn -2.599650 5.028201 0.049882
v -1.421053 1.790205 0.365322
vn -4.298717 1.029707 -4.311028
v -1.383000 0.926545 -0.069293
vn -1.026786 5.342571 3.136802
v -0.432229 1.240552 0.472050
vn 0.997108 -0.531076 0.056087
v -1.155152 1.913260 -0.868561
vn -4.625257 -3.978252 0.615711
v -1.364587 0.332623 0.329325
vn 1.641841 -0.672920 -1.434817
v -0.168140 2.133948 -0.396482
vn -5.249781 -1.581120 -0.361698
v -0.984540 0.061246 0.149646
vn -0.907775 5.335741 -3.118507
v -0.319928 1.240429 -0.089546
vn -0.939271 -3.750757 -1.454094
v -1.209980 1.664754 -0.259300
vn 0.694008 4.596696 -3.871890
v -0.717201 1.258088 -0.120986
vn -1.056079 -2.098273 -1.009240
v -1.190891 1.699683 -0.444525
vn -4.295199 -1.778393 0.713597
v -0.938905 0.072029 0.329370
vn -3.113363 -1.647728 5.007078
v -0.294176 0.279244 0.949076
vn -0.527160 -1.188662 5.992159
v -0.105571 0.269218 1.006253
vn 1.473323 -0.863493 5.888255
v 0.123219 0.262878 0.986759
vn -1.655823 3.389321 4.819250
v -0.248922 1.132353 0.700915
vn 3.628972 -1.129332 3.742955
v 0.936970 0.072434 0.483401
vn 1.111233 2.202371 5.132302
v 0.090034 0.712885 0.965906
vn -1.084762 -1.414151 5.942330
v -0.749402 0.270296 0.733664
vn -1.932627 -1.168170 5.392500
v -0.509529 0.281236 0.738111
vn -1.901034 -1.690559 -4.323407
v -0.659893 1.932972 -0.162647
vn -2.495106 -3.311615 4.663006
v -0.975640 0.237861 0.618622
vn -3.774048 3.881440 0.478297
v -1.324302 1.819272 -0.045512
vn 0.164458 1.925644 -3.543653
v -0.960020 1.246052 -0.119225
vn 2.140093 2.973058 -5.032506
v 0.307739 0.962230 -0.284361
vn 2.651261 2.048779 3.233044
v 0.929425 0.244288 0.483738
vn -5.704569 0.332068 -2.169352
v -1.511106 0.753200 0.085858
vn -4.836439 -1.633377 -2.015394
v -1.328735 1.934946 -0.457357
vn 1.567847 5.222629 -2.914295
v -0.766650 1.329753 -0.009868
vn -2.359001 -1.035144 5.336416
v -0.544040 0.484671 0.785537
vn -1.218981 1.940009 -5.695129
v -0.955269 0.968556 -0.283334
vn -2.945712 1.584362 -5.303758
v -1.258284 1.029650 -0.123266
vn -1.253487 0.438726 -5.981712
v -0.962590 0.719828 -0.334113
vn -0.059496 0.109695 0.076512
v -0.848594 0.246756 0.674424
vn 5.976546 -1.059651 0.398536
v -0.822506 1.633710 0.173338
vn -3.347745 0.298500 -4.934139
v -1.397681 1.368188 -0.033723
vn -0.604485 2.078472 -5.849396
v -0.726769 0.961843 -0.306200
vn 0.805648 3.149138 -5.150245
v -0.109904 0.744711 -0.537310
vn 0.250830 3.677867 -5.074977
v -0.103804 0.966261 -0.347129
vn 1.652909 -3.184923 1.295727
v -0.512585 1.866893 -0.049115
vn -0.588341 3.835430 -5.126655
v -0.309389 0.968719 -0.339232
vn -4.781851 2.341871 2.161287
v -1.539113 1.494505 0.735753
vn -0.463637 0.918996 -6.040851
v -1.173440 1.348055 -0.102619
vn 3.891641 2.354952 3.585837
v 0.806175 0.348172 0.403203
vn 0.144728 3.145283 -4.329439
v -0.712069 1.155158 -0.210125
vn 0.089179 -1.099806 -0.608463
v -0.185432 2.032710 -0.283980
vn -3.683080 1.169958 -3.656630
v -0.925885 1.851097 0.009217
vn 1.245868 2.513746 -5.148436
v 0.092317 0.746276 -0.490180
vn -4.041216 -3.633917 2.514451
v -1.344694 0.367360 0.490199
vn 3.583630 -1.239261 0.462442
v -1.086775 1.724864 -0.205850
vn -3.079539 -4.197197 3.202495
v -1.196180 0.293741 0.558372
vn -0.888463 -1.458837 -5.878853
v -0.947974 0.525905 -0.320716
vn -0.160099 -1.013150 6.171343
v -0.759364 0.469013 0.774615
vn -2.415362 -0.412564 5.157338
v -0.322941 0.465205 0.997991
vn -0.058928 0.206350 6.005078
v -0.104315 0.472863 1.034073
vn 1.427316 0.388072 5.947177
v 0.122829 0.503787 1.000262
vn -4.738785 2.810224 -2.546987
v -1.478276 1.649350 0.155844
vn 4.750347 3.515709 -0.940871
v 0.643474 1.031092 0.086931
vn -2.430316 -2.005397 4.955145
v -1.187608 0.494422 0.737340
vn -0.608438 -1.641118 5.704787
v -0.971772 0.474742 0.786006
vn 4.307909 1.357065 -3.627093
v 0.663198 0.649730 -0.208470
vn -3.407082 1.310960 2.301481
v -1.117635 -0.212447 0.703403
vn 1.465123 3.240026 0.892482
v -1.214751 2.054232 -0.482300
vn 3.706992 0.684965 -1.007601
v -1.074384 1.827932 -0.303831
vn 3.706326 0.332955 -1.324899
v -1.082882 1.949948 -0.628800
vn -2.038528 0.026844 5.654242
v -1.194180 0.703132 0.767636
vn 5.537312 2.052508 0.533824
v -0.858050 1.528961 0.308679
vn -1.863197 -4.692499 2.852380
v -1.363368 1.011912 0.767088
vn 2.777480 0.004234 5.475658
v 0.311932 0.471920 0.931198
vn 0.530955 4.816889 -3.775349
v 0.092621 1.266315 -0.127596
vn -0.187147 0.445205 6.079701
v -0.968006 0.722382 0.802985
vn -0.040632 0.418902 6.234302
v -0.750942 0.698303 0.786160
vn -1.867556 1.511934 5.622339
v -0.519190 0.730829 0.807921
vn 2.982671 0.986078 5.376440
v 0.358073 0.609147 0.887970
vn 2.547513 5.422129 -0.796686
v 0.299213 1.330296 0.136300
vn -0.680346 3.076300 -5.386214
v -0.504411 0.975813 -0.321184
vn 2.071718 2.390824 5.306098
v 0.322411 0.743502 0.865198
vn -0.132545 3.741823 -4.979661
v -0.102347 1.146194 -0.235079
vn -2.632606 2.886714 1.438062
v -0.918312 1.939222 0.111711
vn 4.471071 1.666234 -3.881947
v 0.622554 0.783828 -0.173713
vn -6.179410 0.555739 0.577932
v -1.585712 1.386490 0.561892
vn -0.413846 -1.373093 5.987449
v -1.180056 0.957265 0.741300
vn 0.169257 2.309512 5.790809
v -0.767827 0.921984 0.737038
vn -0.642861 -1.510372 -2.033895
v 0.130323 0.804619 0.885050
vn 0.240682 2.137760 5.870288
v -0.964854 0.903896 0.753520
vn 2.000096 -4.126668 6.092456
v -1.163198 1.107039 0.865787
vn 4.373409 -0.239329 -4.076084
v -0.871948 1.551343 0.096871
vn 2.521065 2.224867 -5.149210
v -0.964066 1.416672 -0.035421
vn -0.304923 1.491925 -0.922140
v -0.256478 2.284605 -0.389514
vn -0.535822 -3.287286 -4.267903
v -0.513895 1.930567 -0.189387
vn 1.352044 1.584454 7.929880
v -0.976838 1.033551 0.690732
vn 0.477291 2.728365 5.259293
v -0.712547 1.020081 0.685524
vn 0.191488 3.779781 4.915018
v -0.556447 1.019611 0.684740
vn 2.793110 3.216866 4.296862
v 0.434707 1.022169 0.681353
vn 2.518421 -2.276391 -3.050775
v -0.816915 1.676674 0.015829
vn 1.806714 -2.041795 1.852622
v -0.318871 -0.293156 0.895928
vn 0.025494 -1.212358 -1.268353
v -0.310176 2.083205 -0.251831
vn -0.646238 -2.991719 3.061301
v -0.990083 -0.295162 0.749426
vn 0.541432 -2.409539 2.670475
v 0.101419 -0.292173 0.744615
vn -0.049845 -3.832744 3.143067
v -0.744161 -0.291158 0.737608
vn -2.829064 1.800299 -5.842762
v -1.155507 0.939879 -0.219527
vn 3.902998 -2.830904 3.916971
v 0.447605 -0.102872 0.679553
vn 4.428126 -1.224670 -3.583440
v 0.659713 0.538784 -0.215825
vn -5.390086 -2.546548 1.060979
v -1.467832 0.492848 0.353377
vn 4.058772 -3.946003 1.124590
v 0.925810 -0.066367 0.333780
vn 2.906160 -1.869601 5.196573
v 0.324116 0.027799 0.823130
vn 0.714494 3.653917 -4.730839
v 0.127355 1.174109 -0.222248
vn 0.355530 -0.013226 0.299895
v -0.547144 1.842914 0.075041
vn 3.635489 -1.543132 4.801356
v 0.497637 0.086697 0.729582
vn 5.182256 -1.345008 0.942818
v 1.011153 0.062523 0.333654
vn 2.540533 1.840265 -5.336778
v 0.293197 0.686351 -0.434506
vn 2.797991 -1.678313 5.301870
v 0.253449 0.112784 0.893699
vn 4.583857 1.142551 3.778232
v 0.638496 0.695597 0.670562
vn 4.099739 2.234682 3.232536
v -0.345635 2.009756 -0.134369
vn 2.737450 -1.013893 5.501019
v 0.261301 0.271281 0.930077
vn 3.452293 -1.125743 5.101067
v 0.366016 0.279236 0.867077
vn 3.737631 -0.940823 4.951508
v 0.519451 0.279517 0.753746
vn 4.358762 -0.777200 4.270844
v 0.640426 0.278963 0.661981
vn 4.340270 2.231988 0.969694
v 0.999255 0.292643 0.323195
vn 4.015344 -0.183652 -4.720675
v 0.550861 0.484891 -0.304847
vn -3.321710 -0.007910 -2.097097
v -1.321805 2.185985 -0.816197
vn -3.049303 -5.300826 0.739470
v -1.139470 0.163279 0.327890
vn -4.621620 -1.992335 3.021759
v -1.401355 0.517530 0.562901
vn 2.616680 4.367595 -3.288214
v 0.329897 1.227738 -0.075805
vn 3.912845 -0.236392 4.804742
v 0.533471 0.479867 0.779458
vn 4.743126 -0.162796 4.012300
v 0.646564 0.477043 0.668850
vn 5.519388 0.348924 2.850340
v 0.729109 0.485663 0.543781
vn 5.519453 2.024618 1.639429
v 0.800311 0.486180 0.338214
vn -4.737058 -3.781964 -0.785789
v -1.369878 0.340866 0.145337
vn -0.006859 4.304965 -4.497448
v -0.511125 1.133459 -0.212771
vn -0.488229 -0.380799 0.576657
v -1.512448 1.084805 0.113308
vn -2.477725 -1.741636 -4.061670
v -0.247204 2.147455 -0.387260
vn 1.575626 -5.519996 -1.280661
v 0.303898 -0.272585 -0.090031
vn 2.341517 -3.686746 -1.931012
v 0.281898 -0.257756 -0.268563
vn 1.932135 -5.406563 1.006264
v 0.335980 -0.275596 0.557664
vn 2.693251 -5.099537 -1.480249
v 0.757236 -0.174419 0.116001
vn 3.267052 -4.319552 -2.994213
v 0.393255 -0.178117 -0.122921
vn 3.202860 -3.266564 -3.350422
v 0.332677 -0.136112 -0.318083
vn 2.154267 -3.231223 -4.252719
v 0.720880 -0.092398 -0.044751
vn 2.688857 -5.293329 1.050196
v 0.759637 -0.177320 0.323242
vn 3.898400 -4.027925 -1.666573
v 0.891678 -0.082544 0.118062
vn 2.756549 3.178702 -4.107363
v 0.496851 0.946672 -0.208599
vn 2.852264 -3.869467 -3.895317
v 0.533311 -0.110851 -0.090962
vn -1.635873 3.805431 -4.996985
v -0.320107 0.772434 -0.499331
vn -0.110913 -2.602073 -2.767112
v -0.548500 -0.280105 -0.481108
vn 3.803874 -2.839251 -3.586107
v 0.452698 -0.053508 -0.270588
vn 3.362088 2.974697 -1.588732
v 0.963525 0.304032 0.127871
vn 3.457698 -0.922488 -4.014695
v 0.904721 0.071346 -0.022773
vn 5.002044 -1.373407 -1.772530
v 0.986437 0.053749 0.109128
vn 2.650898 -0.995434 -5.495281
v 0.744205 0.077107 -0.084653
vn 2.960558 0.094750 -0.129252
v -1.077995 2.042775 -0.854420
vn 3.435312 -2.467823 -4.426574
v 0.593084 0.058371 -0.144811
vn 4.503720 -1.546829 -3.860867
v 0.513199 0.094025 -0.284981
vn -0.479584 4.088542 -4.635924
v -0.309274 1.133753 -0.231499
vn -2.222206 -1.176783 -2.192881
v -0.726452 -0.255503 -0.445850
vn 1.046912 -2.953048 -5.352340
v -0.090223 -0.128519 -0.459193
vn -2.076533 -1.797307 -1.832092
v -1.154531 -0.287980 -0.059720
vn 4.091887 2.726040 -2.876074
v 0.826554 0.349045 0.120649
vn 3.011185 0.402164 -5.103230
v 0.433151 0.556540 -0.396876
vn -1.583892 1.352092 -4.972510
v -0.519882 -0.135854 -0.476471
vn 2.946017 -0.792903 -2.630815
v 0.379225 0.018570 -0.391998
vn -1.340527 -2.698156 2.587882
v -0.472094 -0.294515 0.898210
vn 2.699394 3.007703 -4.184752
v 0.280229 1.128411 -0.210072
vn 4.222734 -0.481353 -4.499558
v 0.551796 0.301882 -0.293875
vn 4.530628 0.880765 -4.046550
v 0.727127 0.288824 -0.070907
vn 3.378632 1.952685 -3.944064
v 0.895153 0.221515 -0.006821
vn -5.016326 0.349516 2.913426
v -1.553094 1.327595 0.791431
vn 5.875401 1.389493 -1.390386
v 0.798686 0.495149 0.130194
vn 0.795561 -0.579123 0.288592
v -1.226464 1.732984 -0.617818
vn -3.651681 3.373730 -2.115969
v -0.746931 -0.132486 -0.290517
vn 1.425751 3.922677 2.795596
v -1.251229 2.222057 -0.759203
vn -2.097174 2.425953 1.098100
v -1.322254 2.218516 -0.753806
vn 4.171687 4.400948 -0.616612
v 0.528834 1.170711 0.143552
vn -3.257838 2.460195 0.885720
v -1.341243 2.039268 -0.457366
vn 2.720107 2.543365 -5.058714
v 0.352358 0.736037 -0.378252
vn -2.775881 -2.377776 2.934869
v -0.443021 0.482569 0.916964
vn -3.188307 -1.907112 1.227121
v -1.131029 -0.278815 0.295062
vn -3.181103 -2.308709 -0.559882
v -1.126048 -0.287992 0.524838
vn -4.346302 2.453099 -0.705654
v -1.120121 -0.177466 0.544570
vn -2.581872 -2.343693 1.452453
v -1.118266 -0.288894 0.687298
vn -3.037454 -2.926824 0.203370
v -1.175292 -0.297527 0.115221
vn -4.211101 2.355611 0.221073
v -1.181436 -0.161733 0.131657
vn -4.838633 3.056501 0.512428
v -0.997080 -0.144137 0.363995
vn -3.976237 3.468869 2.877979
v -1.103370 -0.171930 0.262234
vn -5.058877 4.433201 -2.467741
v -1.032953 -0.069818 0.126681
vn -4.177144 -1.398844 4.393199
v -0.406543 0.237458 0.808158
vn -1.653930 -3.851027 3.924953
v -1.104670 0.344801 0.686081
vn -0.753317 0.855769 -5.971381
v -0.335612 0.535525 -0.638070
vn -1.609547 -3.288824 -1.288865
v -0.742739 -0.282608 -0.319820
vn 0.525067 -4.899532 -0.559450
v -0.120004 -0.277264 -0.338607
vn -3.129551 2.173831 -2.674859
v -1.141888 -0.175603 -0.054743
vn -1.816983 3.057451 -3.106943
v -0.667460 -0.148404 -0.443454
vn -3.005258 1.735207 -4.632191
v -0.967677 -0.131638 -0.115897
vn 0.283495 -0.998289 -1.498727
v -0.724621 -0.152631 -0.158226
vn -2.213336 0.674560 -0.153522
v -0.560340 -0.104390 -0.274636
vn -5.373752 -0.545069 -2.185312
v -0.534419 0.099136 -0.301036
vn -1.890141 -0.552386 -5.738407
v -0.745904 0.094019 -0.175717
vn -3.963053 -2.112555 -3.792919
v -0.956724 0.099904 -0.071417
vn -4.194997 -0.890902 -4.279942
v -0.455266 0.112352 -0.470348
vn -0.852641 1.199905 -2.586173
v -0.960034 1.159804 -0.189046
vn -2.163956 -2.145422 -6.061627
v -0.331477 0.075196 -0.533659
vn -3.187121 -4.078426 -3.351403
v -1.195510 0.309183 -0.088453
vn -3.558928 -4.763482 -1.169353
v -1.270052 0.248236 0.120286
vn -2.892238 -2.160160 -6.242273
v -0.360297 0.296114 -0.610491
vn -5.486150 -1.680187 -4.122615
v -0.505570 0.295890 -0.480055
vn -3.967950 -1.252916 -4.060421
v -0.570357 0.275640 -0.314750
vn 0.389280 -3.776488 -2.642826
v -0.308789 -0.280513 -0.437748
vn -3.924679 -2.893837 -2.818669
v -1.345130 0.388020 -0.044141
vn 2.166617 5.135902 -2.285343
v 0.263599 1.306077 0.000319
vn -5.321816 -2.441499 -1.352127
v -1.469558 0.502743 0.121846
vn -4.730005 -1.909518 -3.501172
v -1.379607 0.503574 -0.081818
vn -4.922549 0.050015 -3.786609
v -0.538492 0.506053 -0.513763
vn -4.890738 0.614261 -5.736466
v -0.617452 0.543404 -0.364132
vn -2.826277 -1.537722 -5.246511
v -1.184698 0.511917 -0.255925
vn -2.426358 -1.470418 -2.018490
v -0.891782 -0.287148 -0.211596
vn 2.778683 0.773861 -5.494688
v 0.281521 0.522839 -0.478103
vn 0.605341 0.677481 -3.761368
v -0.251189 0.655566 -0.628525
vn -0.117508 -1.459499 -6.076906
v -0.301050 -0.124317 -0.475751
vn -2.152393 0.649899 -0.652697
v -0.336120 0.824452 -0.394730
vn -1.286881 -3.998944 -2.594499
v -0.965754 -0.299109 -0.095144
vn -1.995394 -0.899491 1.302446
v 0.122159 0.822935 -0.391519
vn -1.844936 5.504361 -2.079224
v -0.258863 1.305399 0.002786
vn 2.329876 -0.921134 -4.870239
v 0.304611 0.082919 -0.453692
vn 0.856702 0.699010 -5.982810
v -0.165803 0.507507 -0.630912
vn 0.985088 -4.042191 -4.068360
v 0.091149 -0.198516 -0.367015
vn 2.886444 -0.253062 -5.416710
v 0.305390 0.304677 -0.477898
vn -0.612036 5.621036 -2.274636
v -0.100677 1.340441 -0.002203
vn 0.629305 5.554877 -2.430965
v 0.108933 1.340038 -0.007767
vn -1.032845 -2.560933 -0.587483
v 0.097358 -0.277754 -0.298876
vn 1.641192 -5.515555 -1.373794
v 0.518519 -0.264398 0.098273
vn 1.282789 -2.769704 -5.446446
v 0.108696 -0.078181 -0.441513
vn 1.842000 -2.782940 -5.148953
v 0.249059 -0.054542 -0.419675
vn 1.407422 -1.590426 -5.855042
v 0.105026 0.089229 -0.508437
vn 0.529716 -1.752349 -5.899341
v -0.106648 0.074920 -0.547062
vn -2.204504 -0.574217 -3.736758
v -0.602761 0.110329 -0.178691
vn 0.984480 -1.174622 -6.035731
v -0.119014 0.307966 -0.599589
vn 1.673951 -0.755780 -5.979826
v 0.098332 0.300757 -0.547213
vn -1.827178 -3.360240 -4.918912
v -0.990535 0.249353 -0.142465
vn -1.710787 -2.246407 -5.518480
v -0.735072 0.335763 -0.254777
vn -0.355801 -1.293101 -5.723188
v -0.305505 0.353537 -0.638364
vn -0.858683 -3.102048 -5.278186
v -0.966417 0.375800 -0.253499
vn -2.155385 -3.257444 -4.350591
v -1.109023 0.357082 -0.214452
vn 1.954586 0.661758 -5.789811
v 0.098850 0.499820 -0.560351
vn 1.523722 0.875787 -5.778094
v -0.058839 0.525129 -0.608569
vn -3.035002 -1.068446 -5.977395
v -0.432890 0.543511 -0.614876
vn -1.526456 -1.271394 -6.105144
v -0.717194 0.496035 -0.314463
vn -1.660066 0.552929 -1.831912
v -1.279293 0.468289 -0.183372
vn -0.074774 -5.712680 2.168165
v -0.314025 -0.266690 -0.326609
vn 0.675760 -3.961166 1.746105
v -0.548997 -0.257086 -0.299047
vn 0.031073 -5.817462 1.760354
v -0.104669 -0.218817 -0.238264
vn -0.375733 -5.639698 1.906187
v -0.309142 -0.216197 -0.254414
vn -1.916119 -5.639263 -0.680962
v 0.130994 -0.266351 -0.099847
vn -2.168236 -5.321466 -0.831271
v 0.074836 -0.216700 -0.110525
vn -0.089211 -6.251046 0.010957
v -0.103261 -0.207668 -0.088524
vn 0.108039 -6.278325 -0.058436
v -0.306240 -0.213649 -0.087326
vn 1.329951 -3.925043 -1.041975
v -0.748132 -0.291353 -0.085755
vn 0.265257 -4.714998 -0.148312
v 0.328981 -0.278459 0.099850
vn -0.352668 -4.241503 -1.641007
v -0.520065 -0.217381 -0.087087
vn -0.996473 -4.442634 -0.697858
v 0.089028 -0.283331 0.109960
vn -2.092189 -5.700570 -1.447116
v 0.017999 -0.233784 0.030450
vn -0.924770 -6.099929 -0.658496
v -0.101658 -0.222577 0.116870
vn -0.005432 -2.387864 0.053332
v -0.738245 -0.292582 0.115345
vn 0.110152 -6.275486 -0.284863
v -0.310740 -0.223048 0.118367
vn 1.385443 -5.878534 0.762569
v 0.498317 -0.270793 0.339158
vn -0.132679 -4.593375 -0.043344
v -0.956681 -0.304620 0.113910
vn 0.060042 -3.106725 -0.153838
v -0.495036 -0.225381 0.090908
vn -2.242381 -5.743306 -0.859738
v -0.016465 -0.269489 0.193063
vn 0.291807 -4.845457 0.088298
v 0.335939 -0.282598 0.354766
vn -0.136432 -1.607908 0.148422
v -0.595165 -0.302705 0.137201
vn -0.946702 -4.275916 0.750724
v 0.093193 -0.292161 0.325444
vn -1.880931 -5.710617 0.085294
v -0.006706 -0.280906 0.246211
vn 1.828052 -5.303867 1.901194
v 0.580898 -0.240744 0.379074
vn -0.920763 -6.123486 0.391957
v -0.102541 -0.229784 0.321886
vn 0.501730 -2.639858 0.076995
v -0.612760 -0.284079 0.322809
vn 0.175975 -6.279190 -0.036248
v -0.309606 -0.229510 0.323721
vn 0.571416 -4.812460 0.020785
v -0.455335 -0.237067 0.321699
vn -0.626688 -3.251328 0.014197
v -0.979260 -0.307972 0.317097
vn -1.762907 -5.760418 1.735754
v 0.019840 -0.240488 0.402264
vn -0.178563 -4.233160 -1.999512
v 0.174300 -0.280705 0.528608
vn -0.949159 -2.571894 0.215960
v 0.095645 -0.227644 0.529822
vn -0.120485 -4.590865 0.531243
v -0.103721 -0.221849 0.534542
vn 1.357427 -5.035939 -0.187796
v -0.575032 -0.280218 0.521099
vn 0.649145 -3.311230 0.359918
v -0.482838 -0.233817 0.575350
vn 0.313224 -6.127168 0.997468
v -0.311367 -0.227026 0.529067
vn 0.379591 -4.182076 0.151680
v -0.729175 -0.300515 0.533592
vn 1.583444 -3.244081 2.421530
v 0.265014 -0.283109 0.730510
vn -0.287943 -4.609799 0.060546
v -0.963706 -0.302438 0.530567
vn -3.102459 -5.164812 -1.206436
v -1.148370 0.173275 0.124376
vn 0.817537 -0.967550 2.939046
v -0.113863 -0.294619 0.802028
vn -1.527437 -2.907009 1.827366
v -0.535186 -0.298668 0.765423
vn 0.904458 -2.761019 1.340603
v -0.314398 -0.298673 0.810311
# 453 vertices, 0 vertices normals

f 165//165 95//95 99//99
f 225//225 336//336 50//50
f 332//332 351//351 377//377
f 125//125 123//123 238//238
f 62//62 90//90 70//70
f 62//62 162//162 95//95
f 25//25 90//90 51//51
f 110//110 26//26 36//36
f 28//28 35//35 153//153
f 445//445 444//444 436//436
f 95//95 36//36 154//154
f 4//4 62//62 70//70
f 25//25 70//70 90//90
f 39//39 219//219 105//105
f 23//23 43//43 40//40
f 15//15 25//25 35//35
f 291//291 167//167 372//372
f 227//227 77//77 225//225
f 205//205 198//198 73//73
f 83//83 4//4 15//15
f 14//14 82//82 24//24
f 100//100 14//14 24//24
f 24//24 111//111 31//31
f 111//111 3//3 31//31
f 167//167 266//266 372//372
f 91//91 62//62 4//4
f 35//35 25//25 51//51
f 294//294 168//168 208//208
f 81//81 79//79 86//86
f 62//62 95//95 165//165
f 85//85 239//239 81//81
f 5//5 162//162 62//62
f 197//197 23//23 229//229
f 60//60 47//47 243//243
f 180//180 85//85 81//81
f 266//266 97//97 372//372
f 53//53 259//259 208//208
f 122//122 128//128 142//142
f 233//233 228//228 221//221
f 233//233 244//244 228//228
f 233//233 247//247 244//244
f 58//58 127//127 57//57
f 58//58 131//131 127//127
f 222//222 233//233 221//221
f 5//5 62//62 91//91
f 135//135 81//81 86//86
f 177//177 218//218 176//176
f 5//5 1//1 162//162
f 79//79 22//22 51//51
f 127//127 131//131 130//130
f 57//57 127//127 130//130
f 112//112 183//183 202//202
f 97//97 71//71 372//372
f 90//90 165//165 99//99
f 124//124 7//7 56//56
f 198//198 88//88 73//73
f 417//417 420//420 413//413
f 22//22 79//79 37//37
f 62//62 165//165 90//90
f 68//68 133//133 65//65
f 151//151 150//150 133//133
f 385//385 388//388 326//326
f 215//215 222//222 113//113
f 215//215 234//234 233//233
f 222//222 215//215 233//233
f 245//245 247//247 233//233
f 234//234 245//245 233//233
f 245//245 253//253 247//247
f 245//245 144//144 120//120
f 253//253 245//245 120//120
f 128//128 143//143 142//142
f 68//68 151//151 133//133
f 83//83 91//91 4//4
f 113//113 181//181 215//215
f 245//245 254//254 144//144
f 112//112 202//202 270//270
f 38//38 75//75 64//64
f 134//134 151//151 68//68
f 119//119 134//134 68//68
f 134//134 181//181 151//151
f 192//192 215//215 181//181
f 182//182 192//192 181//181
f 192//192 235//235 234//234
f 215//215 192//192 234//234
f 235//235 245//245 234//234
f 235//235 8//8 245//245
f 245//245 99//99 254//254
f 254//254 99//99 144//144
f 217//217 218//218 116//116
f 182//182 181//181 134//134
f 16//16 17//17 220//220
f 255//255 99//99 245//245
f 8//8 255//255 245//245
f 75//75 12//12 64//64
f 15//15 4//4 25//25
f 4//4 70//70 25//25
f 218//218 217//217 176//176
f 86//86 79//79 51//51
f 74//74 79//79 81//81
f 8//8 99//99 255//255
f 106//106 134//134 119//119
f 2//2 249//249 197//197
f 49//49 242//242 101//101
f 43//43 157//157 40//40
f 150//150 174//174 345//345
f 136//136 134//134 106//106
f 107//107 136//136 106//106
f 32//32 8//8 235//235
f 149//149 32//32 235//235
f 90//90 99//99 8//8
f 32//32 90//90 8//8
f 236//236 85//85 231//231
f 15//15 28//28 237//237
f 107//107 126//126 136//136
f 20//20 21//21 63//63
f 132//132 55//55 160//160
f 35//35 51//51 22//22
f 83//83 15//15 237//237
f 202//202 53//53 44//44
f 311//311 309//309 281//281
f 272//272 311//311 281//281
f 28//28 15//15 35//35
f 178//178 90//90 32//32
f 239//239 74//74 81//81
f 131//131 177//177 176//176
f 355//355 332//332 382//382
f 130//130 131//131 176//176
f 126//126 137//137 136//136
f 252//252 53//53 202//202
f 107//107 57//57 126//126
f 57//57 130//130 137//137
f 126//126 57//57 137//137
f 130//130 176//176 175//175
f 137//137 130//130 175//175
f 176//176 217//217 216//216
f 175//175 176//176 216//216
f 116//116 115//115 216//216
f 217//217 116//116 216//216
f 135//135 86//86 32//32
f 86//86 178//178 32//32
f 51//51 90//90 178//178
f 86//86 51//51 178//178
f 180//180 81//81 246//246
f 401//401 408//408 368//368
f 264//264 84//84 122//122
f 218//218 180//180 116//116
f 150//150 133//133 65//65
f 179//179 188//188 117//117
f 143//143 179//179 117//117
f 327//327 121//121 320//320
f 58//58 84//84 268//268
f 305//305 392//392 295//295
f 356//356 355//355 360//360
f 129//129 30//30 12//12
f 268//268 274//274 131//131
f 49//49 17//17 11//11
f 302//302 303//303 267//267
f 197//197 67//67 23//23
f 231//231 85//85 218//218
f 248//248 14//14 244//244
f 111//111 82//82 14//14
f 272//272 179//179 267//267
f 111//111 14//14 248//248
f 279//279 278//278 268//268
f 49//49 11//11 330//330
f 259//259 12//12 276//276
f 2//2 197//197 229//229
f 155//155 248//248 244//244
f 155//155 111//111 248//248
f 264//264 142//142 271//271
f 155//155 61//61 111//111
f 12//12 75//75 38//38
f 275//275 6//6 52//52
f 253//253 155//155 244//244
f 110//110 111//111 61//61
f 40//40 3//3 111//111
f 110//110 40//40 111//111
f 33//33 129//129 12//12
f 310//310 301//301 312//312
f 253//253 120//120 155//155
f 74//74 146//146 256//256
f 68//68 65//65 260//260
f 33//33 30//30 129//129
f 259//259 276//276 44//44
f 155//155 120//120 61//61
f 120//120 110//110 61//61
f 138//138 257//257 249//249
f 271//271 268//268 84//84
f 236//236 239//239 85//85
f 268//268 131//131 58//58
f 259//259 33//33 12//12
f 303//303 311//311 272//272
f 52//52 239//239 236//236
f 267//267 303//303 272//272
f 6//6 37//37 256//256
f 52//52 236//236 231//231
f 52//52 146//146 74//74
f 287//287 52//52 231//231
f 288//288 275//275 287//287
f 120//120 26//26 110//110
f 11//11 41//41 290//290
f 121//121 49//49 330//330
f 275//275 52//52 287//287
f 277//277 231//231 218//218
f 11//11 17//17 16//16
f 52//52 6//6 146//146
f 44//44 12//12 202//202
f 177//177 277//277 218//218
f 144//144 26//26 120//120
f 159//159 208//208 168//168
f 361//361 322//322 358//358
f 131//131 274//274 277//277
f 123//123 199//199 238//238
f 271//271 279//279 268//268
f 78//78 219//219 39//39
f 16//16 7//7 41//41
f 281//281 188//188 179//179
f 272//272 281//281 179//179
f 259//259 208//208 33//33
f 67//67 59//59 23//23
f 280//280 288//288 279//279
f 156//156 140//140 173//173
f 122//122 142//142 264//264
f 289//289 42//42 275//275
f 288//288 289//289 275//275
f 277//277 177//177 131//131
f 290//290 289//289 206//206
f 275//275 42//42 6//6
f 289//289 288//288 280//280
f 330//330 11//11 290//290
f 17//17 101//101 220//220
f 128//128 179//179 143//143
f 274//274 268//268 277//277
f 253//253 120//120 244//244
f 117//117 280//280 142//142
f 42//42 124//124 6//6
f 117//117 289//289 280//280
f 143//143 117//117 142//142
f 208//208 159//159 33//33
f 277//277 278//278 231//231
f 102//102 103//103 164//164
f 300//300 299//299 295//295
f 288//288 287//287 279//279
f 6//6 256//256 146//146
f 132//132 160//160 71//71
f 276//276 12//12 44//44
f 33//33 159//159 251//251
f 206//206 289//289 117//117
f 74//74 37//37 79//79
f 121//121 330//330 320//320
f 298//298 392//392 301//301
f 85//85 180//180 218//218
f 18//18 78//78 39//39
f 256//256 37//37 74//74
f 264//264 271//271 84//84
f 250//250 249//249 2//2
f 287//287 231//231 278//278
f 12//12 38//38 67//67
f 44//44 53//53 259//259
f 268//268 278//278 277//277
f 280//280 279//279 271//271
f 142//142 280//280 271//271
f 52//52 74//74 239//239
f 48//48 37//37 6//6
f 202//202 67//67 270//270
f 202//202 12//12 67//67
f 310//310 311//311 303//303
f 301//301 310//310 303//303
f 183//183 34//34 252//252
f 279//279 287//287 278//278
f 244//244 247//247 253//253
f 417//417 428//428 420//420
f 97//97 132//132 71//71
f 67//67 257//257 112//112
f 66//66 336//336 190//190
f 114//114 375//375 408//408
f 145//145 140//140 156//156
f 227//227 225//225 140//140
f 359//359 401//401 397//397
f 31//31 92//92 204//204
f 227//227 140//140 145//145
f 47//47 329//329 243//243
f 308//308 305//305 299//299
f 71//71 160//160 55//55
f 104//104 266//266 285//285
f 444//444 262//262 447//447
f 18//18 39//39 29//29
f 89//89 201//201 240//240
f 73//73 171//171 212//212
f 139//139 18//18 29//29
f 36//36 2//2 229//229
f 296//296 300//300 295//295
f 19//19 132//132 141//141
f 19//19 60//60 132//132
f 189//189 71//71 55//55
f 105//105 88//88 198//198
f 223//223 49//49 121//121
f 326//326 327//327 312//312
f 327//327 282//282 121//121
f 55//55 160//160 293//293
f 387//387 300//300 296//296
f 139//139 60//60 18//18
f 49//49 101//101 17//17
f 60//60 243//243 18//18
f 297//297 122//122 84//84
f 11//11 16//16 41//41
f 243//243 92//92 18//18
f 226//226 10//10 212//212
f 315//315 323//323 385//385
f 327//327 326//326 282//282
f 171//171 226//226 212//212
f 18//18 92//92 78//78
f 145//145 77//77 227//227
f 156//156 10//10 226//226
f 160//160 132//132 29//29
f 173//173 140//140 171//171
f 132//132 139//139 29//29
f 282//282 265//265 121//121
f 265//265 223//223 121//121
f 140//140 156//156 226//226
f 140//140 226//226 171//171
f 315//315 326//326 314//314
f 387//387 296//296 391//391
f 293//293 160//160 29//29
f 133//133 150//150 345//345
f 425//425 428//428 417//417
f 50//50 336//336 66//66
f 315//315 314//314 305//305
f 112//112 270//270 67//67
f 10//10 72//72 73//73
f 212//212 10//10 73//73
f 307//307 317//317 354//354
f 308//308 315//315 305//305
f 326//326 312//312 314//314
f 41//41 42//42 289//289
f 290//290 41//41 289//289
f 41//41 7//7 42//42
f 7//7 124//124 42//42
f 23//23 40//40 110//110
f 166//166 313//313 77//77
f 300//300 308//308 299//299
f 145//145 166//166 77//77
f 313//313 108//108 77//77
f 377//377 382//382 332//332
f 166//166 108//108 313//313
f 36//36 229//229 23//23
f 46//46 185//185 161//161
f 43//43 63//63 157//157
f 3//3 40//40 63//63
f 59//59 43//43 23//23
f 50//50 72//72 10//10
f 281//281 117//117 188//188
f 281//281 206//206 117//117
f 156//156 331//331 145//145
f 281//281 290//290 206//206
f 320//320 281//281 309//309
f 163//163 78//78 21//21
f 21//21 78//78 92//92
f 330//330 290//290 281//281
f 320//320 330//330 281//281
f 157//157 63//63 40//40
f 2//2 1//1 191//191
f 36//36 1//1 2//2
f 43//43 20//20 63//63
f 162//162 1//1 36//36
f 191//191 1//1 98//98
f 36//36 23//23 110//110
f 77//77 54//54 225//225
f 162//162 36//36 95//95
f 50//50 10//10 156//156
f 225//225 50//50 156//156
f 30//30 64//64 12//12
f 161//161 163//163 20//20
f 77//77 334//334 54//54
f 154//154 26//26 144//144
f 72//72 50//50 66//66
f 3//3 21//21 31//31
f 63//63 21//21 3//3
f 56//56 9//9 6//6
f 170//170 1//1 5//5
f 7//7 9//9 56//56
f 36//36 26//26 154//154
f 161//161 219//219 163//163
f 219//219 78//78 163//163
f 16//16 335//335 7//7
f 335//335 9//9 7//7
f 333//333 77//77 94//94
f 9//9 48//48 6//6
f 99//99 154//154 144//144
f 95//95 154//154 99//99
f 220//220 335//335 16//16
f 333//333 334//334 77//77
f 94//94 77//77 108//108
f 101//101 335//335 220//220
f 161//161 20//20 46//46
f 20//20 163//163 21//21
f 341//341 133//133 345//345
f 46//46 20//20 43//43
f 28//28 48//48 9//9
f 28//28 37//37 48//48
f 81//81 116//116 180//180
f 46//46 43//43 59//59
f 72//72 185//185 46//46
f 237//237 28//28 9//9
f 335//335 237//237 9//9
f 333//333 94//94 334//334
f 28//28 153//153 37//37
f 224//224 65//65 341//341
f 237//237 335//335 118//118
f 153//153 22//22 37//37
f 135//135 149//149 116//116
f 116//116 149//149 115//115
f 153//153 35//35 22//22
f 6//6 124//124 56//56
f 338//338 69//69 192//192
f 334//334 94//94 283//283
f 257//257 67//67 197//197
f 136//136 175//175 348//348
f 184//184 181//181 196//196
f 118//118 286//286 237//237
f 183//183 112//112 64//64
f 355//355 319//319 353//353
f 115//115 235//235 69//69
f 72//72 66//66 185//185
f 136//136 137//137 175//175
f 192//192 216//216 338//338
f 338//338 216//216 115//115
f 64//64 34//34 183//183
f 134//134 136//136 182//182
f 136//136 348//348 182//182
f 111//111 24//24 82//82
f 158//158 181//181 184//184
f 150//150 158//158 184//184
f 228//228 148//148 221//221
f 13//13 24//24 31//31
f 152//152 100//100 47//47
f 175//175 216//216 192//192
f 100//100 329//329 47//47
f 115//115 149//149 235//235
f 150//150 151//151 158//158
f 221//221 148//148 285//285
f 69//69 235//235 192//192
f 397//397 358//358 357//357
f 100//100 24//24 13//13
f 329//329 100//100 13//13
f 338//338 115//115 69//69
f 357//357 359//359 397//397
f 339//339 344//344 343//343
f 224//224 341//341 340//340
f 266//266 104//104 97//97
f 342//342 224//224 340//340
f 348//348 175//175 192//192
f 183//183 252//252 202//202
f 135//135 116//116 81//81
f 13//13 31//31 204//204
f 346//346 344//344 339//339
f 148//148 228//228 104//104
f 34//34 109//109 252//252
f 96//96 21//21 92//92
f 182//182 348//348 192//192
f 346//346 347//347 344//344
f 158//158 151//151 181//181
f 104//104 228//228 19//19
f 67//67 241//241 59//59
f 346//346 345//345 347//347
f 147//147 33//33 109//109
f 446//446 126//126 445//445
f 31//31 96//96 92//92
f 125//125 374//374 375//375
f 138//138 250//250 73//73
f 345//345 346//346 339//339
f 345//345 169//169 347//347
f 13//13 204//204 329//329
f 285//285 148//148 104//104
f 241//241 67//67 38//38
f 345//345 174//174 169//169
f 108//108 283//283 94//94
f 77//77 54//54 108//108
f 108//108 54//54 283//283
f 283//283 54//54 334//334
f 166//166 77//77 108//108
f 316//316 203//203 292//292
f 408//408 375//375 368//368
f 145//145 54//54 77//77
f 389//389 390//390 93//93
f 145//145 225//225 54//54
f 433//433 432//432 435//435
f 156//156 190//190 145//145
f 145//145 190//190 225//225
f 190//190 336//336 54//54
f 225//225 190//190 54//54
f 147//147 30//30 33//33
f 383//383 89//89 210//210
f 332//332 317//317 351//351
f 332//332 354//354 317//317
f 358//358 368//368 367//367
f 361//361 358//358 367//367
f 368//368 375//375 374//374
f 367//367 368//368 374//374
f 374//374 408//408 375//375
f 389//389 93//93 170//170
f 171//171 66//66 156//156
f 156//156 66//66 190//190
f 329//329 204//204 92//92
f 414//414 422//422 415//415
f 357//357 332//332 359//359
f 243//243 329//329 92//92
f 114//114 199//199 123//123
f 125//125 114//114 123//123
f 240//240 201//201 316//316
f 332//332 357//357 358//358
f 373//373 27//27 103//103
f 376//376 373//373 103//103
f 27//27 164//164 103//103
f 409//409 373//373 376//376
f 73//73 88//88 66//66
f 171//171 73//73 66//66
f 88//88 185//185 66//66
f 64//64 109//109 12//12
f 64//64 30//30 109//109
f 371//371 286//286 232//232
f 390//390 371//371 232//232
f 34//34 64//64 109//109
f 369//369 307//307 322//322
f 375//375 114//114 125//125
f 286//286 325//325 269//269
f 232//232 286//286 269//269
f 337//337 273//273 187//187
f 225//225 156//156 140//140
f 364//364 370//370 373//373
f 87//87 194//194 164//164
f 209//209 64//64 112//112
f 357//357 358//358 322//322
f 347//347 355//355 353//353
f 347//347 169//169 355//355
f 169//169 360//360 355//355
f 365//365 291//291 370//370
f 364//364 365//365 370//370
f 291//291 372//372 373//373
f 370//370 291//291 373//373
f 372//372 71//71 27//27
f 373//373 372//372 27//27
f 71//71 189//189 27//27
f 189//189 55//55 27//27
f 55//55 164//164 27//27
f 55//55 87//87 164//164
f 55//55 29//29 87//87
f 29//29 39//39 87//87
f 39//39 198//198 87//87
f 39//39 105//105 198//198
f 105//105 219//219 88//88
f 219//219 161//161 88//88
f 161//161 185//185 88//88
f 59//59 241//241 209//209
f 241//241 38//38 64//64
f 209//209 241//241 64//64
f 341//341 65//65 133//133
f 344//344 169//169 347//347
f 401//401 368//368 358//358
f 397//397 401//401 358//358
f 55//55 293//293 29//29
f 97//97 104//104 19//19
f 250//250 138//138 249//249
f 201//201 210//210 200//200
f 80//80 223//223 282//282
f 328//328 309//309 310//310
f 344//344 347//347 353//353
f 384//384 389//389 170//170
f 201//201 89//89 210//210
f 286//286 187//187 325//325
f 242//242 49//49 80//80
f 304//304 101//101 80//80
f 324//324 106//106 452//452
f 101//101 304//304 187//187
f 101//101 17//17 80//80
f 322//322 354//354 332//332
f 237//237 286//286 371//371
f 390//390 232//232 93//93
f 101//101 286//286 118//118
f 187//187 304//304 80//80
f 83//83 237//237 390//390
f 101//101 242//242 80//80
f 46//46 73//73 72//72
f 1//1 170//170 98//98
f 46//46 138//138 73//73
f 286//286 101//101 187//187
f 138//138 46//46 59//59
f 200//200 379//379 306//306
f 209//209 138//138 59//59
f 306//306 381//381 203//203
f 379//379 350//350 306//306
f 170//170 93//93 316//316
f 193//193 263//263 76//76
f 362//362 193//193 76//76
f 292//292 203//203 238//238
f 259//259 294//294 208//208
f 273//273 80//80 378//378
f 325//325 187//187 269//269
f 269//269 187//187 89//89
f 91//91 390//390 389//389
f 170//170 316//316 292//292
f 98//98 170//170 292//292
f 80//80 321//321 378//378
f 5//5 384//384 170//170
f 380//380 318//318 369//369
f 201//201 203//203 316//316
f 93//93 240//240 316//316
f 307//307 354//354 322//322
f 371//371 390//390 237//237
f 49//49 223//223 80//80
f 362//362 207//207 186//186
f 93//93 232//232 240//240
f 357//357 322//322 332//332
f 191//191 172//172 186//186
f 250//250 191//191 186//186
f 207//207 199//199 362//362
f 199//199 193//193 362//362
f 91//91 389//389 384//384
f 306//306 125//125 238//238
f 328//328 312//312 327//327
f 5//5 91//91 384//384
f 191//191 250//250 2//2
f 172//172 207//207 186//186
f 203//203 306//306 238//238
f 109//109 30//30 147//147
f 309//309 311//311 310//310
f 335//335 101//101 118//118
f 91//91 83//83 390//390
f 80//80 337//337 187//187
f 225//225 54//54 336//336
f 355//355 382//382 319//319
f 232//232 269//269 240//240
f 187//187 273//273 210//210
f 89//89 187//187 210//210
f 201//201 200//200 203//203
f 328//328 327//327 320//320
f 309//309 328//328 320//320
f 310//310 312//312 328//328
f 436//436 444//444 447//447
f 200//200 306//306 203//203
f 98//98 172//172 191//191
f 172//172 98//98 207//207
f 98//98 292//292 207//207
f 238//238 199//199 207//207
f 292//292 238//238 207//207
f 407//407 125//125 306//306
f 400//400 403//403 401//401
f 301//301 305//305 312//312
f 305//305 314//314 312//312
f 408//408 214//214 114//114
f 209//209 112//112 257//257
f 404//404 403//403 400//400
f 364//364 404//404 400//400
f 404//404 376//376 403//403
f 364//364 400//400 360//360
f 195//195 193//193 199//199
f 194//194 87//87 76//76
f 401//401 214//214 408//408
f 273//273 337//337 80//80
f 80//80 282//282 321//321
f 301//301 303//303 298//298
f 295//295 299//299 305//305
f 300//300 323//323 315//315
f 308//308 300//300 315//315
f 378//378 282//282 326//326
f 388//388 378//378 326//326
f 282//282 378//378 321//321
f 356//356 359//359 332//332
f 102//102 103//103 263//263
f 364//364 376//376 404//404
f 198//198 205//205 76//76
f 263//263 164//164 194//194
f 319//319 344//344 353//353
f 300//300 323//323 385//385
f 300//300 394//394 323//323
f 323//323 394//394 385//385
f 138//138 209//209 257//257
f 87//87 198//198 76//76
f 223//223 265//265 282//282
f 186//186 362//362 76//76
f 366//366 361//361 367//367
f 387//387 393//393 394//394
f 300//300 387//387 394//394
f 394//394 393//393 385//385
f 393//393 395//395 385//385
f 395//395 399//399 388//388
f 385//385 395//395 388//388
f 405//405 378//378 388//388
f 399//399 405//405 388//388
f 405//405 210//210 378//378
f 210//210 273//273 378//378
f 400//400 401//401 359//359
f 360//360 400//400 359//359
f 102//102 164//164 263//263
f 263//263 194//194 76//76
f 103//103 102//102 376//376
f 205//205 73//73 250//250
f 32//32 149//149 135//135
f 425//425 438//438 428//428
f 360//360 359//359 356//356
f 401//401 403//403 214//214
f 205//205 250//250 186//186
f 352//352 318//318 387//387
f 391//391 352//352 387//387
f 318//318 393//393 387//387
f 393//393 318//318 395//395
f 318//318 396//396 395//395
f 396//396 398//398 399//399
f 395//395 396//396 399//399
f 398//398 406//406 405//405
f 399//399 398//398 405//405
f 200//200 210//210 405//405
f 406//406 200//200 405//405
f 269//269 89//89 240//240
f 76//76 205//205 186//186
f 244//244 19//19 228//228
f 398//398 386//386 406//406
f 386//386 200//200 406//406
f 263//263 193//193 195//195
f 102//102 263//263 195//195
f 19//19 132//132 97//97
f 350//350 379//379 200//200
f 386//386 350//350 200//200
f 251//251 159//159 168//168
f 294//294 251//251 168//168
f 380//380 363//363 396//396
f 318//318 380//380 396//396
f 396//396 363//363 398//398
f 363//363 366//366 398//398
f 366//366 402//402 398//398
f 402//402 350//350 386//386
f 398//398 402//402 386//386
f 376//376 195//195 214//214
f 214//214 195//195 114//114
f 376//376 102//102 195//195
f 343//343 344//344 319//319
f 376//376 214//214 403//403
f 452//452 262//262 444//444
f 33//33 251//251 294//294
f 259//259 33//33 294//294
f 114//114 195//195 199//199
f 352//352 410//410 369//369
f 356//356 332//332 355//355
f 340//340 341//341 345//345
f 373//373 376//376 364//364
f 340//340 345//345 339//339
f 369//369 322//322 380//380
f 361//361 363//363 380//380
f 361//361 366//366 363//363
f 367//367 366//366 363//363
f 407//407 350//350 402//402
f 366//366 407//407 402//402
f 109//109 259//259 53//53
f 259//259 109//109 33//33
f 306//306 350//350 407//407
f 298//298 303//303 302//302
f 53//53 252//252 109//109
f 322//322 361//361 380//380
f 385//385 326//326 315//315
f 374//374 407//407 366//366
f 367//367 374//374 366//366
f 350//350 374//374 407//407
f 374//374 125//125 407//407
f 107//107 106//106 324//324
f 440//440 435//435 432//432
f 19//19 244//244 230//230
f 84//84 58//58 261//261
f 448//448 84//84 261//261
f 419//419 426//426 430//430
f 440//440 442//442 435//435
f 442//442 443//443 435//435
f 258//258 107//107 324//324
f 392//392 426//426 419//419
f 436//436 438//438 445//445
f 258//258 324//324 453//453
f 392//392 419//419 295//295
f 297//297 441//441 442//442
f 132//132 60//60 139//139
f 295//295 414//414 296//296
f 96//96 31//31 21//21
f 429//429 433//433 435//435
f 423//423 425//425 416//416
f 295//295 421//421 414//414
f 426//426 297//297 430//430
f 415//415 423//423 416//416
f 426//426 122//122 297//297
f 297//297 441//441 432//432
f 453//453 324//324 452//452
f 297//297 84//84 448//448
f 432//432 442//442 440//440
f 446//446 445//445 437//437
f 430//430 297//297 432//432
f 451//451 57//57 107//107
f 302//302 122//122 434//434
f 107//107 258//258 453//453
f 415//415 416//416 412//412
f 391//391 414//414 387//387
f 19//19 230//230 60//60
f 60//60 230//230 47//47
f 387//387 415//415 412//412
f 302//302 434//434 426//426
f 249//249 257//257 197//197
f 412//412 417//417 413//413
f 301//301 392//392 305//305
f 423//423 437//437 425//425
f 47//47 230//230 152//152
f 128//128 122//122 302//302
f 413//413 420//420 357//357
f 296//296 414//414 391//391
f 352//352 391//391 412//412
f 443//443 57//57 126//126
f 410//410 352//352 413//413
f 331//331 173//173 156//156
f 452//452 119//119 68//68
f 365//365 45//45 291//291
f 291//291 45//45 167//167
f 167//167 211//211 266//266
f 266//266 211//211 285//285
f 443//443 437//437 435//435
f 230//230 100//100 152//152
f 365//365 450//450 45//45
f 450//450 284//284 45//45
f 419//419 421//421 295//295
f 364//364 450//450 365//365
f 213//213 285//285 211//211
f 45//45 211//211 167//167
f 421//421 429//429 423//423
f 45//45 213//213 211//211
f 248//248 230//230 244//244
f 230//230 248//248 100//100
f 128//128 267//267 179//179
f 57//57 451//451 261//261
f 414//414 421//421 422//422
f 360//360 169//169 364//364
f 364//364 169//169 450//450
f 416//416 425//425 417//417
f 297//297 448//448 261//261
f 213//213 221//221 285//285
f 437//437 438//438 425//425
f 352//352 412//412 413//413
f 441//441 442//442 432//432
f 284//284 213//213 45//45
f 452//452 68//68 262//262
f 169//169 174//174 450//450
f 450//450 174//174 284//284
f 427//427 343//343 319//319
f 382//382 427//427 319//319
f 213//213 349//349 221//221
f 267//267 128//128 302//302
f 427//427 339//339 343//343
f 150//150 284//284 174//174
f 150//150 213//213 284//284
f 439//439 339//339 427//427
f 434//434 122//122 426//426
f 150//150 184//184 213//213
f 415//415 422//422 423//423
f 173//173 171//171 156//156
f 369//369 318//318 352//352
f 351//351 382//382 377//377
f 68//68 260//260 262//262
f 184//184 113//113 213//213
f 213//213 113//113 349//349
f 349//349 113//113 221//221
f 449//449 340//340 339//339
f 439//439 449//449 339//339
f 421//421 432//432 433//433
f 113//113 222//222 221//221
f 429//429 421//421 433//433
f 418//418 382//382 351//351
f 423//423 429//429 435//435
f 424//424 427//427 382//382
f 418//418 424//424 382//382
f 57//57 261//261 58//58
f 452//452 106//106 119//119
f 297//297 261//261 441//441
f 387//387 414//414 415//415
f 307//307 351//351 317//317
f 449//449 342//342 340//340
f 416//416 417//417 412//412
f 437//437 445//445 438//438
f 260//260 342//342 449//449
f 298//298 426//426 392//392
f 443//443 126//126 446//446
f 451//451 107//107 453//453
f 411//411 351//351 307//307
f 342//342 260//260 224//224
f 356//356 418//418 351//351
f 411//411 356//356 351//351
f 260//260 65//65 224//224
f 357//357 411//411 351//351
f 357//357 356//356 411//411
f 356//356 420//420 418//418
f 248//248 14//14 100//100
f 196//196 113//113 184//184
f 181//181 113//113 196//196
f 420//420 356//356 357//357
f 302//302 426//426 298//298
f 391//391 387//387 412//412
f 447//447 260//260 449//449
f 447//447 262//262 260//260
f 435//435 437//437 423//423
f 422//422 421//421 423//423
f 410//410 411//411 307//307
f 369//369 410//410 307//307
f 413//413 357//357 411//411
f 410//410 413//413 411//411
f 443//443 446//446 437//437
f 436//436 424//424 431//431
# 908 faces, 0 coords texture

# End of File
