# OBJ export from SurfaceMesh
v 1.000000 1.000000 -1.000000
v 1.000000 -1.000000 -1.000000
v 1.000000 1.000000 1.000000
v 1.000000 -1.000000 1.000000
v -1.000000 1.000000 -1.000000
v -1.000000 -1.000000 -1.000000
v -1.000000 1.000000 1.000000
v -1.000000 -1.000000 1.000000
v 0.000000 0.000000 2.000000
v 2.000000 0.000000 0.000000
v 0.000000 0.000000 -2.000000
v -2.000000 0.000000 0.000000
vn 1.000000 2.000000 -1.000000
vn 1.000000 -2.000000 -1.000000
vn 1.000000 2.000000 1.000000
vn 1.000000 -2.000000 1.000000
vn -1.000000 2.000000 -1.000000
vn -1.000000 -2.000000 -1.000000
vn -1.000000 2.000000 1.000000
vn -1.000000 -2.000000 1.000000
vn 0.000000 0.000000 2.000000
vn 2.000000 0.000000 0.000000
vn 0.000000 0.000000 -2.000000
vn -2.000000 0.000000 0.000000
vt 0.8750000000 0.5000000000 
vt 0.6250000000 0.5000000000 
vt 0.8750000000 0.7500000000 
vt 0.6250000000 0.2500000000 
vt 0.6250000000 0.7500000000 
vt 0.6250000000 1.0000000000 
vt 0.6250000000 0.5000000000 
vt 0.6250000000 0.7500000000 
vt 0.6250000000 0.5000000000 
vt 0.3750000000 0.5000000000 
vt 0.5000000000 0.6250000000 
vt 0.6250000000 0.5000000000 
vt 0.3750000000 0.5000000000 
vt 0.5000000000 0.6250000000 
vt 0.3750000000 0.5000000000 
vt 0.3750000000 0.2500000000 
vt 0.3750000000 0.7500000000 
vt 0.3750000000 0.5000000000 
vt 0.1250000000 0.7500000000 
vt 0.3750000000 0.7500000000 
vt 0.1250000000 0.5000000000 
vt 0.3750000000 0.0000000000 
vt 0.6250000000 0.2500000000 
vt 0.3750000000 0.2500000000 
vt 0.5000000000 0.3750000000 
vt 0.6250000000 0.2500000000 
vt 0.3750000000 0.2500000000 
vt 0.5000000000 0.3750000000 
vt 0.6250000000 0.0000000000 
vt 0.3750000000 1.0000000000 
vt 0.5000000000 0.1250000000 
vt 0.6250000000 0.0000000000 
vt 0.3750000000 0.0000000000 
vt 0.5000000000 0.1250000000 
vt 0.6250000000 0.7500000000 
vt 0.3750000000 0.7500000000 
vt 0.5000000000 0.8750000000 
vt 0.6250000000 0.7500000000 
vt 0.3750000000 0.7500000000 
vt 0.5000000000 0.8750000000 
vt 0.5000000000 0.8750000000 
vt 0.6250000000 1.0000000000 
vt 0.5000000000 0.8750000000 
vt 0.3750000000 1.0000000000 
vt 0.5000000000 0.6250000000 
vt 0.6250000000 0.7500000000 
vt 0.5000000000 0.6250000000 
vt 0.3750000000 0.7500000000 
vt 0.5000000000 0.3750000000 
vt 0.6250000000 0.5000000000 
vt 0.5000000000 0.3750000000 
vt 0.3750000000 0.5000000000 
vt 0.5000000000 0.1250000000 
vt 0.6250000000 0.2500000000 
vt 0.5000000000 0.1250000000 
vt 0.3750000000 0.2500000000 
f 1/7/1 5/1/5 7/3/7 3/5/3
f 2/13/2 1/9/1 10/11/10
f 6/21/6 2/15/2 4/17/4 8/19/8
f 6/27/6 5/23/5 11/25/11
f 8/33/8 7/29/7 12/31/12
f 4/39/4 3/35/3 9/37/9
f 3/38/3 7/6/7 9/41/9
f 7/42/7 8/30/8 9/43/9
f 8/44/8 4/20/4 9/40/9
f 1/12/1 3/8/3 10/45/10
f 3/46/3 4/36/4 10/47/10
f 4/48/4 2/18/2 10/14/10
f 5/26/5 1/2/1 11/49/11
f 1/50/1 2/10/2 11/51/11
f 2/52/2 6/16/6 11/28/11
f 7/32/7 5/4/5 12/53/12
f 5/54/5 6/24/6 12/55/12
f 6/56/6 8/22/8 12/34/12
