####
#
# OBJ File Generated by Meshlab
#
####
# Object spot.obj
#
# Vertices: 188
# Faces: 372
#
####
mtllib ./spot.obj.mtl

vn 0.268595 0.017972 -0.239027
v 0.248141 -0.171208 -0.084575 0.749020 0.749020 0.749020
vn 0.282209 0.064017 0.214149
v 0.229388 -0.210400 0.554207 0.749020 0.749020 0.749020
vn 0.304742 0.186716 -0.043237
v 0.164025 0.132286 0.088502 0.749020 0.749020 0.749020
vn 0.233112 0.208908 0.177810
v 0.138164 0.048301 0.508891 0.749020 0.749020 0.749020
vn 0.344418 0.099193 0.033716
v 0.214612 -0.025725 0.265430 0.749020 0.749020 0.749020
vn 0.235657 -0.272063 0.006878
v 0.210682 -0.257624 0.257754 0.749020 0.749020 0.749020
vn 0.285303 0.135373 -0.172847
v 0.199570 0.005089 -0.030480 0.749020 0.749020 0.749020
vn 0.282809 0.074560 0.209904
v 0.188316 -0.033667 0.527180 0.749020 0.749020 0.749020
vn 0.286032 0.212733 0.050304
v 0.163850 0.058483 0.276617 0.749020 0.749020 0.749020
vn -0.098522 -0.293750 0.183315
v 0.087374 -0.263564 0.100990 0.749020 0.749020 0.749020
vn -0.010013 -0.066581 -0.353648
v 0.059883 -0.122723 -0.148510 0.749020 0.749020 0.749020
vn 0.038569 -0.230891 -0.273499
v 0.052363 -0.184098 -0.041452 0.749020 0.749020 0.749020
vn -0.163705 -0.312093 -0.073476
v 0.043955 -0.281513 0.399298 0.749020 0.749020 0.749020
vn 0.156781 -0.324065 -0.001200
v 0.161756 -0.251656 0.255194 0.749020 0.749020 0.749020
vn 0.359945 -0.001388 0.006146
v 0.242428 -0.110150 0.110250 0.749020 0.749020 0.749020
vn 0.340285 -0.089807 0.075768
v 0.230093 -0.204428 0.109609 0.749020 0.749020 0.749020
vn 0.359138 -0.007170 0.023850
v 0.207281 -0.141286 0.399846 0.749020 0.749020 0.749020
vn 0.335263 -0.108190 -0.074120
v 0.202085 -0.234297 0.383911 0.749020 0.749020 0.749020
vn 0.079025 -0.038600 0.349092
v 0.084001 -0.122029 0.579073 0.749020 0.749020 0.749020
vn -0.118173 -0.142457 0.308774
v 0.031486 -0.213300 0.552553 0.749020 0.749020 0.749020
vn 0.136137 0.313075 0.114240
v 0.104745 0.200017 0.187744 0.749020 0.749020 0.749020
vn 0.212754 0.279402 -0.079183
v 0.118580 0.188132 0.052931 0.749020 0.749020 0.749020
vn 0.264828 0.010762 -0.243620
v 0.094299 0.044176 -0.089033 0.749020 0.749020 0.749020
vn 0.141037 0.244616 -0.223320
v 0.192203 -0.013793 -0.058624 0.749020 0.749020 0.749020
vn 0.151640 0.321258 0.058298
v 0.086038 0.131338 0.425521 0.749020 0.749020 0.749020
vn 0.137141 0.232328 0.238361
v 0.082449 0.073811 0.536606 0.749020 0.749020 0.749020
vn 0.272844 0.109841 0.207583
v 0.178072 -0.133174 0.529157 0.749020 0.749020 0.749020
vn 0.266364 0.238325 0.043028
v 0.153922 0.074912 0.412012 0.749020 0.749020 0.749020
vn 0.350520 0.070893 0.041351
v 0.225478 -0.031383 0.407156 0.749020 0.749020 0.749020
vn 0.352538 0.072632 -0.006465
v 0.244581 -0.027005 0.115596 0.749020 0.749020 0.749020
vn 0.309672 0.171105 0.066530
v 0.161544 0.106205 0.165943 0.749020 0.749020 0.749020
vn 0.357390 -0.009873 0.042132
v 0.223038 -0.142630 0.265222 0.749020 0.749020 0.749020
vn 0.142983 0.316335 0.095332
v 0.088536 0.116078 0.288664 0.749020 0.749020 0.749020
vn 0.322551 -0.002630 0.159857
v 0.091402 0.189020 -0.003022 0.749020 0.749020 0.749020
vn 0.262609 -0.235263 0.072719
v 0.111925 0.109525 -0.131285 0.749020 0.749020 0.749020
vn 0.250342 0.048687 0.254084
v 0.168400 0.283182 0.026329 0.749020 0.749020 0.749020
vn 0.349837 -0.077902 0.033844
v 0.236699 0.162543 -0.251911 0.749020 0.749020 0.749020
vn 0.246724 0.187897 -0.182817
v 0.175025 0.286139 -0.326796 0.749020 0.749020 0.749020
vn 0.219357 0.231082 -0.167582
v 0.127093 0.467294 -0.265199 0.749020 0.749020 0.749020
vn 0.159358 -0.321316 0.031003
v 0.135475 0.045016 -0.262764 0.749020 0.749020 0.749020
vn 0.243024 -0.185191 -0.190378
v 0.207316 0.104914 -0.377741 0.749020 0.749020 0.749020
vn 0.156344 0.101253 -0.308066
v 0.166879 0.211445 -0.417734 0.749020 0.749020 0.749020
vn 0.217360 -0.190338 -0.214770
v 0.254455 -0.455475 -0.102836 0.749020 0.749020 0.749020
vn 0.211613 -0.200132 0.211583
v 0.212349 -0.455475 0.580070 0.749020 0.749020 0.749020
vn -0.226941 -0.183592 0.210694
v 0.034799 -0.455475 0.124941 0.749020 0.749020 0.749020
vn -0.208643 -0.177737 -0.233404
v 0.034230 -0.455475 -0.107210 0.749020 0.749020 0.749020
vn -0.206055 -0.200780 -0.216400
v 0.043696 -0.455475 0.378379 0.749020 0.749020 0.749020
vn 0.175289 -0.193157 0.248121
v 0.223431 -0.455475 0.147834 0.749020 0.749020 0.749020
vn 0.182608 -0.201186 -0.236175
v 0.193929 -0.455475 0.364141 0.749020 0.749020 0.749020
vn -0.218058 -0.191281 0.213219
v 0.023797 -0.455475 0.582610 0.749020 0.749020 0.749020
vn 0.343252 0.050641 -0.095989
v 0.152039 0.388690 -0.242526 0.749020 0.749020 0.749020
vn 0.153708 0.073884 0.317041
v 0.054943 0.412320 -0.140404 0.749020 0.749020 0.749020
vn 0.250770 0.239764 0.096059
v 0.160688 0.322139 -0.027895 0.749020 0.749020 0.749020
vn 0.050350 0.063002 -0.350850
v 0.206926 0.430837 -0.255637 0.749020 0.749020 0.749020
vn 0.292597 0.192188 -0.083969
v 0.351580 0.495037 -0.139941 0.749020 0.749020 0.749020
vn 0.229701 -0.030818 0.275478
v 0.348243 0.413618 -0.002505 0.749020 0.749020 0.749020
vn -0.059451 -0.352923 -0.038867
v 0.225995 0.306314 -0.156034 0.749020 0.749020 0.749020
vn -0.000000 -0.111820 -0.342193
v 0.000000 -0.131311 -0.122599 0.749020 0.749020 0.749020
vn 0.000000 0.199773 -0.299484
v 0.000000 0.280591 -0.337067 0.749020 0.749020 0.749020
vn 0.000000 0.099274 -0.346041
v 0.000000 0.209549 -0.417676 0.749020 0.749020 0.749020
vn 0.000000 -0.210987 -0.291693
v 0.000000 0.048149 -0.165598 0.749020 0.749020 0.749020
vn 0.000000 -0.359882 0.009204
v 0.000000 0.068771 -0.192922 0.749020 0.749020 0.749020
vn 0.000000 -0.358515 -0.032662
v 0.000000 0.046598 -0.268780 0.749020 0.749020 0.749020
vn 0.000000 -0.239524 -0.268753
v 0.000000 0.099383 -0.384148 0.749020 0.749020 0.749020
vn 0.000000 0.276723 -0.230270
v 0.000000 0.499495 -0.279917 0.749020 0.749020 0.749020
vn 0.000000 0.358899 0.028139
v 0.000000 0.511308 -0.182759 0.749020 0.749020 0.749020
vn 0.000000 -0.320688 -0.163582
v 0.000000 -0.272336 0.005854 0.749020 0.749020 0.749020
vn -0.000000 -0.274213 -0.233253
v 0.000000 -0.234211 -0.035662 0.749020 0.749020 0.749020
vn 0.000000 0.359962 0.005264
v 0.000000 0.200910 0.089876 0.749020 0.749020 0.749020
vn 0.000000 0.146783 0.328717
v 0.000000 0.200367 0.004854 0.749020 0.749020 0.749020
vn 0.000000 0.055260 0.355733
v 0.000000 0.292440 0.075851 0.749020 0.749020 0.749020
vn 0.000000 0.215083 0.288686
v 0.000000 0.477388 0.009083 0.749020 0.749020 0.749020
vn 0.000000 0.357219 0.044660
v 0.000000 0.494498 -0.111041 0.749020 0.749020 0.749020
vn 0.000000 -0.325905 0.152924
v 0.000000 -0.261492 0.435291 0.749020 0.749020 0.749020
vn 0.000000 -0.359971 -0.004600
v 0.000000 -0.360139 0.250009 0.749020 0.749020 0.749020
vn 0.000000 0.332840 0.137178
v 0.000000 0.184082 0.189247 0.749020 0.749020 0.749020
vn 0.000000 0.354995 0.059820
v 0.000000 0.133123 0.293359 0.749020 0.749020 0.749020
vn 0.000000 -0.261664 0.247249
v 0.000000 -0.207448 0.546272 0.749020 0.749020 0.749020
vn 0.000000 -0.071722 0.352783
v 0.000000 -0.114968 0.591794 0.749020 0.749020 0.749020
vn 0.000000 0.353574 0.067715
v 0.000000 0.150730 0.432376 0.749020 0.749020 0.749020
vn 0.000000 0.252716 0.256387
v 0.000000 0.086566 0.549418 0.749020 0.749020 0.749020
vn -0.072715 0.250734 0.247881
v 0.092218 0.587602 -0.120100 0.749020 0.749020 0.749020
vn 0.157473 0.173456 -0.273341
v 0.141595 0.571791 -0.215756 0.749020 0.749020 0.749020
vn -0.161554 0.305569 -0.100638
v 0.085595 0.590416 -0.170614 0.749020 0.749020 0.749020
vn 0.318701 0.081768 0.146095
v 0.166274 0.555407 -0.139975 0.749020 0.749020 0.749020
vn -0.332608 0.067075 -0.120302
v 0.052975 0.492745 -0.123688 0.749020 0.749020 0.749020
vn 0.161478 0.298988 0.118876
v 0.051116 0.493805 -0.123324 0.749020 0.749020 0.749020
vn -0.165051 0.318667 -0.028451
v 0.102282 0.476291 -0.219670 0.749020 0.749020 0.749020
vn 0.140767 0.329252 0.037121
v 0.101704 0.477865 -0.222107 0.749020 0.749020 0.749020
vn 0.007769 0.359887 0.004549
v 0.042921 0.493684 -0.173993 0.749020 0.749020 0.749020
vn -0.241144 0.225163 -0.144053
v 0.046284 0.495629 -0.174338 0.749020 0.749020 0.749020
vn 0.186255 0.252603 -0.176354
v 0.126123 0.454921 -0.147628 0.749020 0.749020 0.749020
vn 0.350509 -0.004184 0.082013
v 0.126707 0.459254 -0.143689 0.749020 0.749020 0.749020
vn -0.073168 0.193732 0.294473
v 0.119831 0.453429 -0.107636 0.749020 0.749020 0.749020
vn -0.180721 0.290068 -0.113140
v 0.127586 0.460489 -0.143143 0.749020 0.749020 0.749020
vn 0.022452 -0.348012 -0.089350
v 0.063067 -0.265023 0.125902 0.749020 0.749020 0.749020
vn 0.185176 -0.260094 0.166315
v 0.067828 -0.282187 0.367321 0.749020 0.749020 0.749020
vn 0.301772 -0.195575 0.016857
v 0.163026 -0.299153 0.251805 0.749020 0.749020 0.749020
vn 0.000000 -0.350758 -0.081048
v 0.000000 -0.264645 0.113153 0.749020 0.749020 0.749020
vn 0.000000 -0.339191 0.120623
v 0.000000 -0.284801 0.379827 0.749020 0.749020 0.749020
vn 0.121182 0.075085 0.330571
v 0.093854 -0.021532 0.579506 0.749020 0.749020 0.749020
vn 0.103632 0.140686 0.314751
v 0.069437 -0.012484 0.579814 0.749020 0.749020 0.749020
vn 0.136057 -0.008927 0.333180
v 0.069539 -0.029515 0.583418 0.749020 0.749020 0.749020
vn 0.000000 0.220656 0.284448
v 0.000000 -0.004487 0.597595 0.749020 0.749020 0.749020
vn 0.000000 -0.359902 -0.008408
v 0.000000 -0.021399 0.600930 0.749020 0.749020 0.749020
vn 0.124491 0.174858 0.289010
v 0.030496 -0.033024 0.626550 0.749020 0.749020 0.749020
vn 0.110847 -0.311654 -0.142073
v 0.030559 -0.058137 0.601194 0.749020 0.749020 0.749020
vn 0.000000 -0.026474 0.359025
v 0.000000 -0.047609 0.646656 0.749020 0.749020 0.749020
vn 0.000000 -0.359672 0.015374
v 0.000000 -0.072303 0.621150 0.749020 0.749020 0.749020
vn -0.268595 0.017972 -0.239027
v -0.248141 -0.171208 -0.084575 0.749020 0.749020 0.749020
vn -0.282209 0.064017 0.214149
v -0.229388 -0.210400 0.554207 0.749020 0.749020 0.749020
vn -0.304742 0.186716 -0.043237
v -0.164025 0.132286 0.088502 0.749020 0.749020 0.749020
vn -0.233112 0.208908 0.177810
v -0.138164 0.048301 0.508891 0.749020 0.749020 0.749020
vn -0.344418 0.099193 0.033716
v -0.214612 -0.025725 0.265430 0.749020 0.749020 0.749020
vn -0.235657 -0.272063 0.006878
v -0.210682 -0.257624 0.257754 0.749020 0.749020 0.749020
vn -0.285303 0.135373 -0.172847
v -0.199570 0.005089 -0.030480 0.749020 0.749020 0.749020
vn -0.282809 0.074560 0.209904
v -0.188316 -0.033667 0.527180 0.749020 0.749020 0.749020
vn -0.286032 0.212733 0.050304
v -0.163850 0.058483 0.276617 0.749020 0.749020 0.749020
vn 0.098522 -0.293750 0.183315
v -0.087374 -0.263564 0.100990 0.749020 0.749020 0.749020
vn 0.010013 -0.066581 -0.353648
v -0.059883 -0.122723 -0.148510 0.749020 0.749020 0.749020
vn -0.038569 -0.230891 -0.273499
v -0.052363 -0.184098 -0.041452 0.749020 0.749020 0.749020
vn 0.163705 -0.312093 -0.073476
v -0.043955 -0.281513 0.399298 0.749020 0.749020 0.749020
vn -0.156781 -0.324065 -0.001200
v -0.161756 -0.251656 0.255194 0.749020 0.749020 0.749020
vn -0.359945 -0.001388 0.006146
v -0.242428 -0.110150 0.110250 0.749020 0.749020 0.749020
vn -0.340285 -0.089807 0.075768
v -0.230093 -0.204428 0.109609 0.749020 0.749020 0.749020
vn -0.359138 -0.007170 0.023850
v -0.207281 -0.141286 0.399846 0.749020 0.749020 0.749020
vn -0.335263 -0.108190 -0.074120
v -0.202085 -0.234297 0.383911 0.749020 0.749020 0.749020
vn -0.079025 -0.038600 0.349092
v -0.084001 -0.122029 0.579073 0.749020 0.749020 0.749020
vn 0.118173 -0.142457 0.308774
v -0.031486 -0.213300 0.552553 0.749020 0.749020 0.749020
vn -0.136137 0.313075 0.114240
v -0.104745 0.200017 0.187744 0.749020 0.749020 0.749020
vn -0.212755 0.279402 -0.079183
v -0.118580 0.188132 0.052931 0.749020 0.749020 0.749020
vn -0.264828 0.010762 -0.243620
v -0.094299 0.044176 -0.089033 0.749020 0.749020 0.749020
vn -0.141037 0.244616 -0.223320
v -0.192203 -0.013793 -0.058624 0.749020 0.749020 0.749020
vn -0.151640 0.321258 0.058298
v -0.086038 0.131338 0.425521 0.749020 0.749020 0.749020
vn -0.137141 0.232328 0.238362
v -0.082449 0.073811 0.536606 0.749020 0.749020 0.749020
vn -0.272844 0.109841 0.207583
v -0.178072 -0.133174 0.529157 0.749020 0.749020 0.749020
vn -0.266364 0.238325 0.043028
v -0.153922 0.074912 0.412012 0.749020 0.749020 0.749020
vn -0.350520 0.070893 0.041351
v -0.225478 -0.031383 0.407156 0.749020 0.749020 0.749020
vn -0.352538 0.072632 -0.006465
v -0.244581 -0.027005 0.115596 0.749020 0.749020 0.749020
vn -0.309672 0.171105 0.066530
v -0.161544 0.106205 0.165943 0.749020 0.749020 0.749020
vn -0.357390 -0.009873 0.042132
v -0.223038 -0.142630 0.265222 0.749020 0.749020 0.749020
vn -0.142983 0.316335 0.095332
v -0.088536 0.116078 0.288664 0.749020 0.749020 0.749020
vn -0.322551 -0.002630 0.159857
v -0.091402 0.189020 -0.003022 0.749020 0.749020 0.749020
vn -0.262609 -0.235263 0.072719
v -0.111925 0.109525 -0.131285 0.749020 0.749020 0.749020
vn -0.250342 0.048687 0.254084
v -0.168400 0.283182 0.026329 0.749020 0.749020 0.749020
vn -0.349837 -0.077902 0.033844
v -0.236699 0.162543 -0.251911 0.749020 0.749020 0.749020
vn -0.246724 0.187897 -0.182817
v -0.175025 0.286139 -0.326796 0.749020 0.749020 0.749020
vn -0.219357 0.231082 -0.167582
v -0.127093 0.467294 -0.265199 0.749020 0.749020 0.749020
vn -0.159358 -0.321316 0.031003
v -0.135475 0.045016 -0.262764 0.749020 0.749020 0.749020
vn -0.243024 -0.185191 -0.190378
v -0.207316 0.104914 -0.377741 0.749020 0.749020 0.749020
vn -0.156344 0.101253 -0.308066
v -0.166879 0.211445 -0.417734 0.749020 0.749020 0.749020
vn -0.217360 -0.190338 -0.214770
v -0.254455 -0.455475 -0.102836 0.749020 0.749020 0.749020
vn -0.211613 -0.200132 0.211583
v -0.212349 -0.455475 0.580070 0.749020 0.749020 0.749020
vn 0.226941 -0.183592 0.210694
v -0.034799 -0.455475 0.124941 0.749020 0.749020 0.749020
vn 0.208643 -0.177737 -0.233404
v -0.034230 -0.455475 -0.107210 0.749020 0.749020 0.749020
vn 0.206055 -0.200780 -0.216400
v -0.043696 -0.455475 0.378379 0.749020 0.749020 0.749020
vn -0.175289 -0.193157 0.248121
v -0.223431 -0.455475 0.147834 0.749020 0.749020 0.749020
vn -0.182608 -0.201186 -0.236175
v -0.193929 -0.455475 0.364141 0.749020 0.749020 0.749020
vn 0.218058 -0.191281 0.213219
v -0.023797 -0.455475 0.582610 0.749020 0.749020 0.749020
vn -0.343252 0.050641 -0.095989
v -0.152039 0.388690 -0.242526 0.749020 0.749020 0.749020
vn -0.153708 0.073884 0.317041
v -0.054943 0.412320 -0.140404 0.749020 0.749020 0.749020
vn -0.250770 0.239764 0.096059
v -0.160688 0.322139 -0.027895 0.749020 0.749020 0.749020
vn -0.050350 0.063002 -0.350850
v -0.206926 0.430837 -0.255637 0.749020 0.749020 0.749020
vn -0.292597 0.192188 -0.083969
v -0.351580 0.495037 -0.139941 0.749020 0.749020 0.749020
vn -0.229701 -0.030818 0.275478
v -0.348243 0.413618 -0.002505 0.749020 0.749020 0.749020
vn 0.059451 -0.352923 -0.038867
v -0.225995 0.306314 -0.156034 0.749020 0.749020 0.749020
vn 0.072715 0.250734 0.247881
v -0.092218 0.587602 -0.120100 0.749020 0.749020 0.749020
vn -0.157473 0.173456 -0.273341
v -0.141595 0.571791 -0.215756 0.749020 0.749020 0.749020
vn 0.161554 0.305569 -0.100638
v -0.085595 0.590416 -0.170614 0.749020 0.749020 0.749020
vn -0.318701 0.081768 0.146095
v -0.166274 0.555407 -0.139975 0.749020 0.749020 0.749020
vn 0.332608 0.067075 -0.120302
v -0.052975 0.492745 -0.123688 0.749020 0.749020 0.749020
vn -0.161478 0.298988 0.118876
v -0.051116 0.493805 -0.123324 0.749020 0.749020 0.749020
vn 0.165051 0.318667 -0.028451
v -0.102282 0.476291 -0.219670 0.749020 0.749020 0.749020
vn -0.140767 0.329252 0.037121
v -0.101704 0.477865 -0.222107 0.749020 0.749020 0.749020
vn -0.007769 0.359887 0.004549
v -0.042921 0.493684 -0.173993 0.749020 0.749020 0.749020
vn 0.241144 0.225163 -0.144053
v -0.046284 0.495629 -0.174338 0.749020 0.749020 0.749020
vn -0.186255 0.252603 -0.176354
v -0.126123 0.454921 -0.147628 0.749020 0.749020 0.749020
vn -0.350509 -0.004184 0.082013
v -0.126707 0.459254 -0.143689 0.749020 0.749020 0.749020
vn 0.073168 0.193732 0.294473
v -0.119831 0.453429 -0.107636 0.749020 0.749020 0.749020
vn 0.180721 0.290068 -0.113140
v -0.127586 0.460489 -0.143143 0.749020 0.749020 0.749020
vn -0.022452 -0.348012 -0.089350
v -0.063067 -0.265023 0.125902 0.749020 0.749020 0.749020
vn -0.185176 -0.260094 0.166315
v -0.067828 -0.282187 0.367321 0.749020 0.749020 0.749020
vn -0.301772 -0.195575 0.016857
v -0.163026 -0.299153 0.251805 0.749020 0.749020 0.749020
vn -0.121182 0.075085 0.330571
v -0.093854 -0.021532 0.579506 0.749020 0.749020 0.749020
vn -0.103632 0.140686 0.314751
v -0.069437 -0.012484 0.579814 0.749020 0.749020 0.749020
vn -0.136057 -0.008927 0.333180
v -0.069539 -0.029515 0.583418 0.749020 0.749020 0.749020
vn -0.124491 0.174858 0.289010
v -0.030496 -0.033024 0.626550 0.749020 0.749020 0.749020
vn -0.110847 -0.311654 -0.142073
v -0.030559 -0.058137 0.601194 0.749020 0.749020 0.749020
# 188 vertices, 0 vertices normals


usemtl material_0
f 6//6 14//14 10//10
f 6//6 10//10 16//16
f 6//6 18//18 13//13
f 6//6 13//13 14//14
f 1//1 12//12 11//11
f 1//1 11//11 24//24
f 7//7 24//24 11//11
f 7//7 11//11 23//23
f 2//2 27//27 19//19
f 2//2 19//19 20//20
f 1//1 24//24 15//15
f 1//1 15//15 16//16
f 6//6 16//16 15//15
f 6//6 15//15 32//32
f 5//5 32//32 15//15
f 5//5 15//15 30//30
f 7//7 30//30 15//15
f 7//7 15//15 24//24
f 2//2 18//18 17//17
f 2//2 17//17 27//27
f 8//8 27//27 17//17
f 8//8 17//17 29//29
f 5//5 29//29 17//17
f 5//5 17//17 32//32
f 6//6 32//32 17//17
f 6//6 17//17 18//18
f 3//3 22//22 21//21
f 3//3 21//21 31//31
f 9//9 31//31 21//21
f 9//9 21//21 33//33
f 4//4 28//28 25//25
f 4//4 25//25 26//26
f 9//9 33//33 25//25
f 9//9 25//25 28//28
f 5//5 30//30 31//31
f 5//5 31//31 9//9
f 29//29 28//28 4//4
f 29//29 4//4 8//8
f 23//23 22//22 3//3
f 23//23 3//3 7//7
f 28//28 29//29 5//5
f 28//28 5//5 9//9
f 30//30 7//7 3//3
f 30//30 3//3 31//31
f 23//23 35//35 34//34
f 23//23 34//34 22//22
f 35//35 37//37 36//36
f 35//35 36//36 34//34
f 35//35 40//40 41//41
f 35//35 41//41 37//37
f 37//37 41//41 42//42
f 37//37 42//42 38//38
f 43//43 48//48 45//45
f 43//43 45//45 46//46
f 44//44 50//50 47//47
f 44//44 47//47 49//49
f 18//18 2//2 44//44
f 18//18 44//44 49//49
f 20//20 13//13 47//47
f 20//20 47//47 50//50
f 18//18 49//49 47//47
f 18//18 47//47 13//13
f 20//20 50//50 44//44
f 20//20 44//44 2//2
f 16//16 48//48 43//43
f 16//16 43//43 1//1
f 12//12 1//1 43//43
f 12//12 43//43 46//46
f 10//10 45//45 48//48
f 10//10 48//48 16//16
f 12//12 46//46 45//45
f 12//12 45//45 10//10
f 38//38 51//51 53//53
f 38//38 53//53 36//36
f 38//38 36//36 37//37
f 52//52 53//53 57//57
f 52//52 57//57 56//56
f 53//53 51//51 54//54
f 53//53 54//54 57//57
f 54//54 55//55 56//56
f 54//54 56//56 57//57
f 69//69 76//76 21//21
f 69//69 21//21 22//22
f 77//77 80//80 25//25
f 77//77 25//25 33//33
f 80//80 81//81 26//26
f 80//80 26//26 25//25
f 67//67 68//68 12//12
f 67//67 12//12 10//10
f 78//78 74//74 13//13
f 78//78 13//13 20//20
f 76//76 77//77 33//33
f 76//76 33//33 21//21
f 70//70 69//69 22//22
f 70//70 22//22 34//34
f 71//71 70//70 34//34
f 71//71 34//34 36//36
f 59//59 65//65 39//39
f 59//59 39//39 38//38
f 60//60 59//59 38//38
f 60//60 38//38 42//42
f 79//79 78//78 20//20
f 79//79 20//20 19//19
f 68//68 58//58 11//11
f 68//68 11//11 12//12
f 58//58 61//61 23//23
f 58//58 23//23 11//11
f 61//61 62//62 35//35
f 61//61 35//35 23//23
f 62//62 63//63 40//40
f 62//62 40//40 35//35
f 63//63 64//64 41//41
f 63//63 41//41 40//40
f 64//64 60//60 42//42
f 64//64 42//42 41//41
f 71//71 36//36 53//53
f 71//71 53//53 52//52
f 71//71 52//52 72//72
f 38//38 39//39 51//51
f 85//85 83//83 84//84
f 85//85 84//84 82//82
f 92//92 89//89 88//88
f 92//92 88//88 93//93
f 93//93 86//86 87//87
f 93//93 87//87 94//94
f 89//89 90//90 91//91
f 89//89 91//91 88//88
f 90//90 87//87 86//86
f 90//90 86//86 91//91
f 92//92 93//93 94//94
f 92//92 94//94 95//95
f 92//92 95//95 55//55
f 92//92 55//55 54//54
f 92//92 54//54 51//51
f 94//94 52//52 56//56
f 94//94 56//56 55//55
f 94//94 55//55 95//95
f 87//87 73//73 72//72
f 87//87 72//72 52//52
f 87//87 52//52 94//94
f 66//66 90//90 89//89
f 66//66 89//89 39//39
f 66//66 39//39 65//65
f 73//73 87//87 90//90
f 73//73 90//90 66//66
f 39//39 89//89 92//92
f 39//39 92//92 51//51
f 88//88 83//83 85//85
f 88//88 85//85 93//93
f 91//91 84//84 83//83
f 91//91 83//83 88//88
f 86//86 82//82 84//84
f 86//86 84//84 91//91
f 93//93 85//85 82//82
f 93//93 82//82 86//86
f 14//14 13//13 97//97
f 14//14 97//97 98//98
f 13//13 74//74 100//100
f 13//13 100//100 97//97
f 67//67 10//10 96//96
f 67//67 96//96 99//99
f 10//10 14//14 98//98
f 10//10 98//98 96//96
f 100//100 75//75 98//98
f 100//100 98//98 97//97
f 75//75 99//99 96//96
f 75//75 96//96 98//98
f 101//101 102//102 103//103
f 101//101 103//103 19//19
f 101//101 19//19 27//27
f 101//101 27//27 8//8
f 101//101 8//8 4//4
f 101//101 4//4 26//26
f 101//101 26//26 102//102
f 104//104 102//102 26//26
f 104//104 26//26 81//81
f 79//79 19//19 103//103
f 79//79 103//103 105//105
f 103//103 102//102 106//106
f 103//103 106//106 107//107
f 102//102 104//104 108//108
f 102//102 108//108 106//106
f 105//105 103//103 107//107
f 105//105 107//107 109//109
f 106//106 108//108 109//109
f 106//106 109//109 107//107
f 115//115 125//125 119//119
f 115//115 119//119 123//123
f 115//115 123//123 122//122
f 115//115 122//122 127//127
f 110//110 133//133 120//120
f 110//110 120//120 121//121
f 116//116 132//132 120//120
f 116//116 120//120 133//133
f 111//111 129//129 128//128
f 111//111 128//128 136//136
f 110//110 125//125 124//124
f 110//110 124//124 133//133
f 115//115 141//141 124//124
f 115//115 124//124 125//125
f 114//114 139//139 124//124
f 114//114 124//124 141//141
f 116//116 133//133 124//124
f 116//116 124//124 139//139
f 111//111 136//136 126//126
f 111//111 126//126 127//127
f 117//117 138//138 126//126
f 117//117 126//126 136//136
f 114//114 141//141 126//126
f 114//114 126//126 138//138
f 115//115 127//127 126//126
f 115//115 126//126 141//141
f 112//112 140//140 130//130
f 112//112 130//130 131//131
f 118//118 142//142 130//130
f 118//118 130//130 140//140
f 113//113 135//135 134//134
f 113//113 134//134 137//137
f 118//118 137//137 134//134
f 118//118 134//134 142//142
f 114//114 118//118 140//140
f 114//114 140//140 139//139
f 138//138 117//117 113//113
f 138//138 113//113 137//137
f 132//132 116//116 112//112
f 132//132 112//112 131//131
f 137//137 118//118 114//114
f 137//137 114//114 138//138
f 139//139 140//140 112//112
f 139//139 112//112 116//116
f 132//132 131//131 143//143
f 132//132 143//143 144//144
f 144//144 143//143 145//145
f 144//144 145//145 146//146
f 144//144 146//146 150//150
f 144//144 150//150 149//149
f 146//146 147//147 151//151
f 146//146 151//151 150//150
f 152//152 155//155 154//154
f 152//152 154//154 157//157
f 153//153 158//158 156//156
f 153//153 156//156 159//159
f 127//127 158//158 153//153
f 127//127 153//153 111//111
f 129//129 159//159 156//156
f 129//129 156//156 122//122
f 127//127 122//122 156//156
f 127//127 156//156 158//158
f 129//129 111//111 153//153
f 129//129 153//153 159//159
f 125//125 110//110 152//152
f 125//125 152//152 157//157
f 121//121 155//155 152//152
f 121//121 152//152 110//110
f 119//119 125//125 157//157
f 119//119 157//157 154//154
f 121//121 119//119 154//154
f 121//121 154//154 155//155
f 147//147 146//146 145//145
f 147//147 145//145 162//162
f 147//147 162//162 160//160
f 161//161 165//165 166//166
f 161//161 166//166 162//162
f 162//162 166//166 163//163
f 162//162 163//163 160//160
f 163//163 166//166 165//165
f 163//163 165//165 164//164
f 69//69 131//131 130//130
f 69//69 130//130 76//76
f 77//77 142//142 134//134
f 77//77 134//134 80//80
f 80//80 134//134 135//135
f 80//80 135//135 81//81
f 67//67 119//119 121//121
f 67//67 121//121 68//68
f 78//78 129//129 122//122
f 78//78 122//122 74//74
f 76//76 130//130 142//142
f 76//76 142//142 77//77
f 70//70 143//143 131//131
f 70//70 131//131 69//69
f 71//71 145//145 143//143
f 71//71 143//143 70//70
f 59//59 147//147 148//148
f 59//59 148//148 65//65
f 60//60 151//151 147//147
f 60//60 147//147 59//59
f 79//79 128//128 129//129
f 79//79 129//129 78//78
f 68//68 121//121 120//120
f 68//68 120//120 58//58
f 58//58 120//120 132//132
f 58//58 132//132 61//61
f 61//61 132//132 144//144
f 61//61 144//144 62//62
f 62//62 144//144 149//149
f 62//62 149//149 63//63
f 63//63 149//149 150//150
f 63//63 150//150 64//64
f 64//64 150//150 151//151
f 64//64 151//151 60//60
f 71//71 72//72 161//161
f 71//71 161//161 162//162
f 71//71 162//162 145//145
f 147//147 160//160 148//148
f 170//170 167//167 169//169
f 170//170 169//169 168//168
f 177//177 178//178 173//173
f 177//177 173//173 174//174
f 178//178 179//179 172//172
f 178//178 172//172 171//171
f 174//174 173//173 176//176
f 174//174 176//176 175//175
f 175//175 176//176 171//171
f 175//175 171//171 172//172
f 177//177 180//180 179//179
f 177//177 179//179 178//178
f 177//177 160//160 163//163
f 177//177 163//163 164//164
f 177//177 164//164 180//180
f 179//179 180//180 164//164
f 179//179 164//164 165//165
f 179//179 165//165 161//161
f 172//172 179//179 161//161
f 172//172 161//161 72//72
f 172//172 72//72 73//73
f 66//66 65//65 148//148
f 66//66 148//148 174//174
f 66//66 174//174 175//175
f 73//73 66//66 175//175
f 73//73 175//175 172//172
f 148//148 160//160 177//177
f 148//148 177//177 174//174
f 173//173 178//178 170//170
f 173//173 170//170 168//168
f 176//176 173//173 168//168
f 176//176 168//168 169//169
f 171//171 176//176 169//169
f 171//171 169//169 167//167
f 178//178 171//171 167//167
f 178//178 167//167 170//170
f 123//123 183//183 182//182
f 123//123 182//182 122//122
f 122//122 182//182 100//100
f 122//122 100//100 74//74
f 67//67 99//99 181//181
f 67//67 181//181 119//119
f 119//119 181//181 183//183
f 119//119 183//183 123//123
f 100//100 182//182 183//183
f 100//100 183//183 75//75
f 75//75 183//183 181//181
f 75//75 181//181 99//99
f 184//184 186//186 185//185
f 184//184 117//117 136//136
f 184//184 136//136 128//128
f 184//184 128//128 186//186
f 184//184 185//185 135//135
f 184//184 135//135 113//113
f 184//184 113//113 117//117
f 104//104 81//81 135//135
f 104//104 135//135 185//185
f 79//79 105//105 186//186
f 79//79 186//186 128//128
f 186//186 188//188 187//187
f 186//186 187//187 185//185
f 185//185 187//187 108//108
f 185//185 108//108 104//104
f 105//105 109//109 188//188
f 105//105 188//188 186//186
f 187//187 188//188 109//109
f 187//187 109//109 108//108
# 372 faces, 0 coords texture

# End of File
