####
#
# OBJ File Generated by Meshlab
#
####
# Object torus_basic.obj
#
# Vertices: 32
# Faces: 64
#
####
vn 1.000000 0.000000 0.000000
v 4.000000 0.000000 0.000000 0.000000 0.000000 1.000000
vn 0.109406 -0.135953 0.984656
v 3.000000 0.000000 1.000000 0.000000 1.000000 0.223529
vn -1.000000 -0.000000 -0.000000
v 2.000000 0.000000 -0.000000 1.000000 0.000000 0.000000
vn 0.109406 0.135953 -0.984656
v 3.000000 0.000000 -1.000000 0.000000 1.000000 0.223529
vn 0.707107 0.707107 0.000000
v 2.828427 2.828427 0.000000 0.000000 0.000000 1.000000
vn 0.173495 -0.018771 0.984656
v 2.121320 2.121320 1.000000 0.000000 1.000000 0.223529
vn -0.707107 -0.707107 -0.000000
v 1.414214 1.414214 -0.000000 1.000000 0.000000 0.000000
vn -0.018771 0.173495 -0.984656
v 2.121320 2.121320 -1.000000 0.000000 1.000000 0.223529
vn 0.000000 1.000000 -0.000000
v -0.000000 4.000000 0.000000 0.000000 0.000000 1.000000
vn 0.135953 0.109406 0.984656
v -0.000000 3.000000 1.000000 0.000000 1.000000 0.223529
vn -0.000000 -1.000000 -0.000000
v -0.000000 2.000000 -0.000000 1.000000 0.000000 0.000000
vn -0.135953 0.109406 -0.984656
v -0.000000 3.000000 -1.000000 0.000000 1.000000 0.223529
vn -0.707107 0.707107 0.000000
v -2.828427 2.828427 0.000000 0.000000 0.000000 1.000000
vn 0.018771 0.173495 0.984656
v -2.121320 2.121320 1.000000 0.000000 1.000000 0.223529
vn 0.707107 -0.707107 -0.000000
v -1.414214 1.414214 -0.000000 1.000000 0.000000 0.000000
vn -0.173495 -0.018771 -0.984656
v -2.121320 2.121320 -1.000000 0.000000 1.000000 0.223529
vn -1.000000 -0.000000 -0.000000
v -4.000000 -0.000000 0.000000 0.000000 0.000000 1.000000
vn -0.109406 0.135953 0.984656
v -3.000000 -0.000000 1.000000 0.000000 1.000000 0.223529
vn 1.000000 0.000000 -0.000000
v -2.000000 -0.000000 -0.000000 1.000000 0.000000 0.000000
vn -0.109406 -0.135953 -0.984656
v -3.000000 -0.000000 -1.000000 0.000000 1.000000 0.223529
vn -0.707107 -0.707107 -0.000000
v -2.828427 -2.828428 0.000000 0.000000 0.000000 1.000000
vn -0.173495 0.018771 0.984656
v -2.121320 -2.121321 1.000000 0.000000 1.000000 0.223529
vn 0.707107 0.707107 0.000000
v -1.414213 -1.414214 -0.000000 1.000000 0.000000 0.000000
vn 0.018771 -0.173495 -0.984656
v -2.121320 -2.121321 -1.000000 0.000000 1.000000 0.223529
vn 0.000000 -1.000000 0.000000
v 0.000000 -4.000000 0.000000 0.000000 0.000000 1.000000
vn -0.135953 -0.109406 0.984656
v 0.000000 -3.000000 1.000000 0.000000 1.000000 0.223529
vn -0.000000 1.000000 -0.000000
v 0.000000 -2.000000 -0.000000 1.000000 0.000000 0.000000
vn 0.135953 -0.109406 -0.984656
v 0.000000 -3.000000 -1.000000 0.000000 1.000000 0.223529
vn 0.707107 -0.707107 -0.000000
v 2.828428 -2.828426 0.000000 0.000000 0.000000 1.000000
vn -0.018771 -0.173495 0.984656
v 2.121321 -2.121320 1.000000 0.000000 1.000000 0.223529
vn -0.707107 0.707107 0.000000
v 1.414214 -1.414213 -0.000000 1.000000 0.000000 0.000000
vn 0.173495 0.018771 -0.984656
v 2.121321 -2.121320 -1.000000 0.000000 1.000000 0.223529
# 32 vertices, 0 vertices normals

f 6//6 2//2 1//1
f 1//1 5//5 6//6
f 7//7 3//3 2//2
f 2//2 6//6 7//7
f 8//8 4//4 3//3
f 3//3 7//7 8//8
f 5//5 1//1 4//4
f 4//4 8//8 5//5
f 10//10 6//6 5//5
f 5//5 9//9 10//10
f 11//11 7//7 6//6
f 6//6 10//10 11//11
f 12//12 8//8 7//7
f 7//7 11//11 12//12
f 9//9 5//5 8//8
f 8//8 12//12 9//9
f 14//14 10//10 9//9
f 9//9 13//13 14//14
f 15//15 11//11 10//10
f 10//10 14//14 15//15
f 16//16 12//12 11//11
f 11//11 15//15 16//16
f 13//13 9//9 12//12
f 12//12 16//16 13//13
f 18//18 14//14 13//13
f 13//13 17//17 18//18
f 19//19 15//15 14//14
f 14//14 18//18 19//19
f 20//20 16//16 15//15
f 15//15 19//19 20//20
f 17//17 13//13 16//16
f 16//16 20//20 17//17
f 22//22 18//18 17//17
f 17//17 21//21 22//22
f 23//23 19//19 18//18
f 18//18 22//22 23//23
f 24//24 20//20 19//19
f 19//19 23//23 24//24
f 21//21 17//17 20//20
f 20//20 24//24 21//21
f 26//26 22//22 21//21
f 21//21 25//25 26//26
f 27//27 23//23 22//22
f 22//22 26//26 27//27
f 28//28 24//24 23//23
f 23//23 27//27 28//28
f 25//25 21//21 24//24
f 24//24 28//28 25//25
f 30//30 26//26 25//25
f 25//25 29//29 30//30
f 31//31 27//27 26//26
f 26//26 30//30 31//31
f 32//32 28//28 27//27
f 27//27 31//31 32//32
f 29//29 25//25 28//28
f 28//28 32//32 29//29
f 2//2 30//30 29//29
f 29//29 1//1 2//2
f 3//3 31//31 30//30
f 30//30 2//2 3//3
f 4//4 32//32 31//31
f 31//31 3//3 4//4
f 1//1 29//29 32//32
f 32//32 4//4 1//1
# 64 faces, 0 coords texture

# End of File
