####
#
# OBJ File Generated by Meshlab
#
####
# Object star.obj
#
# Vertices: 846
# Faces: 1122
#
####
vn 0.0000000 0.0000000 0.0000000
v -5.0000000 -5.0000000 -5.0000000
vn 0.0000000 0.0000000 0.0000000
v -5.0000000 -5.0000000 -5.0000000
vn 0.0000000 0.0000000 0.0000000
v -5.0000000 -5.0000000 -5.0000000
vn 0.0000000 0.0000000 0.0000000
v -4.9499998 -4.9499998 -4.9499998
vn 0.0000000 0.0000000 0.0000000
v -4.9499998 -4.9499998 -4.9499998
vn 0.0000000 0.0000000 0.0000000
v -4.9499998 -4.9499998 -4.9499998
vn 0.0000000 0.0000000 0.0000000
v -4.9499998 -4.9499998 -4.9499998
vn 0.0000000 0.0000000 0.0000000
v -4.9499998 -4.9499998 -4.9499998
vn 0.0000000 0.0000000 0.0000000
v -4.9499998 -4.9499998 -4.9499998
vn 0.0000000 0.0000000 0.0000000
v -4.9000001 -4.9000001 -4.9000001
vn 0.0000000 0.0000000 0.0000000
v -4.9000001 -4.9000001 -4.9000001
vn 0.0000000 0.0000000 0.0000000
v -4.9000001 -4.9000001 -4.9000001
vn 0.0000000 0.0000000 0.0000000
v -4.9000001 -4.9000001 -4.9000001
vn 0.0000000 0.0000000 0.0000000
v -4.9000001 -4.9000001 -4.9000001
vn 0.0000000 0.0000000 0.0000000
v -4.9000001 -4.9000001 -4.9000001
vn 0.0000000 0.0000000 0.0000000
v -4.8499999 -4.8499999 -4.8499999
vn 0.0000000 0.0000000 0.0000000
v -4.8499999 -4.8499999 -4.8499999
vn 0.0000000 0.0000000 0.0000000
v -4.8499999 -4.8499999 -4.8499999
vn 0.0000000 0.0000000 0.0000000
v -4.8499999 -4.8499999 -4.8499999
vn 0.0000000 0.0000000 0.0000000
v -4.8499999 -4.8499999 -4.8499999
vn 0.0000000 0.0000000 0.0000000
v -4.8499999 -4.8499999 -4.8499999
vn 0.0000000 0.0000000 0.0000000
v -4.8000002 -4.8000002 -4.8000002
vn 0.0000000 0.0000000 0.0000000
v -4.8000002 -4.8000002 -4.8000002
vn 0.0000000 0.0000000 0.0000000
v -4.8000002 -4.8000002 -4.8000002
vn 0.0000000 0.0000000 0.0000000
v -4.8000002 -4.8000002 -4.8000002
vn 0.0000000 0.0000000 0.0000000
v -4.8000002 -4.8000002 -4.8000002
vn 0.0000000 0.0000000 0.0000000
v -4.8000002 -4.8000002 -4.8000002
vn 0.0000000 0.0000000 0.0000000
v -4.7500000 -4.7500000 -4.7500000
vn 0.0000000 0.0000000 0.0000000
v -4.7500000 -4.7500000 -4.7500000
vn 0.0000000 0.0000000 0.0000000
v -4.7500000 -4.7500000 -4.7500000
vn 0.0000000 0.0000000 0.0000000
v -4.7500000 -4.7500000 -4.7500000
vn 0.0000000 0.0000000 0.0000000
v -4.7500000 -4.7500000 -4.7500000
vn 0.0000000 0.0000000 0.0000000
v -4.7500000 -4.7500000 -4.7500000
vn 0.0000000 0.0000000 0.0000000
v -4.6999998 -4.6999998 -4.6999998
vn 0.0000000 0.0000000 0.0000000
v -4.6999998 -4.6999998 -4.6999998
vn 0.0000000 0.0000000 0.0000000
v -4.6999998 -4.6999998 -4.6999998
vn 0.0000000 0.0000000 0.0000000
v -4.6999998 -4.6999998 -4.6999998
vn 0.0000000 0.0000000 0.0000000
v -4.6999998 -4.6999998 -4.6999998
vn 0.0000000 0.0000000 0.0000000
v -4.6999998 -4.6999998 -4.6999998
vn 0.0000000 0.0000000 0.0000000
v -4.6500001 -4.6500001 -4.6500001
vn 0.0000000 0.0000000 0.0000000
v -4.6500001 -4.6500001 -4.6500001
vn 0.0000000 0.0000000 0.0000000
v -4.6500001 -4.6500001 -4.6500001
vn 0.0000000 0.0000000 0.0000000
v -4.6500001 -4.6500001 -4.6500001
vn 0.0000000 0.0000000 0.0000000
v -4.6500001 -4.6500001 -4.6500001
vn 0.0000000 0.0000000 0.0000000
v -4.6500001 -4.6500001 -4.6500001
vn 0.0000000 0.0000000 0.0000000
v -4.5999999 -4.5999999 -4.5999999
vn 0.0000000 0.0000000 0.0000000
v -4.5999999 -4.5999999 -4.5999999
vn 0.0000000 0.0000000 0.0000000
v -4.5999999 -4.5999999 -4.5999999
vn 0.0000000 0.0000000 0.0000000
v -4.5999999 -4.5999999 -4.5999999
vn 0.0000000 0.0000000 0.0000000
v -4.5999999 -4.5999999 -4.5999999
vn 0.0000000 0.0000000 0.0000000
v -4.5999999 -4.5999999 -4.5999999
vn 0.0000000 0.0000000 0.0000000
v -4.5000000 -4.5000000 -4.5000000
vn 0.0000000 0.0000000 0.0000000
v -4.5000000 -4.5000000 -4.5000000
vn 0.0000000 0.0000000 0.0000000
v -4.5000000 -4.5000000 -4.5000000
vn 0.0000000 0.0000000 0.0000000
v -4.5000000 -4.5000000 -4.5000000
vn 0.0000000 0.0000000 0.0000000
v -4.5000000 -4.5000000 -4.5000000
vn 0.0000000 0.0000000 0.0000000
v -4.5000000 -4.5000000 -4.5000000
vn 0.0000000 0.0000000 0.0000000
v -4.4499998 -4.4499998 -4.4499998
vn 0.0000000 0.0000000 0.0000000
v -4.4499998 -4.4499998 -4.4499998
vn 0.0000000 0.0000000 0.0000000
v -4.4499998 -4.4499998 -4.4499998
vn 0.0000000 0.0000000 0.0000000
v -4.4499998 -4.4499998 -4.4499998
vn 0.0000000 0.0000000 0.0000000
v -4.4499998 -4.4499998 -4.4499998
vn 0.0000000 0.0000000 0.0000000
v -4.4499998 -4.4499998 -4.4499998
vn 0.0000000 0.0000000 0.0000000
v -4.3499999 -4.3499999 -4.3499999
vn 0.0000000 0.0000000 0.0000000
v -4.3499999 -4.3499999 -4.3499999
vn 0.0000000 0.0000000 0.0000000
v -4.3499999 -4.3499999 -4.3499999
vn 0.0000000 0.0000000 0.0000000
v -4.3499999 -4.3499999 -4.3499999
vn 0.0000000 0.0000000 0.0000000
v -4.3499999 -4.3499999 -4.3499999
vn 0.0000000 0.0000000 0.0000000
v -4.3499999 -4.3499999 -4.3499999
vn 0.0000000 0.0000000 0.0000000
v -4.2500000 -4.2500000 -4.2500000
vn 0.0000000 0.0000000 0.0000000
v -4.2500000 -4.2500000 -4.2500000
vn 0.0000000 0.0000000 0.0000000
v -4.2500000 -4.2500000 -4.2500000
vn 0.0000000 0.0000000 0.0000000
v -4.2500000 -4.2500000 -4.2500000
vn 0.0000000 0.0000000 0.0000000
v -4.2500000 -4.2500000 -4.2500000
vn 0.0000000 0.0000000 0.0000000
v -4.2500000 -4.2500000 -4.2500000
vn 0.0000000 0.0000000 0.0000000
v -4.1999998 -4.1999998 -4.1999998
vn 0.0000000 0.0000000 0.0000000
v -4.1999998 -4.1999998 -4.1999998
vn 0.0000000 0.0000000 0.0000000
v -4.1999998 -4.1999998 -4.1999998
vn 0.0000000 0.0000000 0.0000000
v -4.1999998 -4.1999998 -4.1999998
vn 0.0000000 0.0000000 0.0000000
v -4.1999998 -4.1999998 -4.1999998
vn 0.0000000 0.0000000 0.0000000
v -4.1999998 -4.1999998 -4.1999998
vn 0.0000000 0.0000000 0.0000000
v -4.1500001 -4.1500001 -4.1500001
vn 0.0000000 0.0000000 0.0000000
v -4.1500001 -4.1500001 -4.1500001
vn 0.0000000 0.0000000 0.0000000
v -4.1500001 -4.1500001 -4.1500001
vn 0.0000000 0.0000000 0.0000000
v -4.1500001 -4.1500001 -4.1500001
vn 0.0000000 0.0000000 0.0000000
v -4.1500001 -4.1500001 -4.1500001
vn 0.0000000 0.0000000 0.0000000
v -4.1500001 -4.1500001 -4.1500001
vn 0.0000000 0.0000000 0.0000000
v -4.0500002 -4.0500002 -4.0500002
vn 0.0000000 0.0000000 0.0000000
v -4.0500002 -4.0500002 -4.0500002
vn 0.0000000 0.0000000 0.0000000
v -4.0500002 -4.0500002 -4.0500002
vn 0.0000000 0.0000000 0.0000000
v -4.0500002 -4.0500002 -4.0500002
vn 0.0000000 0.0000000 0.0000000
v -4.0500002 -4.0500002 -4.0500002
vn 0.0000000 0.0000000 0.0000000
v -4.0500002 -4.0500002 -4.0500002
vn 0.0000000 0.0000000 0.0000000
v -4.0000000 -4.0000000 -4.0000000
vn 0.0000000 0.0000000 0.0000000
v -4.0000000 -4.0000000 -4.0000000
vn 0.0000000 0.0000000 0.0000000
v -4.0000000 -4.0000000 -4.0000000
vn 0.0000000 0.0000000 0.0000000
v -4.0000000 -4.0000000 -4.0000000
vn 0.0000000 0.0000000 0.0000000
v -4.0000000 -4.0000000 -4.0000000
vn 0.0000000 0.0000000 0.0000000
v -4.0000000 -4.0000000 -4.0000000
vn 0.0000000 0.0000000 0.0000000
v -3.8499999 -3.8499999 -3.8499999
vn 0.0000000 0.0000000 0.0000000
v -3.8499999 -3.8499999 -3.8499999
vn 0.0000000 0.0000000 0.0000000
v -3.8499999 -3.8499999 -3.8499999
vn 0.0000000 0.0000000 0.0000000
v -3.8499999 -3.8499999 -3.8499999
vn 0.0000000 0.0000000 0.0000000
v -3.8499999 -3.8499999 -3.8499999
vn 0.0000000 0.0000000 0.0000000
v -3.8499999 -3.8499999 -3.8499999
vn 0.0000000 0.0000000 0.0000000
v -3.8000000 -3.8000000 -3.8000000
vn 0.0000000 0.0000000 0.0000000
v -3.8000000 -3.8000000 -3.8000000
vn 0.0000000 0.0000000 0.0000000
v -3.8000000 -3.8000000 -3.8000000
vn 0.0000000 0.0000000 0.0000000
v -3.8000000 -3.8000000 -3.8000000
vn 0.0000000 0.0000000 0.0000000
v -3.8000000 -3.8000000 -3.8000000
vn 0.0000000 0.0000000 0.0000000
v -3.8000000 -3.8000000 -3.8000000
vn 0.0000000 0.0000000 0.0000000
v -3.6999998 -3.6999998 -3.6999998
vn 0.0000000 0.0000000 0.0000000
v -3.6999998 -3.6999998 -3.6999998
vn 0.0000000 0.0000000 0.0000000
v -3.6999998 -3.6999998 -3.6999998
vn 0.0000000 0.0000000 0.0000000
v -3.6999998 -3.6999998 -3.6999998
vn 0.0000000 0.0000000 0.0000000
v -3.6999998 -3.6999998 -3.6999998
vn 0.0000000 0.0000000 0.0000000
v -3.6999998 -3.6999998 -3.6999998
vn 0.0000000 0.0000000 0.0000000
v -3.6500001 -3.6500001 -3.6500001
vn 0.0000000 0.0000000 0.0000000
v -3.6500001 -3.6500001 -3.6500001
vn 0.0000000 0.0000000 0.0000000
v -3.6500001 -3.6500001 -3.6500001
vn 0.0000000 0.0000000 0.0000000
v -3.6500001 -3.6500001 -3.6500001
vn 0.0000000 0.0000000 0.0000000
v -3.6500001 -3.6500001 -3.6500001
vn 0.0000000 0.0000000 0.0000000
v -3.6500001 -3.6500001 -3.6500001
vn 0.0000000 0.0000000 0.0000000
v -3.5500000 -3.5500000 -3.5500000
vn 0.0000000 0.0000000 0.0000000
v -3.5500000 -3.5500000 -3.5500000
vn 0.0000000 0.0000000 0.0000000
v -3.5500000 -3.5500000 -3.5500000
vn 0.0000000 0.0000000 0.0000000
v -3.5500000 -3.5500000 -3.5500000
vn 0.0000000 0.0000000 0.0000000
v -3.5500000 -3.5500000 -3.5500000
vn 0.0000000 0.0000000 0.0000000
v -3.5500000 -3.5500000 -3.5500000
vn 0.0000000 0.0000000 0.0000000
v -3.4499998 -3.4499998 -3.4499998
vn 0.0000000 0.0000000 0.0000000
v -3.4499998 -3.4499998 -3.4499998
vn 0.0000000 0.0000000 0.0000000
v -3.4499998 -3.4499998 -3.4499998
vn 0.0000000 0.0000000 0.0000000
v -3.4499998 -3.4499998 -3.4499998
vn 0.0000000 0.0000000 0.0000000
v -3.4499998 -3.4499998 -3.4499998
vn 0.0000000 0.0000000 0.0000000
v -3.4499998 -3.4499998 -3.4499998
vn 0.0000000 0.0000000 0.0000000
v -3.4000001 -3.4000001 -3.4000001
vn 0.0000000 0.0000000 0.0000000
v -3.4000001 -3.4000001 -3.4000001
vn 0.0000000 0.0000000 0.0000000
v -3.4000001 -3.4000001 -3.4000001
vn 0.0000000 0.0000000 0.0000000
v -3.4000001 -3.4000001 -3.4000001
vn 0.0000000 0.0000000 0.0000000
v -3.4000001 -3.4000001 -3.4000001
vn 0.0000000 0.0000000 0.0000000
v -3.4000001 -3.4000001 -3.4000001
vn 0.0000000 0.0000000 0.0000000
v -3.2500000 -3.2500000 -3.2500000
vn 0.0000000 0.0000000 0.0000000
v -3.2500000 -3.2500000 -3.2500000
vn 0.0000000 0.0000000 0.0000000
v -3.2500000 -3.2500000 -3.2500000
vn 0.0000000 0.0000000 0.0000000
v -3.2500000 -3.2500000 -3.2500000
vn 0.0000000 0.0000000 0.0000000
v -3.2500000 -3.2500000 -3.2500000
vn 0.0000000 0.0000000 0.0000000
v -3.2500000 -3.2500000 -3.2500000
vn 0.0000000 0.0000000 0.0000000
v -3.1999998 -3.1999998 -3.1999998
vn 0.0000000 0.0000000 0.0000000
v -3.1999998 -3.1999998 -3.1999998
vn 0.0000000 0.0000000 0.0000000
v -3.1999998 -3.1999998 -3.1999998
vn 0.0000000 0.0000000 0.0000000
v -3.1999998 -3.1999998 -3.1999998
vn 0.0000000 0.0000000 0.0000000
v -3.1999998 -3.1999998 -3.1999998
vn 0.0000000 0.0000000 0.0000000
v -3.1999998 -3.1999998 -3.1999998
vn 0.0000000 0.0000000 0.0000000
v -3.1500001 -3.1500001 -3.1500001
vn 0.0000000 0.0000000 0.0000000
v -3.1500001 -3.1500001 -3.1500001
vn 0.0000000 0.0000000 0.0000000
v -3.1500001 -3.1500001 -3.1500001
vn 0.0000000 0.0000000 0.0000000
v -3.1500001 -3.1500001 -3.1500001
vn 0.0000000 0.0000000 0.0000000
v -3.1500001 -3.1500001 -3.1500001
vn 0.0000000 0.0000000 0.0000000
v -3.1500001 -3.1500001 -3.1500001
vn 0.0000000 0.0000000 0.0000000
v -3.0999999 -3.0999999 -3.0999999
vn 0.0000000 0.0000000 0.0000000
v -3.0999999 -3.0999999 -3.0999999
vn 0.0000000 0.0000000 0.0000000
v -3.0999999 -3.0999999 -3.0999999
vn 0.0000000 0.0000000 0.0000000
v -3.0999999 -3.0999999 -3.0999999
vn 0.0000000 0.0000000 0.0000000
v -3.0999999 -3.0999999 -3.0999999
vn 0.0000000 0.0000000 0.0000000
v -3.0999999 -3.0999999 -3.0999999
vn 0.0000000 0.0000000 0.0000000
v -3.0500000 -3.0500000 -3.0500000
vn 0.0000000 0.0000000 0.0000000
v -3.0500000 -3.0500000 -3.0500000
vn 0.0000000 0.0000000 0.0000000
v -3.0500000 -3.0500000 -3.0500000
vn 0.0000000 0.0000000 0.0000000
v -3.0500000 -3.0500000 -3.0500000
vn 0.0000000 0.0000000 0.0000000
v -3.0500000 -3.0500000 -3.0500000
vn 0.0000000 0.0000000 0.0000000
v -3.0500000 -3.0500000 -3.0500000
vn 0.0000000 0.0000000 0.0000000
v -3.0000000 -3.0000000 -3.0000000
vn 0.0000000 0.0000000 0.0000000
v -3.0000000 -3.0000000 -3.0000000
vn 0.0000000 0.0000000 0.0000000
v -3.0000000 -3.0000000 -3.0000000
vn 0.0000000 0.0000000 0.0000000
v -3.0000000 -3.0000000 -3.0000000
vn 0.0000000 0.0000000 0.0000000
v -3.0000000 -3.0000000 -3.0000000
vn 0.0000000 0.0000000 0.0000000
v -3.0000000 -3.0000000 -3.0000000
vn 0.0000000 0.0000000 0.0000000
v -2.8999999 -2.8999999 -2.8999999
vn 0.0000000 0.0000000 0.0000000
v -2.8999999 -2.8999999 -2.8999999
vn 0.0000000 0.0000000 0.0000000
v -2.8999999 -2.8999999 -2.8999999
vn 0.0000000 0.0000000 0.0000000
v -2.8999999 -2.8999999 -2.8999999
vn 0.0000000 0.0000000 0.0000000
v -2.8999999 -2.8999999 -2.8999999
vn 0.0000000 0.0000000 0.0000000
v -2.8999999 -2.8999999 -2.8999999
vn 0.0000000 0.0000000 0.0000000
v -2.8499999 -2.8499999 -2.8499999
vn 0.0000000 0.0000000 0.0000000
v -2.8499999 -2.8499999 -2.8499999
vn 0.0000000 0.0000000 0.0000000
v -2.8499999 -2.8499999 -2.8499999
vn 0.0000000 0.0000000 0.0000000
v -2.8499999 -2.8499999 -2.8499999
vn 0.0000000 0.0000000 0.0000000
v -2.8499999 -2.8499999 -2.8499999
vn 0.0000000 0.0000000 0.0000000
v -2.8499999 -2.8499999 -2.8499999
vn 0.0000000 0.0000000 0.0000000
v -2.7500000 -2.7500000 -2.7500000
vn 0.0000000 0.0000000 0.0000000
v -2.7500000 -2.7500000 -2.7500000
vn 0.0000000 0.0000000 0.0000000
v -2.7500000 -2.7500000 -2.7500000
vn 0.0000000 0.0000000 0.0000000
v -2.7500000 -2.7500000 -2.7500000
vn 0.0000000 0.0000000 0.0000000
v -2.7500000 -2.7500000 -2.7500000
vn 0.0000000 0.0000000 0.0000000
v -2.7500000 -2.7500000 -2.7500000
vn 0.0000000 0.0000000 0.0000000
v -2.6499999 -2.6499999 -2.6499999
vn 0.0000000 0.0000000 0.0000000
v -2.6499999 -2.6499999 -2.6499999
vn 0.0000000 0.0000000 0.0000000
v -2.6499999 -2.6499999 -2.6499999
vn 0.0000000 0.0000000 0.0000000
v -2.6499999 -2.6499999 -2.6499999
vn 0.0000000 0.0000000 0.0000000
v -2.6499999 -2.6499999 -2.6499999
vn 0.0000000 0.0000000 0.0000000
v -2.6499999 -2.6499999 -2.6499999
vn 0.0000000 0.0000000 0.0000000
v -2.5500000 -2.5500000 -2.5500000
vn 0.0000000 0.0000000 0.0000000
v -2.5500000 -2.5500000 -2.5500000
vn 0.0000000 0.0000000 0.0000000
v -2.5500000 -2.5500000 -2.5500000
vn 0.0000000 0.0000000 0.0000000
v -2.5500000 -2.5500000 -2.5500000
vn 0.0000000 0.0000000 0.0000000
v -2.5500000 -2.5500000 -2.5500000
vn 0.0000000 0.0000000 0.0000000
v -2.5500000 -2.5500000 -2.5500000
vn 0.0000000 0.0000000 0.0000000
v -2.5000000 -2.5000000 -2.5000000
vn 0.0000000 0.0000000 0.0000000
v -2.5000000 -2.5000000 -2.5000000
vn 0.0000000 0.0000000 0.0000000
v -2.5000000 -2.5000000 -2.5000000
vn 0.0000000 0.0000000 0.0000000
v -2.5000000 -2.5000000 -2.5000000
vn 0.0000000 0.0000000 0.0000000
v -2.5000000 -2.5000000 -2.5000000
vn 0.0000000 0.0000000 0.0000000
v -2.5000000 -2.5000000 -2.5000000
vn 0.0000000 0.0000000 0.0000000
v -2.4500000 -2.4500000 -2.4500000
vn 0.0000000 0.0000000 0.0000000
v -2.4500000 -2.4500000 -2.4500000
vn 0.0000000 0.0000000 0.0000000
v -2.4500000 -2.4500000 -2.4500000
vn 0.0000000 0.0000000 0.0000000
v -2.4500000 -2.4500000 -2.4500000
vn 0.0000000 0.0000000 0.0000000
v -2.4500000 -2.4500000 -2.4500000
vn 0.0000000 0.0000000 0.0000000
v -2.4500000 -2.4500000 -2.4500000
vn 0.0000000 0.0000000 0.0000000
v -2.3499999 -2.3499999 -2.3499999
vn 0.0000000 0.0000000 0.0000000
v -2.3499999 -2.3499999 -2.3499999
vn 0.0000000 0.0000000 0.0000000
v -2.3499999 -2.3499999 -2.3499999
vn 0.0000000 0.0000000 0.0000000
v -2.3499999 -2.3499999 -2.3499999
vn 0.0000000 0.0000000 0.0000000
v -2.3499999 -2.3499999 -2.3499999
vn 0.0000000 0.0000000 0.0000000
v -2.3499999 -2.3499999 -2.3499999
vn 0.0000000 0.0000000 0.0000000
v -2.3000000 -2.3000000 -2.3000000
vn 0.0000000 0.0000000 0.0000000
v -2.3000000 -2.3000000 -2.3000000
vn 0.0000000 0.0000000 0.0000000
v -2.3000000 -2.3000000 -2.3000000
vn 0.0000000 0.0000000 0.0000000
v -2.3000000 -2.3000000 -2.3000000
vn 0.0000000 0.0000000 0.0000000
v -2.3000000 -2.3000000 -2.3000000
vn 0.0000000 0.0000000 0.0000000
v -2.3000000 -2.3000000 -2.3000000
vn 0.0000000 0.0000000 0.0000000
v -2.2500000 -2.2500000 -2.2500000
vn 0.0000000 0.0000000 0.0000000
v -2.2500000 -2.2500000 -2.2500000
vn 0.0000000 0.0000000 0.0000000
v -2.2500000 -2.2500000 -2.2500000
vn 0.0000000 0.0000000 0.0000000
v -2.2500000 -2.2500000 -2.2500000
vn 0.0000000 0.0000000 0.0000000
v -2.2500000 -2.2500000 -2.2500000
vn 0.0000000 0.0000000 0.0000000
v -2.2500000 -2.2500000 -2.2500000
vn 0.0000000 0.0000000 0.0000000
v -2.1499999 -2.1499999 -2.1499999
vn 0.0000000 0.0000000 0.0000000
v -2.1499999 -2.1499999 -2.1499999
vn 0.0000000 0.0000000 0.0000000
v -2.1499999 -2.1499999 -2.1499999
vn 0.0000000 0.0000000 0.0000000
v -2.1499999 -2.1499999 -2.1499999
vn 0.0000000 0.0000000 0.0000000
v -2.1499999 -2.1499999 -2.1499999
vn 0.0000000 0.0000000 0.0000000
v -2.1499999 -2.1499999 -2.1499999
vn 0.0000000 0.0000000 0.0000000
v -2.0999999 -2.0999999 -2.0999999
vn 0.0000000 0.0000000 0.0000000
v -2.0999999 -2.0999999 -2.0999999
vn 0.0000000 0.0000000 0.0000000
v -2.0999999 -2.0999999 -2.0999999
vn 0.0000000 0.0000000 0.0000000
v -2.0999999 -2.0999999 -2.0999999
vn 0.0000000 0.0000000 0.0000000
v -2.0999999 -2.0999999 -2.0999999
vn 0.0000000 0.0000000 0.0000000
v -2.0999999 -2.0999999 -2.0999999
vn 0.0000000 0.0000000 0.0000000
v -2.0500000 -2.0500000 -2.0500000
vn 0.0000000 0.0000000 0.0000000
v -2.0500000 -2.0500000 -2.0500000
vn 0.0000000 0.0000000 0.0000000
v -2.0500000 -2.0500000 -2.0500000
vn 0.0000000 0.0000000 0.0000000
v -2.0500000 -2.0500000 -2.0500000
vn 0.0000000 0.0000000 0.0000000
v -2.0500000 -2.0500000 -2.0500000
vn 0.0000000 0.0000000 0.0000000
v -2.0500000 -2.0500000 -2.0500000
vn 0.0000000 0.0000000 0.0000000
v -1.9500000 -1.9500000 -1.9500000
vn 0.0000000 0.0000000 0.0000000
v -1.9500000 -1.9500000 -1.9500000
vn 0.0000000 0.0000000 0.0000000
v -1.9500000 -1.9500000 -1.9500000
vn 0.0000000 0.0000000 0.0000000
v -1.9500000 -1.9500000 -1.9500000
vn 0.0000000 0.0000000 0.0000000
v -1.9500000 -1.9500000 -1.9500000
vn 0.0000000 0.0000000 0.0000000
v -1.9500000 -1.9500000 -1.9500000
vn 0.0000000 0.0000000 0.0000000
v -1.8999999 -1.8999999 -1.8999999
vn 0.0000000 0.0000000 0.0000000
v -1.8999999 -1.8999999 -1.8999999
vn 0.0000000 0.0000000 0.0000000
v -1.8999999 -1.8999999 -1.8999999
vn 0.0000000 0.0000000 0.0000000
v -1.8999999 -1.8999999 -1.8999999
vn 0.0000000 0.0000000 0.0000000
v -1.8999999 -1.8999999 -1.8999999
vn 0.0000000 0.0000000 0.0000000
v -1.8999999 -1.8999999 -1.8999999
vn 0.0000000 0.0000000 0.0000000
v -1.8499999 -1.8499999 -1.8499999
vn 0.0000000 0.0000000 0.0000000
v -1.8499999 -1.8499999 -1.8499999
vn 0.0000000 0.0000000 0.0000000
v -1.8499999 -1.8499999 -1.8499999
vn 0.0000000 0.0000000 0.0000000
v -1.8499999 -1.8499999 -1.8499999
vn 0.0000000 0.0000000 0.0000000
v -1.8499999 -1.8499999 -1.8499999
vn 0.0000000 0.0000000 0.0000000
v -1.8499999 -1.8499999 -1.8499999
vn 0.0000000 0.0000000 0.0000000
v -1.8000000 -1.8000000 -1.8000000
vn 0.0000000 0.0000000 0.0000000
v -1.8000000 -1.8000000 -1.8000000
vn 0.0000000 0.0000000 0.0000000
v -1.8000000 -1.8000000 -1.8000000
vn 0.0000000 0.0000000 0.0000000
v -1.8000000 -1.8000000 -1.8000000
vn 0.0000000 0.0000000 0.0000000
v -1.8000000 -1.8000000 -1.8000000
vn 0.0000000 0.0000000 0.0000000
v -1.8000000 -1.8000000 -1.8000000
vn 0.0000000 0.0000000 0.0000000
v -1.7500000 -1.7500000 -1.7500000
vn 0.0000000 0.0000000 0.0000000
v -1.7500000 -1.7500000 -1.7500000
vn 0.0000000 0.0000000 0.0000000
v -1.7500000 -1.7500000 -1.7500000
vn 0.0000000 0.0000000 0.0000000
v -1.7500000 -1.7500000 -1.7500000
vn 0.0000000 0.0000000 0.0000000
v -1.7500000 -1.7500000 -1.7500000
vn 0.0000000 0.0000000 0.0000000
v -1.7500000 -1.7500000 -1.7500000
vn 0.0000000 0.0000000 0.0000000
v -1.6499999 -1.6499999 -1.6499999
vn 0.0000000 0.0000000 0.0000000
v -1.6499999 -1.6499999 -1.6499999
vn 0.0000000 0.0000000 0.0000000
v -1.6499999 -1.6499999 -1.6499999
vn 0.0000000 0.0000000 0.0000000
v -1.6499999 -1.6499999 -1.6499999
vn 0.0000000 0.0000000 0.0000000
v -1.6499999 -1.6499999 -1.6499999
vn 0.0000000 0.0000000 0.0000000
v -1.6499999 -1.6499999 -1.6499999
vn 0.0000000 0.0000000 0.0000000
v -1.5999999 -1.5999999 -1.5999999
vn 0.0000000 0.0000000 0.0000000
v -1.5999999 -1.5999999 -1.5999999
vn 0.0000000 0.0000000 0.0000000
v -1.5999999 -1.5999999 -1.5999999
vn 0.0000000 0.0000000 0.0000000
v -1.5999999 -1.5999999 -1.5999999
vn 0.0000000 0.0000000 0.0000000
v -1.5999999 -1.5999999 -1.5999999
vn 0.0000000 0.0000000 0.0000000
v -1.5999999 -1.5999999 -1.5999999
vn 0.0000000 0.0000000 0.0000000
v -1.5500000 -1.5500000 -1.5500000
vn 0.0000000 0.0000000 0.0000000
v -1.5500000 -1.5500000 -1.5500000
vn 0.0000000 0.0000000 0.0000000
v -1.5500000 -1.5500000 -1.5500000
vn 0.0000000 0.0000000 0.0000000
v -1.5500000 -1.5500000 -1.5500000
vn 0.0000000 0.0000000 0.0000000
v -1.5500000 -1.5500000 -1.5500000
vn 0.0000000 0.0000000 0.0000000
v -1.5500000 -1.5500000 -1.5500000
vn 0.0000000 0.0000000 0.0000000
v -1.4500000 -1.4500000 -1.4500000
vn 0.0000000 0.0000000 0.0000000
v -1.4500000 -1.4500000 -1.4500000
vn 0.0000000 0.0000000 0.0000000
v -1.4500000 -1.4500000 -1.4500000
vn 0.0000000 0.0000000 0.0000000
v -1.4500000 -1.4500000 -1.4500000
vn 0.0000000 0.0000000 0.0000000
v -1.4500000 -1.4500000 -1.4500000
vn 0.0000000 0.0000000 0.0000000
v -1.4500000 -1.4500000 -1.4500000
vn 0.0000000 0.0000000 0.0000000
v -1.3999999 -1.3999999 -1.3999999
vn 0.0000000 0.0000000 0.0000000
v -1.3999999 -1.3999999 -1.3999999
vn 0.0000000 0.0000000 0.0000000
v -1.3999999 -1.3999999 -1.3999999
vn 0.0000000 0.0000000 0.0000000
v -1.3999999 -1.3999999 -1.3999999
vn 0.0000000 0.0000000 0.0000000
v -1.3999999 -1.3999999 -1.3999999
vn 0.0000000 0.0000000 0.0000000
v -1.3999999 -1.3999999 -1.3999999
vn 0.0000000 0.0000000 0.0000000
v -1.2500000 -1.2500000 -1.2500000
vn 0.0000000 0.0000000 0.0000000
v -1.2500000 -1.2500000 -1.2500000
vn 0.0000000 0.0000000 0.0000000
v -1.2500000 -1.2500000 -1.2500000
vn 0.0000000 0.0000000 0.0000000
v -1.2500000 -1.2500000 -1.2500000
vn 0.0000000 0.0000000 0.0000000
v -1.2500000 -1.2500000 -1.2500000
vn 0.0000000 0.0000000 0.0000000
v -1.2500000 -1.2500000 -1.2500000
vn 0.0000000 0.0000000 0.0000000
v -1.2000000 -1.2000000 -1.2000000
vn 0.0000000 0.0000000 0.0000000
v -1.2000000 -1.2000000 -1.2000000
vn 0.0000000 0.0000000 0.0000000
v -1.2000000 -1.2000000 -1.2000000
vn 0.0000000 0.0000000 0.0000000
v -1.2000000 -1.2000000 -1.2000000
vn 0.0000000 0.0000000 0.0000000
v -1.2000000 -1.2000000 -1.2000000
vn 0.0000000 0.0000000 0.0000000
v -1.2000000 -1.2000000 -1.2000000
vn 0.0000000 0.0000000 0.0000000
v -1.0999999 -1.0999999 -1.0999999
vn 0.0000000 0.0000000 0.0000000
v -1.0999999 -1.0999999 -1.0999999
vn 0.0000000 0.0000000 0.0000000
v -1.0999999 -1.0999999 -1.0999999
vn 0.0000000 0.0000000 0.0000000
v -1.0999999 -1.0999999 -1.0999999
vn 0.0000000 0.0000000 0.0000000
v -1.0999999 -1.0999999 -1.0999999
vn 0.0000000 0.0000000 0.0000000
v -1.0999999 -1.0999999 -1.0999999
vn 0.0000000 0.0000000 0.0000000
v -1.0500000 -1.0500000 -1.0500000
vn 0.0000000 0.0000000 0.0000000
v -1.0500000 -1.0500000 -1.0500000
vn 0.0000000 0.0000000 0.0000000
v -1.0500000 -1.0500000 -1.0500000
vn 0.0000000 0.0000000 0.0000000
v -1.0500000 -1.0500000 -1.0500000
vn 0.0000000 0.0000000 0.0000000
v -1.0500000 -1.0500000 -1.0500000
vn 0.0000000 0.0000000 0.0000000
v -1.0500000 -1.0500000 -1.0500000
vn 0.0000000 0.0000000 0.0000000
v -1.0000000 -1.0000000 -1.0000000
vn 0.0000000 0.0000000 0.0000000
v -1.0000000 -1.0000000 -1.0000000
vn 0.0000000 0.0000000 0.0000000
v -1.0000000 -1.0000000 -1.0000000
vn 0.0000000 0.0000000 0.0000000
v -1.0000000 -1.0000000 -1.0000000
vn 0.0000000 0.0000000 0.0000000
v -1.0000000 -1.0000000 -1.0000000
vn 0.0000000 0.0000000 0.0000000
v -1.0000000 -1.0000000 -1.0000000
vn 0.0000000 0.0000000 0.0000000
v -0.9499998 -0.9499998 -0.9499998
vn 0.0000000 0.0000000 0.0000000
v -0.9499998 -0.9499998 -0.9499998
vn 0.0000000 0.0000000 0.0000000
v -0.9499998 -0.9499998 -0.9499998
vn 0.0000000 0.0000000 0.0000000
v -0.9499998 -0.9499998 -0.9499998
vn 0.0000000 0.0000000 0.0000000
v -0.9499998 -0.9499998 -0.9499998
vn 0.0000000 0.0000000 0.0000000
v -0.9499998 -0.9499998 -0.9499998
vn 0.0000000 0.0000000 0.0000000
v -0.9000001 -0.9000001 -0.9000001
vn 0.0000000 0.0000000 0.0000000
v -0.9000001 -0.9000001 -0.9000001
vn 0.0000000 0.0000000 0.0000000
v -0.9000001 -0.9000001 -0.9000001
vn 0.0000000 0.0000000 0.0000000
v -0.9000001 -0.9000001 -0.9000001
vn 0.0000000 0.0000000 0.0000000
v -0.9000001 -0.9000001 -0.9000001
vn 0.0000000 0.0000000 0.0000000
v -0.9000001 -0.9000001 -0.9000001
vn 0.0000000 0.0000000 0.0000000
v -0.7500000 -0.7500000 -0.7500000
vn 0.0000000 0.0000000 0.0000000
v -0.7500000 -0.7500000 -0.7500000
vn 0.0000000 0.0000000 0.0000000
v -0.7500000 -0.7500000 -0.7500000
vn 0.0000000 0.0000000 0.0000000
v -0.7500000 -0.7500000 -0.7500000
vn 0.0000000 0.0000000 0.0000000
v -0.7500000 -0.7500000 -0.7500000
vn 0.0000000 0.0000000 0.0000000
v -0.7500000 -0.7500000 -0.7500000
vn 0.0000000 0.0000000 0.0000000
v -0.6999998 -0.6999998 -0.6999998
vn 0.0000000 0.0000000 0.0000000
v -0.6999998 -0.6999998 -0.6999998
vn 0.0000000 0.0000000 0.0000000
v -0.6999998 -0.6999998 -0.6999998
vn 0.0000000 0.0000000 0.0000000
v -0.6999998 -0.6999998 -0.6999998
vn 0.0000000 0.0000000 0.0000000
v -0.6999998 -0.6999998 -0.6999998
vn 0.0000000 0.0000000 0.0000000
v -0.6999998 -0.6999998 -0.6999998
vn 0.0000000 0.0000000 0.0000000
v -0.5999999 -0.5999999 -0.5999999
vn 0.0000000 0.0000000 0.0000000
v -0.5999999 -0.5999999 -0.5999999
vn 0.0000000 0.0000000 0.0000000
v -0.5999999 -0.5999999 -0.5999999
vn 0.0000000 0.0000000 0.0000000
v -0.5999999 -0.5999999 -0.5999999
vn 0.0000000 0.0000000 0.0000000
v -0.5999999 -0.5999999 -0.5999999
vn 0.0000000 0.0000000 0.0000000
v -0.5999999 -0.5999999 -0.5999999
vn 0.0000000 0.0000000 0.0000000
v -0.5499997 -0.5499997 -0.5499997
vn 0.0000000 0.0000000 0.0000000
v -0.5499997 -0.5499997 -0.5499997
vn 0.0000000 0.0000000 0.0000000
v -0.5499997 -0.5499997 -0.5499997
vn 0.0000000 0.0000000 0.0000000
v -0.5499997 -0.5499997 -0.5499997
vn 0.0000000 0.0000000 0.0000000
v -0.5499997 -0.5499997 -0.5499997
vn 0.0000000 0.0000000 0.0000000
v -0.5499997 -0.5499997 -0.5499997
vn 0.0000000 0.0000000 0.0000000
v -0.5000000 -0.5000000 -0.5000000
vn 0.0000000 0.0000000 0.0000000
v -0.5000000 -0.5000000 -0.5000000
vn 0.0000000 0.0000000 0.0000000
v -0.5000000 -0.5000000 -0.5000000
vn 0.0000000 0.0000000 0.0000000
v -0.5000000 -0.5000000 -0.5000000
vn 0.0000000 0.0000000 0.0000000
v -0.5000000 -0.5000000 -0.5000000
vn 0.0000000 0.0000000 0.0000000
v -0.5000000 -0.5000000 -0.5000000
vn 0.0000000 0.0000000 0.0000000
v -0.4499998 -0.4499998 -0.4499998
vn 0.0000000 0.0000000 0.0000000
v -0.4499998 -0.4499998 -0.4499998
vn 0.0000000 0.0000000 0.0000000
v -0.4499998 -0.4499998 -0.4499998
vn 0.0000000 0.0000000 0.0000000
v -0.4499998 -0.4499998 -0.4499998
vn 0.0000000 0.0000000 0.0000000
v -0.4499998 -0.4499998 -0.4499998
vn 0.0000000 0.0000000 0.0000000
v -0.4499998 -0.4499998 -0.4499998
vn 0.0000000 0.0000000 0.0000000
v -0.2999997 -0.2999997 -0.2999997
vn 0.0000000 0.0000000 0.0000000
v -0.2999997 -0.2999997 -0.2999997
vn 0.0000000 0.0000000 0.0000000
v -0.2999997 -0.2999997 -0.2999997
vn 0.0000000 0.0000000 0.0000000
v -0.2999997 -0.2999997 -0.2999997
vn 0.0000000 0.0000000 0.0000000
v -0.2999997 -0.2999997 -0.2999997
vn 0.0000000 0.0000000 0.0000000
v -0.2999997 -0.2999997 -0.2999997
vn 0.0000000 0.0000000 0.0000000
v -0.2500000 -0.2500000 -0.2500000
vn 0.0000000 0.0000000 0.0000000
v -0.2500000 -0.2500000 -0.2500000
vn 0.0000000 0.0000000 0.0000000
v -0.2500000 -0.2500000 -0.2500000
vn 0.0000000 0.0000000 0.0000000
v -0.2500000 -0.2500000 -0.2500000
vn 0.0000000 0.0000000 0.0000000
v -0.2500000 -0.2500000 -0.2500000
vn 0.0000000 0.0000000 0.0000000
v -0.2500000 -0.2500000 -0.2500000
vn 0.0000000 0.0000000 0.0000000
v -0.1999998 -0.1999998 -0.1999998
vn 0.0000000 0.0000000 0.0000000
v -0.1999998 -0.1999998 -0.1999998
vn 0.0000000 0.0000000 0.0000000
v -0.1999998 -0.1999998 -0.1999998
vn 0.0000000 0.0000000 0.0000000
v -0.1999998 -0.1999998 -0.1999998
vn 0.0000000 0.0000000 0.0000000
v -0.1999998 -0.1999998 -0.1999998
vn 0.0000000 0.0000000 0.0000000
v -0.1999998 -0.1999998 -0.1999998
vn 0.0000000 0.0000000 0.0000000
v -0.1500001 -0.1500001 -0.1500001
vn 0.0000000 0.0000000 0.0000000
v -0.1500001 -0.1500001 -0.1500001
vn 0.0000000 0.0000000 0.0000000
v -0.1500001 -0.1500001 -0.1500001
vn 0.0000000 0.0000000 0.0000000
v -0.1500001 -0.1500001 -0.1500001
vn 0.0000000 0.0000000 0.0000000
v -0.1500001 -0.1500001 -0.1500001
vn 0.0000000 0.0000000 0.0000000
v -0.1500001 -0.1500001 -0.1500001
vn 0.0000000 0.0000000 0.0000000
v -0.0999999 -0.0999999 -0.0999999
vn 0.0000000 0.0000000 0.0000000
v -0.0999999 -0.0999999 -0.0999999
vn 0.0000000 0.0000000 0.0000000
v -0.0999999 -0.0999999 -0.0999999
vn 0.0000000 0.0000000 0.0000000
v -0.0999999 -0.0999999 -0.0999999
vn 0.0000000 0.0000000 0.0000000
v -0.0999999 -0.0999999 -0.0999999
vn 0.0000000 0.0000000 0.0000000
v -0.0999999 -0.0999999 -0.0999999
vn 0.0000000 0.0000000 0.0000000
v -0.0499997 -0.0499997 -0.0499997
vn 0.0000000 0.0000000 0.0000000
v -0.0499997 -0.0499997 -0.0499997
vn 0.0000000 0.0000000 0.0000000
v -0.0499997 -0.0499997 -0.0499997
vn 0.0000000 0.0000000 0.0000000
v -0.0499997 -0.0499997 -0.0499997
vn 0.0000000 0.0000000 0.0000000
v -0.0499997 -0.0499997 -0.0499997
vn 0.0000000 0.0000000 0.0000000
v -0.0499997 -0.0499997 -0.0499997
vn 0.0000000 0.0000000 0.0000000
v 0.0000000 0.0000000 0.0000000
vn 0.0000000 0.0000000 0.0000000
v 0.0000000 0.0000000 0.0000000
vn 0.0000000 0.0000000 0.0000000
v 0.0000000 0.0000000 0.0000000
vn 0.0000000 0.0000000 0.0000000
v 0.0000000 0.0000000 0.0000000
vn 0.0000000 0.0000000 0.0000000
v 0.0000000 0.0000000 0.0000000
vn 0.0000000 0.0000000 0.0000000
v 0.0000000 0.0000000 0.0000000
vn 0.0000000 0.0000000 0.0000000
v 0.0500002 0.0500002 0.0500002
vn 0.0000000 0.0000000 0.0000000
v 0.0500002 0.0500002 0.0500002
vn 0.0000000 0.0000000 0.0000000
v 0.0500002 0.0500002 0.0500002
vn 0.0000000 0.0000000 0.0000000
v 0.0500002 0.0500002 0.0500002
vn 0.0000000 0.0000000 0.0000000
v 0.0500002 0.0500002 0.0500002
vn 0.0000000 0.0000000 0.0000000
v 0.0500002 0.0500002 0.0500002
vn 0.0000000 0.0000000 0.0000000
v 0.1500001 0.1500001 0.1500001
vn 0.0000000 0.0000000 0.0000000
v 0.1500001 0.1500001 0.1500001
vn 0.0000000 0.0000000 0.0000000
v 0.1500001 0.1500001 0.1500001
vn 0.0000000 0.0000000 0.0000000
v 0.1500001 0.1500001 0.1500001
vn 0.0000000 0.0000000 0.0000000
v 0.1500001 0.1500001 0.1500001
vn 0.0000000 0.0000000 0.0000000
v 0.1500001 0.1500001 0.1500001
vn 0.0000000 0.0000000 0.0000000
v 0.2000003 0.2000003 0.2000003
vn 0.0000000 0.0000000 0.0000000
v 0.2000003 0.2000003 0.2000003
vn 0.0000000 0.0000000 0.0000000
v 0.2000003 0.2000003 0.2000003
vn 0.0000000 0.0000000 0.0000000
v 0.2000003 0.2000003 0.2000003
vn 0.0000000 0.0000000 0.0000000
v 0.2000003 0.2000003 0.2000003
vn 0.0000000 0.0000000 0.0000000
v 0.2000003 0.2000003 0.2000003
vn 0.0000000 0.0000000 0.0000000
v 0.2500000 0.2500000 0.2500000
vn 0.0000000 0.0000000 0.0000000
v 0.2500000 0.2500000 0.2500000
vn 0.0000000 0.0000000 0.0000000
v 0.2500000 0.2500000 0.2500000
vn 0.0000000 0.0000000 0.0000000
v 0.2500000 0.2500000 0.2500000
vn 0.0000000 0.0000000 0.0000000
v 0.2500000 0.2500000 0.2500000
vn 0.0000000 0.0000000 0.0000000
v 0.2500000 0.2500000 0.2500000
vn 0.0000000 0.0000000 0.0000000
v 0.3499999 0.3499999 0.3499999
vn 0.0000000 0.0000000 0.0000000
v 0.3499999 0.3499999 0.3499999
vn 0.0000000 0.0000000 0.0000000
v 0.3499999 0.3499999 0.3499999
vn 0.0000000 0.0000000 0.0000000
v 0.3499999 0.3499999 0.3499999
vn 0.0000000 0.0000000 0.0000000
v 0.3499999 0.3499999 0.3499999
vn 0.0000000 0.0000000 0.0000000
v 0.3499999 0.3499999 0.3499999
vn 0.0000000 0.0000000 0.0000000
v 0.4000001 0.4000001 0.4000001
vn 0.0000000 0.0000000 0.0000000
v 0.4000001 0.4000001 0.4000001
vn 0.0000000 0.0000000 0.0000000
v 0.4000001 0.4000001 0.4000001
vn 0.0000000 0.0000000 0.0000000
v 0.4000001 0.4000001 0.4000001
vn 0.0000000 0.0000000 0.0000000
v 0.4000001 0.4000001 0.4000001
vn 0.0000000 0.0000000 0.0000000
v 0.4000001 0.4000001 0.4000001
vn 0.0000000 0.0000000 0.0000000
v 0.5000000 0.5000000 0.5000000
vn 0.0000000 0.0000000 0.0000000
v 0.5000000 0.5000000 0.5000000
vn 0.0000000 0.0000000 0.0000000
v 0.5000000 0.5000000 0.5000000
vn 0.0000000 0.0000000 0.0000000
v 0.5000000 0.5000000 0.5000000
vn 0.0000000 0.0000000 0.0000000
v 0.5000000 0.5000000 0.5000000
vn 0.0000000 0.0000000 0.0000000
v 0.5000000 0.5000000 0.5000000
vn 0.0000000 0.0000000 0.0000000
v 0.5500002 0.5500002 0.5500002
vn 0.0000000 0.0000000 0.0000000
v 0.5500002 0.5500002 0.5500002
vn 0.0000000 0.0000000 0.0000000
v 0.5500002 0.5500002 0.5500002
vn 0.0000000 0.0000000 0.0000000
v 0.5500002 0.5500002 0.5500002
vn 0.0000000 0.0000000 0.0000000
v 0.5500002 0.5500002 0.5500002
vn 0.0000000 0.0000000 0.0000000
v 0.5500002 0.5500002 0.5500002
vn 0.0000000 0.0000000 0.0000000
v 0.7500000 0.7500000 0.7500000
vn 0.0000000 0.0000000 0.0000000
v 0.7500000 0.7500000 0.7500000
vn 0.0000000 0.0000000 0.0000000
v 0.7500000 0.7500000 0.7500000
vn 0.0000000 0.0000000 0.0000000
v 0.7500000 0.7500000 0.7500000
vn 0.0000000 0.0000000 0.0000000
v 0.7500000 0.7500000 0.7500000
vn 0.0000000 0.0000000 0.0000000
v 0.7500000 0.7500000 0.7500000
vn 0.0000000 0.0000000 0.0000000
v 0.8499999 0.8499999 0.8499999
vn 0.0000000 0.0000000 0.0000000
v 0.8499999 0.8499999 0.8499999
vn 0.0000000 0.0000000 0.0000000
v 0.8499999 0.8499999 0.8499999
vn 0.0000000 0.0000000 0.0000000
v 0.8499999 0.8499999 0.8499999
vn 0.0000000 0.0000000 0.0000000
v 0.8499999 0.8499999 0.8499999
vn 0.0000000 0.0000000 0.0000000
v 0.8499999 0.8499999 0.8499999
vn 0.0000000 0.0000000 0.0000000
v 0.9000001 0.9000001 0.9000001
vn 0.0000000 0.0000000 0.0000000
v 0.9000001 0.9000001 0.9000001
vn 0.0000000 0.0000000 0.0000000
v 0.9000001 0.9000001 0.9000001
vn 0.0000000 0.0000000 0.0000000
v 0.9000001 0.9000001 0.9000001
vn 0.0000000 0.0000000 0.0000000
v 0.9000001 0.9000001 0.9000001
vn 0.0000000 0.0000000 0.0000000
v 0.9000001 0.9000001 0.9000001
vn 0.0000000 0.0000000 0.0000000
v 0.9500003 0.9500003 0.9500003
vn 0.0000000 0.0000000 0.0000000
v 0.9500003 0.9500003 0.9500003
vn 0.0000000 0.0000000 0.0000000
v 0.9500003 0.9500003 0.9500003
vn 0.0000000 0.0000000 0.0000000
v 0.9500003 0.9500003 0.9500003
vn 0.0000000 0.0000000 0.0000000
v 0.9500003 0.9500003 0.9500003
vn 0.0000000 0.0000000 0.0000000
v 0.9500003 0.9500003 0.9500003
vn 0.0000000 0.0000000 0.0000000
v 1.0000000 1.0000000 1.0000000
vn 0.0000000 0.0000000 0.0000000
v 1.0000000 1.0000000 1.0000000
vn 0.0000000 0.0000000 0.0000000
v 1.0000000 1.0000000 1.0000000
vn 0.0000000 0.0000000 0.0000000
v 1.0000000 1.0000000 1.0000000
vn 0.0000000 0.0000000 0.0000000
v 1.0000000 1.0000000 1.0000000
vn 0.0000000 0.0000000 0.0000000
v 1.0000000 1.0000000 1.0000000
vn 0.0000000 0.0000000 0.0000000
v 1.0500002 1.0500002 1.0500002
vn 0.0000000 0.0000000 0.0000000
v 1.0500002 1.0500002 1.0500002
vn 0.0000000 0.0000000 0.0000000
v 1.0500002 1.0500002 1.0500002
vn 0.0000000 0.0000000 0.0000000
v 1.0500002 1.0500002 1.0500002
vn 0.0000000 0.0000000 0.0000000
v 1.0500002 1.0500002 1.0500002
vn 0.0000000 0.0000000 0.0000000
v 1.0500002 1.0500002 1.0500002
vn 0.0000000 0.0000000 0.0000000
v 1.0999999 1.0999999 1.0999999
vn 0.0000000 0.0000000 0.0000000
v 1.0999999 1.0999999 1.0999999
vn 0.0000000 0.0000000 0.0000000
v 1.0999999 1.0999999 1.0999999
vn 0.0000000 0.0000000 0.0000000
v 1.0999999 1.0999999 1.0999999
vn 0.0000000 0.0000000 0.0000000
v 1.0999999 1.0999999 1.0999999
vn 0.0000000 0.0000000 0.0000000
v 1.0999999 1.0999999 1.0999999
vn 0.0000000 0.0000000 0.0000000
v 1.2000003 1.2000003 1.2000003
vn 0.0000000 0.0000000 0.0000000
v 1.2000003 1.2000003 1.2000003
vn 0.0000000 0.0000000 0.0000000
v 1.2000003 1.2000003 1.2000003
vn 0.0000000 0.0000000 0.0000000
v 1.2000003 1.2000003 1.2000003
vn 0.0000000 0.0000000 0.0000000
v 1.2000003 1.2000003 1.2000003
vn 0.0000000 0.0000000 0.0000000
v 1.2000003 1.2000003 1.2000003
vn 0.0000000 0.0000000 0.0000000
v 1.2500000 1.2500000 1.2500000
vn 0.0000000 0.0000000 0.0000000
v 1.2500000 1.2500000 1.2500000
vn 0.0000000 0.0000000 0.0000000
v 1.2500000 1.2500000 1.2500000
vn 0.0000000 0.0000000 0.0000000
v 1.2500000 1.2500000 1.2500000
vn 0.0000000 0.0000000 0.0000000
v 1.2500000 1.2500000 1.2500000
vn 0.0000000 0.0000000 0.0000000
v 1.2500000 1.2500000 1.2500000
vn 0.0000000 0.0000000 0.0000000
v 1.3499999 1.3499999 1.3499999
vn 0.0000000 0.0000000 0.0000000
v 1.3499999 1.3499999 1.3499999
vn 0.0000000 0.0000000 0.0000000
v 1.3499999 1.3499999 1.3499999
vn 0.0000000 0.0000000 0.0000000
v 1.3499999 1.3499999 1.3499999
vn 0.0000000 0.0000000 0.0000000
v 1.3499999 1.3499999 1.3499999
vn 0.0000000 0.0000000 0.0000000
v 1.3499999 1.3499999 1.3499999
vn 0.0000000 0.0000000 0.0000000
v 1.4000001 1.4000001 1.4000001
vn 0.0000000 0.0000000 0.0000000
v 1.4000001 1.4000001 1.4000001
vn 0.0000000 0.0000000 0.0000000
v 1.4000001 1.4000001 1.4000001
vn 0.0000000 0.0000000 0.0000000
v 1.4000001 1.4000001 1.4000001
vn 0.0000000 0.0000000 0.0000000
v 1.4000001 1.4000001 1.4000001
vn 0.0000000 0.0000000 0.0000000
v 1.4000001 1.4000001 1.4000001
vn 0.0000000 0.0000000 0.0000000
v 1.4500003 1.4500003 1.4500003
vn 0.0000000 0.0000000 0.0000000
v 1.4500003 1.4500003 1.4500003
vn 0.0000000 0.0000000 0.0000000
v 1.4500003 1.4500003 1.4500003
vn 0.0000000 0.0000000 0.0000000
v 1.4500003 1.4500003 1.4500003
vn 0.0000000 0.0000000 0.0000000
v 1.4500003 1.4500003 1.4500003
vn 0.0000000 0.0000000 0.0000000
v 1.4500003 1.4500003 1.4500003
vn 0.0000000 0.0000000 0.0000000
v 1.5000000 1.5000000 1.5000000
vn 0.0000000 0.0000000 0.0000000
v 1.5000000 1.5000000 1.5000000
vn 0.0000000 0.0000000 0.0000000
v 1.5000000 1.5000000 1.5000000
vn 0.0000000 0.0000000 0.0000000
v 1.5000000 1.5000000 1.5000000
vn 0.0000000 0.0000000 0.0000000
v 1.5000000 1.5000000 1.5000000
vn 0.0000000 0.0000000 0.0000000
v 1.5000000 1.5000000 1.5000000
vn 0.0000000 0.0000000 0.0000000
v 1.5500002 1.5500002 1.5500002
vn 0.0000000 0.0000000 0.0000000
v 1.5500002 1.5500002 1.5500002
vn 0.0000000 0.0000000 0.0000000
v 1.5500002 1.5500002 1.5500002
vn 0.0000000 0.0000000 0.0000000
v 1.5500002 1.5500002 1.5500002
vn 0.0000000 0.0000000 0.0000000
v 1.5500002 1.5500002 1.5500002
vn 0.0000000 0.0000000 0.0000000
v 1.5500002 1.5500002 1.5500002
vn 0.0000000 0.0000000 0.0000000
v 1.5999999 1.5999999 1.5999999
vn 0.0000000 0.0000000 0.0000000
v 1.5999999 1.5999999 1.5999999
vn 0.0000000 0.0000000 0.0000000
v 1.5999999 1.5999999 1.5999999
vn 0.0000000 0.0000000 0.0000000
v 1.5999999 1.5999999 1.5999999
vn 0.0000000 0.0000000 0.0000000
v 1.5999999 1.5999999 1.5999999
vn 0.0000000 0.0000000 0.0000000
v 1.5999999 1.5999999 1.5999999
vn 0.0000000 0.0000000 0.0000000
v 1.6500001 1.6500001 1.6500001
vn 0.0000000 0.0000000 0.0000000
v 1.6500001 1.6500001 1.6500001
vn 0.0000000 0.0000000 0.0000000
v 1.6500001 1.6500001 1.6500001
vn 0.0000000 0.0000000 0.0000000
v 1.6500001 1.6500001 1.6500001
vn 0.0000000 0.0000000 0.0000000
v 1.6500001 1.6500001 1.6500001
vn 0.0000000 0.0000000 0.0000000
v 1.6500001 1.6500001 1.6500001
vn 0.0000000 0.0000000 0.0000000
v 1.7000003 1.7000003 1.7000003
vn 0.0000000 0.0000000 0.0000000
v 1.7000003 1.7000003 1.7000003
vn 0.0000000 0.0000000 0.0000000
v 1.7000003 1.7000003 1.7000003
vn 0.0000000 0.0000000 0.0000000
v 1.7000003 1.7000003 1.7000003
vn 0.0000000 0.0000000 0.0000000
v 1.7000003 1.7000003 1.7000003
vn 0.0000000 0.0000000 0.0000000
v 1.7000003 1.7000003 1.7000003
vn 0.0000000 0.0000000 0.0000000
v 1.8000002 1.8000002 1.8000002
vn 0.0000000 0.0000000 0.0000000
v 1.8000002 1.8000002 1.8000002
vn 0.0000000 0.0000000 0.0000000
v 1.8000002 1.8000002 1.8000002
vn 0.0000000 0.0000000 0.0000000
v 1.8000002 1.8000002 1.8000002
vn 0.0000000 0.0000000 0.0000000
v 1.8000002 1.8000002 1.8000002
vn 0.0000000 0.0000000 0.0000000
v 1.8000002 1.8000002 1.8000002
vn 0.0000000 0.0000000 0.0000000
v 1.8499999 1.8499999 1.8499999
vn 0.0000000 0.0000000 0.0000000
v 1.8499999 1.8499999 1.8499999
vn 0.0000000 0.0000000 0.0000000
v 1.8499999 1.8499999 1.8499999
vn 0.0000000 0.0000000 0.0000000
v 1.8499999 1.8499999 1.8499999
vn 0.0000000 0.0000000 0.0000000
v 1.8499999 1.8499999 1.8499999
vn 0.0000000 0.0000000 0.0000000
v 1.8499999 1.8499999 1.8499999
vn 0.0000000 0.0000000 0.0000000
v 1.9000001 1.9000001 1.9000001
vn 0.0000000 0.0000000 0.0000000
v 1.9000001 1.9000001 1.9000001
vn 0.0000000 0.0000000 0.0000000
v 1.9000001 1.9000001 1.9000001
vn 0.0000000 0.0000000 0.0000000
v 1.9000001 1.9000001 1.9000001
vn 0.0000000 0.0000000 0.0000000
v 1.9000001 1.9000001 1.9000001
vn 0.0000000 0.0000000 0.0000000
v 1.9000001 1.9000001 1.9000001
vn 0.0000000 0.0000000 0.0000000
v 2.0000000 2.0000000 2.0000000
vn 0.0000000 0.0000000 0.0000000
v 2.0000000 2.0000000 2.0000000
vn 0.0000000 0.0000000 0.0000000
v 2.0000000 2.0000000 2.0000000
vn 0.0000000 0.0000000 0.0000000
v 2.0000000 2.0000000 2.0000000
vn 0.0000000 0.0000000 0.0000000
v 2.0000000 2.0000000 2.0000000
vn 0.0000000 0.0000000 0.0000000
v 2.0000000 2.0000000 2.0000000
vn 0.0000000 0.0000000 0.0000000
v 2.0500002 2.0500002 2.0500002
vn 0.0000000 0.0000000 0.0000000
v 2.0500002 2.0500002 2.0500002
vn 0.0000000 0.0000000 0.0000000
v 2.0500002 2.0500002 2.0500002
vn 0.0000000 0.0000000 0.0000000
v 2.0500002 2.0500002 2.0500002
vn 0.0000000 0.0000000 0.0000000
v 2.0500002 2.0500002 2.0500002
vn 0.0000000 0.0000000 0.0000000
v 2.0500002 2.0500002 2.0500002
vn 0.0000000 0.0000000 0.0000000
v 2.0999999 2.0999999 2.0999999
vn 0.0000000 0.0000000 0.0000000
v 2.0999999 2.0999999 2.0999999
vn 0.0000000 0.0000000 0.0000000
v 2.0999999 2.0999999 2.0999999
vn 0.0000000 0.0000000 0.0000000
v 2.0999999 2.0999999 2.0999999
vn 0.0000000 0.0000000 0.0000000
v 2.0999999 2.0999999 2.0999999
vn 0.0000000 0.0000000 0.0000000
v 2.0999999 2.0999999 2.0999999
vn 0.0000000 0.0000000 0.0000000
v 2.1500001 2.1500001 2.1500001
vn 0.0000000 0.0000000 0.0000000
v 2.1500001 2.1500001 2.1500001
vn 0.0000000 0.0000000 0.0000000
v 2.1500001 2.1500001 2.1500001
vn 0.0000000 0.0000000 0.0000000
v 2.1500001 2.1500001 2.1500001
vn 0.0000000 0.0000000 0.0000000
v 2.1500001 2.1500001 2.1500001
vn 0.0000000 0.0000000 0.0000000
v 2.1500001 2.1500001 2.1500001
vn 0.0000000 0.0000000 0.0000000
v 2.2500000 2.2500000 2.2500000
vn 0.0000000 0.0000000 0.0000000
v 2.2500000 2.2500000 2.2500000
vn 0.0000000 0.0000000 0.0000000
v 2.2500000 2.2500000 2.2500000
vn 0.0000000 0.0000000 0.0000000
v 2.2500000 2.2500000 2.2500000
vn 0.0000000 0.0000000 0.0000000
v 2.2500000 2.2500000 2.2500000
vn 0.0000000 0.0000000 0.0000000
v 2.2500000 2.2500000 2.2500000
vn 0.0000000 0.0000000 0.0000000
v 2.4000001 2.4000001 2.4000001
vn 0.0000000 0.0000000 0.0000000
v 2.4000001 2.4000001 2.4000001
vn 0.0000000 0.0000000 0.0000000
v 2.4000001 2.4000001 2.4000001
vn 0.0000000 0.0000000 0.0000000
v 2.4000001 2.4000001 2.4000001
vn 0.0000000 0.0000000 0.0000000
v 2.4000001 2.4000001 2.4000001
vn 0.0000000 0.0000000 0.0000000
v 2.4000001 2.4000001 2.4000001
vn 0.0000000 0.0000000 0.0000000
v 2.5000000 2.5000000 2.5000000
vn 0.0000000 0.0000000 0.0000000
v 2.5000000 2.5000000 2.5000000
vn 0.0000000 0.0000000 0.0000000
v 2.5000000 2.5000000 2.5000000
vn 0.0000000 0.0000000 0.0000000
v 2.5000000 2.5000000 2.5000000
vn 0.0000000 0.0000000 0.0000000
v 2.5000000 2.5000000 2.5000000
vn 0.0000000 0.0000000 0.0000000
v 2.5000000 2.5000000 2.5000000
vn 0.0000000 0.0000000 0.0000000
v 2.8000002 2.8000002 2.8000002
vn 0.0000000 0.0000000 0.0000000
v 2.8000002 2.8000002 2.8000002
vn 0.0000000 0.0000000 0.0000000
v 2.8000002 2.8000002 2.8000002
vn 0.0000000 0.0000000 0.0000000
v 2.8000002 2.8000002 2.8000002
vn 0.0000000 0.0000000 0.0000000
v 2.8000002 2.8000002 2.8000002
vn 0.0000000 0.0000000 0.0000000
v 2.8000002 2.8000002 2.8000002
vn 0.0000000 0.0000000 0.0000000
v 2.8499999 2.8499999 2.8499999
vn 0.0000000 0.0000000 0.0000000
v 2.8499999 2.8499999 2.8499999
vn 0.0000000 0.0000000 0.0000000
v 2.8499999 2.8499999 2.8499999
vn 0.0000000 0.0000000 0.0000000
v 2.8499999 2.8499999 2.8499999
vn 0.0000000 0.0000000 0.0000000
v 2.8499999 2.8499999 2.8499999
vn 0.0000000 0.0000000 0.0000000
v 2.8499999 2.8499999 2.8499999
vn 0.0000000 0.0000000 0.0000000
v 2.9000001 2.9000001 2.9000001
vn 0.0000000 0.0000000 0.0000000
v 2.9000001 2.9000001 2.9000001
vn 0.0000000 0.0000000 0.0000000
v 2.9000001 2.9000001 2.9000001
vn 0.0000000 0.0000000 0.0000000
v 2.9000001 2.9000001 2.9000001
vn 0.0000000 0.0000000 0.0000000
v 2.9000001 2.9000001 2.9000001
vn 0.0000000 0.0000000 0.0000000
v 2.9000001 2.9000001 2.9000001
vn 0.0000000 0.0000000 0.0000000
v 3.0000000 3.0000000 3.0000000
vn 0.0000000 0.0000000 0.0000000
v 3.0000000 3.0000000 3.0000000
vn 0.0000000 0.0000000 0.0000000
v 3.0000000 3.0000000 3.0000000
vn 0.0000000 0.0000000 0.0000000
v 3.0000000 3.0000000 3.0000000
vn 0.0000000 0.0000000 0.0000000
v 3.0000000 3.0000000 3.0000000
vn 0.0000000 0.0000000 0.0000000
v 3.0000000 3.0000000 3.0000000
vn 0.0000000 0.0000000 0.0000000
v 3.0500002 3.0500002 3.0500002
vn 0.0000000 0.0000000 0.0000000
v 3.0500002 3.0500002 3.0500002
vn 0.0000000 0.0000000 0.0000000
v 3.0500002 3.0500002 3.0500002
vn 0.0000000 0.0000000 0.0000000
v 3.0500002 3.0500002 3.0500002
vn 0.0000000 0.0000000 0.0000000
v 3.0500002 3.0500002 3.0500002
vn 0.0000000 0.0000000 0.0000000
v 3.0500002 3.0500002 3.0500002
vn 0.0000000 0.0000000 0.0000000
v 3.1500006 3.1500006 3.1500006
vn 0.0000000 0.0000000 0.0000000
v 3.1500006 3.1500006 3.1500006
vn 0.0000000 0.0000000 0.0000000
v 3.1500006 3.1500006 3.1500006
vn 0.0000000 0.0000000 0.0000000
v 3.1500006 3.1500006 3.1500006
vn 0.0000000 0.0000000 0.0000000
v 3.1500006 3.1500006 3.1500006
vn 0.0000000 0.0000000 0.0000000
v 3.1500006 3.1500006 3.1500006
vn 0.0000000 0.0000000 0.0000000
v 3.1999998 3.1999998 3.1999998
vn 0.0000000 0.0000000 0.0000000
v 3.1999998 3.1999998 3.1999998
vn 0.0000000 0.0000000 0.0000000
v 3.1999998 3.1999998 3.1999998
vn 0.0000000 0.0000000 0.0000000
v 3.1999998 3.1999998 3.1999998
vn 0.0000000 0.0000000 0.0000000
v 3.1999998 3.1999998 3.1999998
vn 0.0000000 0.0000000 0.0000000
v 3.1999998 3.1999998 3.1999998
vn 0.0000000 0.0000000 0.0000000
v 3.2500000 3.2500000 3.2500000
vn 0.0000000 0.0000000 0.0000000
v 3.2500000 3.2500000 3.2500000
vn 0.0000000 0.0000000 0.0000000
v 3.2500000 3.2500000 3.2500000
vn 0.0000000 0.0000000 0.0000000
v 3.2500000 3.2500000 3.2500000
vn 0.0000000 0.0000000 0.0000000
v 3.2500000 3.2500000 3.2500000
vn 0.0000000 0.0000000 0.0000000
v 3.2500000 3.2500000 3.2500000
vn 0.0000000 0.0000000 0.0000000
v 3.3000002 3.3000002 3.3000002
vn 0.0000000 0.0000000 0.0000000
v 3.3000002 3.3000002 3.3000002
vn 0.0000000 0.0000000 0.0000000
v 3.3000002 3.3000002 3.3000002
vn 0.0000000 0.0000000 0.0000000
v 3.3000002 3.3000002 3.3000002
vn 0.0000000 0.0000000 0.0000000
v 3.3000002 3.3000002 3.3000002
vn 0.0000000 0.0000000 0.0000000
v 3.3000002 3.3000002 3.3000002
vn 0.0000000 0.0000000 0.0000000
v 3.4000006 3.4000006 3.4000006
vn 0.0000000 0.0000000 0.0000000
v 3.4000006 3.4000006 3.4000006
vn 0.0000000 0.0000000 0.0000000
v 3.4000006 3.4000006 3.4000006
vn 0.0000000 0.0000000 0.0000000
v 3.4000006 3.4000006 3.4000006
vn 0.0000000 0.0000000 0.0000000
v 3.4000006 3.4000006 3.4000006
vn 0.0000000 0.0000000 0.0000000
v 3.4000006 3.4000006 3.4000006
vn 0.0000000 0.0000000 0.0000000
v 3.4499998 3.4499998 3.4499998
vn 0.0000000 0.0000000 0.0000000
v 3.4499998 3.4499998 3.4499998
vn 0.0000000 0.0000000 0.0000000
v 3.4499998 3.4499998 3.4499998
vn 0.0000000 0.0000000 0.0000000
v 3.4499998 3.4499998 3.4499998
vn 0.0000000 0.0000000 0.0000000
v 3.4499998 3.4499998 3.4499998
vn 0.0000000 0.0000000 0.0000000
v 3.4499998 3.4499998 3.4499998
vn 0.0000000 0.0000000 0.0000000
v 3.5000000 3.5000000 3.5000000
vn 0.0000000 0.0000000 0.0000000
v 3.5000000 3.5000000 3.5000000
vn 0.0000000 0.0000000 0.0000000
v 3.5000000 3.5000000 3.5000000
vn 0.0000000 0.0000000 0.0000000
v 3.5000000 3.5000000 3.5000000
vn 0.0000000 0.0000000 0.0000000
v 3.5000000 3.5000000 3.5000000
vn 0.0000000 0.0000000 0.0000000
v 3.5000000 3.5000000 3.5000000
vn 0.0000000 0.0000000 0.0000000
v 3.6000004 3.6000004 3.6000004
vn 0.0000000 0.0000000 0.0000000
v 3.6000004 3.6000004 3.6000004
vn 0.0000000 0.0000000 0.0000000
v 3.6000004 3.6000004 3.6000004
vn 0.0000000 0.0000000 0.0000000
v 3.6000004 3.6000004 3.6000004
vn 0.0000000 0.0000000 0.0000000
v 3.6000004 3.6000004 3.6000004
vn 0.0000000 0.0000000 0.0000000
v 3.6000004 3.6000004 3.6000004
vn 0.0000000 0.0000000 0.0000000
v 3.6500006 3.6500006 3.6500006
vn 0.0000000 0.0000000 0.0000000
v 3.6500006 3.6500006 3.6500006
vn 0.0000000 0.0000000 0.0000000
v 3.6500006 3.6500006 3.6500006
vn 0.0000000 0.0000000 0.0000000
v 3.6500006 3.6500006 3.6500006
vn 0.0000000 0.0000000 0.0000000
v 3.6500006 3.6500006 3.6500006
vn 0.0000000 0.0000000 0.0000000
v 3.6500006 3.6500006 3.6500006
vn 0.0000000 0.0000000 0.0000000
v 3.6999998 3.6999998 3.6999998
vn 0.0000000 0.0000000 0.0000000
v 3.6999998 3.6999998 3.6999998
vn 0.0000000 0.0000000 0.0000000
v 3.6999998 3.6999998 3.6999998
vn 0.0000000 0.0000000 0.0000000
v 3.6999998 3.6999998 3.6999998
vn 0.0000000 0.0000000 0.0000000
v 3.6999998 3.6999998 3.6999998
vn 0.0000000 0.0000000 0.0000000
v 3.6999998 3.6999998 3.6999998
vn 0.0000000 0.0000000 0.0000000
v 3.7500000 3.7500000 3.7500000
vn 0.0000000 0.0000000 0.0000000
v 3.7500000 3.7500000 3.7500000
vn 0.0000000 0.0000000 0.0000000
v 3.7500000 3.7500000 3.7500000
vn 0.0000000 0.0000000 0.0000000
v 3.7500000 3.7500000 3.7500000
vn 0.0000000 0.0000000 0.0000000
v 3.7500000 3.7500000 3.7500000
vn 0.0000000 0.0000000 0.0000000
v 3.7500000 3.7500000 3.7500000
vn 0.0000000 0.0000000 0.0000000
v 3.8000002 3.8000002 3.8000002
vn 0.0000000 0.0000000 0.0000000
v 3.8000002 3.8000002 3.8000002
vn 0.0000000 0.0000000 0.0000000
v 3.8000002 3.8000002 3.8000002
vn 0.0000000 0.0000000 0.0000000
v 3.8000002 3.8000002 3.8000002
vn 0.0000000 0.0000000 0.0000000
v 3.8000002 3.8000002 3.8000002
vn 0.0000000 0.0000000 0.0000000
v 3.8000002 3.8000002 3.8000002
vn 0.0000000 0.0000000 0.0000000
v 3.8500004 3.8500004 3.8500004
vn 0.0000000 0.0000000 0.0000000
v 3.8500004 3.8500004 3.8500004
vn 0.0000000 0.0000000 0.0000000
v 3.8500004 3.8500004 3.8500004
vn 0.0000000 0.0000000 0.0000000
v 3.8500004 3.8500004 3.8500004
vn 0.0000000 0.0000000 0.0000000
v 3.8500004 3.8500004 3.8500004
vn 0.0000000 0.0000000 0.0000000
v 3.8500004 3.8500004 3.8500004
vn 0.0000000 0.0000000 0.0000000
v 3.9000006 3.9000006 3.9000006
vn 0.0000000 0.0000000 0.0000000
v 3.9000006 3.9000006 3.9000006
vn 0.0000000 0.0000000 0.0000000
v 3.9000006 3.9000006 3.9000006
vn 0.0000000 0.0000000 0.0000000
v 3.9000006 3.9000006 3.9000006
vn 0.0000000 0.0000000 0.0000000
v 3.9000006 3.9000006 3.9000006
vn 0.0000000 0.0000000 0.0000000
v 3.9000006 3.9000006 3.9000006
vn 0.0000000 0.0000000 0.0000000
v 3.9499998 3.9499998 3.9499998
vn 0.0000000 0.0000000 0.0000000
v 3.9499998 3.9499998 3.9499998
vn 0.0000000 0.0000000 0.0000000
v 3.9499998 3.9499998 3.9499998
vn 0.0000000 0.0000000 0.0000000
v 3.9499998 3.9499998 3.9499998
vn 0.0000000 0.0000000 0.0000000
v 3.9499998 3.9499998 3.9499998
vn 0.0000000 0.0000000 0.0000000
v 3.9499998 3.9499998 3.9499998
vn 0.0000000 0.0000000 0.0000000
v 4.0000000 4.0000000 4.0000000
vn 0.0000000 0.0000000 0.0000000
v 4.0000000 4.0000000 4.0000000
vn 0.0000000 0.0000000 0.0000000
v 4.0000000 4.0000000 4.0000000
vn 0.0000000 0.0000000 0.0000000
v 4.0000000 4.0000000 4.0000000
vn 0.0000000 0.0000000 0.0000000
v 4.0000000 4.0000000 4.0000000
vn 0.0000000 0.0000000 0.0000000
v 4.0000000 4.0000000 4.0000000
vn 0.0000000 0.0000000 0.0000000
v 4.0500002 4.0500002 4.0500002
vn 0.0000000 0.0000000 0.0000000
v 4.0500002 4.0500002 4.0500002
vn 0.0000000 0.0000000 0.0000000
v 4.0500002 4.0500002 4.0500002
vn 0.0000000 0.0000000 0.0000000
v 4.0500002 4.0500002 4.0500002
vn 0.0000000 0.0000000 0.0000000
v 4.0500002 4.0500002 4.0500002
vn 0.0000000 0.0000000 0.0000000
v 4.0500002 4.0500002 4.0500002
vn 0.0000000 0.0000000 0.0000000
v 4.1500006 4.1500006 4.1500006
vn 0.0000000 0.0000000 0.0000000
v 4.1500006 4.1500006 4.1500006
vn 0.0000000 0.0000000 0.0000000
v 4.1500006 4.1500006 4.1500006
vn 0.0000000 0.0000000 0.0000000
v 4.1500006 4.1500006 4.1500006
vn 0.0000000 0.0000000 0.0000000
v 4.1500006 4.1500006 4.1500006
vn 0.0000000 0.0000000 0.0000000
v 4.1500006 4.1500006 4.1500006
vn 0.0000000 0.0000000 0.0000000
v 4.1999998 4.1999998 4.1999998
vn 0.0000000 0.0000000 0.0000000
v 4.1999998 4.1999998 4.1999998
vn 0.0000000 0.0000000 0.0000000
v 4.1999998 4.1999998 4.1999998
vn 0.0000000 0.0000000 0.0000000
v 4.1999998 4.1999998 4.1999998
vn 0.0000000 0.0000000 0.0000000
v 4.1999998 4.1999998 4.1999998
vn 0.0000000 0.0000000 0.0000000
v 4.1999998 4.1999998 4.1999998
vn 0.0000000 0.0000000 0.0000000
v 4.2500000 4.2500000 4.2500000
vn 0.0000000 0.0000000 0.0000000
v 4.2500000 4.2500000 4.2500000
vn 0.0000000 0.0000000 0.0000000
v 4.2500000 4.2500000 4.2500000
vn 0.0000000 0.0000000 0.0000000
v 4.2500000 4.2500000 4.2500000
vn 0.0000000 0.0000000 0.0000000
v 4.2500000 4.2500000 4.2500000
vn 0.0000000 0.0000000 0.0000000
v 4.2500000 4.2500000 4.2500000
vn 0.0000000 0.0000000 0.0000000
v 4.3000002 4.3000002 4.3000002
vn 0.0000000 0.0000000 0.0000000
v 4.3000002 4.3000002 4.3000002
vn 0.0000000 0.0000000 0.0000000
v 4.3000002 4.3000002 4.3000002
vn 0.0000000 0.0000000 0.0000000
v 4.3000002 4.3000002 4.3000002
vn 0.0000000 0.0000000 0.0000000
v 4.3000002 4.3000002 4.3000002
vn 0.0000000 0.0000000 0.0000000
v 4.3000002 4.3000002 4.3000002
vn 0.0000000 0.0000000 0.0000000
v 4.3500004 4.3500004 4.3500004
vn 0.0000000 0.0000000 0.0000000
v 4.3500004 4.3500004 4.3500004
vn 0.0000000 0.0000000 0.0000000
v 4.3500004 4.3500004 4.3500004
vn 0.0000000 0.0000000 0.0000000
v 4.3500004 4.3500004 4.3500004
vn 0.0000000 0.0000000 0.0000000
v 4.3500004 4.3500004 4.3500004
vn 0.0000000 0.0000000 0.0000000
v 4.3500004 4.3500004 4.3500004
vn 0.0000000 0.0000000 0.0000000
v 4.4499998 4.4499998 4.4499998
vn 0.0000000 0.0000000 0.0000000
v 4.4499998 4.4499998 4.4499998
vn 0.0000000 0.0000000 0.0000000
v 4.4499998 4.4499998 4.4499998
vn 0.0000000 0.0000000 0.0000000
v 4.4499998 4.4499998 4.4499998
vn 0.0000000 0.0000000 0.0000000
v 4.4499998 4.4499998 4.4499998
vn 0.0000000 0.0000000 0.0000000
v 4.4499998 4.4499998 4.4499998
vn 0.0000000 0.0000000 0.0000000
v 4.5000000 4.5000000 4.5000000
vn 0.0000000 0.0000000 0.0000000
v 4.5000000 4.5000000 4.5000000
vn 0.0000000 0.0000000 0.0000000
v 4.5000000 4.5000000 4.5000000
vn 0.0000000 0.0000000 0.0000000
v 4.5000000 4.5000000 4.5000000
vn 0.0000000 0.0000000 0.0000000
v 4.5000000 4.5000000 4.5000000
vn 0.0000000 0.0000000 0.0000000
v 4.5000000 4.5000000 4.5000000
vn 0.0000000 0.0000000 0.0000000
v 4.5500002 4.5500002 4.5500002
vn 0.0000000 0.0000000 0.0000000
v 4.5500002 4.5500002 4.5500002
vn 0.0000000 0.0000000 0.0000000
v 4.5500002 4.5500002 4.5500002
vn 0.0000000 0.0000000 0.0000000
v 4.5500002 4.5500002 4.5500002
vn 0.0000000 0.0000000 0.0000000
v 4.5500002 4.5500002 4.5500002
vn 0.0000000 0.0000000 0.0000000
v 4.5500002 4.5500002 4.5500002
vn 0.0000000 0.0000000 0.0000000
v 4.6000004 4.6000004 4.6000004
vn 0.0000000 0.0000000 0.0000000
v 4.6000004 4.6000004 4.6000004
vn 0.0000000 0.0000000 0.0000000
v 4.6000004 4.6000004 4.6000004
vn 0.0000000 0.0000000 0.0000000
v 4.6000004 4.6000004 4.6000004
vn 0.0000000 0.0000000 0.0000000
v 4.6000004 4.6000004 4.6000004
vn 0.0000000 0.0000000 0.0000000
v 4.6000004 4.6000004 4.6000004
vn 0.0000000 0.0000000 0.0000000
v 4.6500006 4.6500006 4.6500006
vn 0.0000000 0.0000000 0.0000000
v 4.6500006 4.6500006 4.6500006
vn 0.0000000 0.0000000 0.0000000
v 4.6500006 4.6500006 4.6500006
vn 0.0000000 0.0000000 0.0000000
v 4.6500006 4.6500006 4.6500006
vn 0.0000000 0.0000000 0.0000000
v 4.6500006 4.6500006 4.6500006
vn 0.0000000 0.0000000 0.0000000
v 4.6500006 4.6500006 4.6500006
vn 0.0000000 0.0000000 0.0000000
v 4.8000002 4.8000002 4.8000002
vn 0.0000000 0.0000000 0.0000000
v 4.8000002 4.8000002 4.8000002
vn 0.0000000 0.0000000 0.0000000
v 4.8000002 4.8000002 4.8000002
vn 0.0000000 0.0000000 0.0000000
v 4.8000002 4.8000002 4.8000002
vn 0.0000000 0.0000000 0.0000000
v 4.8000002 4.8000002 4.8000002
vn 0.0000000 0.0000000 0.0000000
v 4.8000002 4.8000002 4.8000002
vn 0.0000000 0.0000000 0.0000000
v 4.9000006 4.9000006 4.9000006
vn 0.0000000 0.0000000 0.0000000
v 4.9000006 4.9000006 4.9000006
vn 0.0000000 0.0000000 0.0000000
v 4.9000006 4.9000006 4.9000006
# 846 vertices, 0 vertices normals

f 1//1 2//2 3//3
f 4//4 5//5 6//6
f 6//6 7//7 4//4
f 6//6 5//5 8//8
f 6//6 8//8 7//7
f 5//5 4//4 9//9
f 4//4 7//7 9//9
f 8//8 5//5 9//9
f 9//9 7//7 8//8
f 10//10 11//11 12//12
f 12//12 13//13 10//10
f 12//12 11//11 14//14
f 12//12 14//14 13//13
f 11//11 10//10 15//15
f 10//10 13//13 15//15
f 14//14 11//11 15//15
f 15//15 13//13 14//14
f 16//16 17//17 18//18
f 18//18 19//19 16//16
f 18//18 17//17 20//20
f 18//18 20//20 19//19
f 17//17 16//16 21//21
f 16//16 19//19 21//21
f 20//20 17//17 21//21
f 21//21 19//19 20//20
f 22//22 23//23 24//24
f 24//24 25//25 22//22
f 24//24 23//23 26//26
f 24//24 26//26 25//25
f 23//23 22//22 27//27
f 22//22 25//25 27//27
f 26//26 23//23 27//27
f 27//27 25//25 26//26
f 28//28 29//29 30//30
f 30//30 31//31 28//28
f 30//30 29//29 32//32
f 30//30 32//32 31//31
f 29//29 28//28 33//33
f 28//28 31//31 33//33
f 32//32 29//29 33//33
f 33//33 31//31 32//32
f 34//34 35//35 36//36
f 36//36 37//37 34//34
f 36//36 35//35 38//38
f 36//36 38//38 37//37
f 35//35 34//34 39//39
f 34//34 37//37 39//39
f 38//38 35//35 39//39
f 39//39 37//37 38//38
f 40//40 41//41 42//42
f 42//42 43//43 40//40
f 42//42 41//41 44//44
f 42//42 44//44 43//43
f 41//41 40//40 45//45
f 40//40 43//43 45//45
f 44//44 41//41 45//45
f 45//45 43//43 44//44
f 46//46 47//47 48//48
f 48//48 49//49 46//46
f 48//48 47//47 50//50
f 48//48 50//50 49//49
f 47//47 46//46 51//51
f 46//46 49//49 51//51
f 50//50 47//47 51//51
f 50//50 51//51 49//49
f 52//52 53//53 54//54
f 53//53 55//55 54//54
f 53//53 52//52 56//56
f 53//53 56//56 55//55
f 52//52 54//54 57//57
f 54//54 55//55 57//57
f 56//56 52//52 57//57
f 57//57 55//55 56//56
f 58//58 59//59 60//60
f 60//60 61//61 58//58
f 60//60 59//59 62//62
f 60//60 62//62 61//61
f 59//59 58//58 63//63
f 58//58 61//61 63//63
f 62//62 59//59 63//63
f 62//62 63//63 61//61
f 64//64 65//65 66//66
f 65//65 67//67 66//66
f 65//65 64//64 68//68
f 65//65 68//68 67//67
f 64//64 66//66 69//69
f 66//66 67//67 69//69
f 68//68 64//64 69//69
f 68//68 69//69 67//67
f 70//70 71//71 72//72
f 71//71 73//73 72//72
f 71//71 70//70 74//74
f 71//71 74//74 73//73
f 70//70 72//72 75//75
f 72//72 73//73 75//75
f 74//74 70//70 75//75
f 75//75 73//73 74//74
f 76//76 77//77 78//78
f 78//78 79//79 76//76
f 78//78 77//77 80//80
f 78//78 80//80 79//79
f 77//77 76//76 81//81
f 76//76 79//79 81//81
f 80//80 77//77 81//81
f 81//81 79//79 80//80
f 82//82 83//83 84//84
f 84//84 85//85 82//82
f 84//84 83//83 86//86
f 84//84 86//86 85//85
f 83//83 82//82 87//87
f 82//82 85//85 87//87
f 86//86 83//83 87//87
f 86//86 87//87 85//85
f 88//88 89//89 90//90
f 89//89 91//91 90//90
f 89//89 88//88 92//92
f 89//89 92//92 91//91
f 88//88 90//90 93//93
f 90//90 91//91 93//93
f 92//92 88//88 93//93
f 93//93 91//91 92//92
f 94//94 95//95 96//96
f 96//96 97//97 94//94
f 96//96 95//95 98//98
f 96//96 98//98 97//97
f 95//95 94//94 99//99
f 94//94 97//97 99//99
f 98//98 95//95 99//99
f 98//98 99//99 97//97
f 100//100 101//101 102//102
f 101//101 103//103 102//102
f 101//101 100//100 104//104
f 101//101 104//104 103//103
f 100//100 102//102 105//105
f 102//102 103//103 105//105
f 104//104 100//100 105//105
f 105//105 103//103 104//104
f 106//106 107//107 108//108
f 108//108 109//109 106//106
f 108//108 107//107 110//110
f 108//108 110//110 109//109
f 107//107 106//106 111//111
f 106//106 109//109 111//111
f 110//110 107//107 111//111
f 110//110 111//111 109//109
f 112//112 113//113 114//114
f 113//113 115//115 114//114
f 113//113 112//112 116//116
f 113//113 116//116 115//115
f 112//112 114//114 117//117
f 114//114 115//115 117//117
f 116//116 112//112 117//117
f 117//117 115//115 116//116
f 118//118 119//119 120//120
f 120//120 121//121 118//118
f 120//120 119//119 122//122
f 120//120 122//122 121//121
f 119//119 118//118 123//123
f 118//118 121//121 123//123
f 122//122 119//119 123//123
f 122//122 123//123 121//121
f 124//124 125//125 126//126
f 125//125 127//127 126//126
f 125//125 124//124 128//128
f 125//125 128//128 127//127
f 124//124 126//126 129//129
f 126//126 127//127 129//129
f 128//128 124//124 129//129
f 128//128 129//129 127//127
f 130//130 131//131 132//132
f 131//131 133//133 132//132
f 131//131 130//130 134//134
f 131//131 134//134 133//133
f 130//130 132//132 135//135
f 132//132 133//133 135//135
f 134//134 130//130 135//135
f 135//135 133//133 134//134
f 136//136 137//137 138//138
f 138//138 139//139 136//136
f 138//138 137//137 140//140
f 138//138 140//140 139//139
f 137//137 136//136 141//141
f 136//136 139//139 141//141
f 140//140 137//137 141//141
f 140//140 141//141 139//139
f 142//142 143//143 144//144
f 143//143 145//145 144//144
f 143//143 142//142 146//146
f 143//143 146//146 145//145
f 142//142 144//144 147//147
f 144//144 145//145 147//147
f 146//146 142//142 147//147
f 147//147 145//145 146//146
f 148//148 149//149 150//150
f 150//150 151//151 148//148
f 150//150 149//149 152//152
f 150//150 152//152 151//151
f 149//149 148//148 153//153
f 148//148 151//151 153//153
f 152//152 149//149 153//153
f 153//153 151//151 152//152
f 154//154 155//155 156//156
f 156//156 157//157 154//154
f 156//156 155//155 158//158
f 156//156 158//158 157//157
f 155//155 154//154 159//159
f 154//154 157//157 159//159
f 158//158 155//155 159//159
f 159//159 157//157 158//158
f 160//160 161//161 162//162
f 162//162 163//163 160//160
f 162//162 161//161 164//164
f 162//162 164//164 163//163
f 161//161 160//160 165//165
f 160//160 163//163 165//165
f 164//164 161//161 165//165
f 165//165 163//163 164//164
f 166//166 167//167 168//168
f 168//168 169//169 166//166
f 168//168 167//167 170//170
f 168//168 170//170 169//169
f 167//167 166//166 171//171
f 166//166 169//169 171//171
f 170//170 167//167 171//171
f 171//171 169//169 170//170
f 172//172 173//173 174//174
f 174//174 175//175 172//172
f 174//174 173//173 176//176
f 174//174 176//176 175//175
f 173//173 172//172 177//177
f 172//172 175//175 177//177
f 176//176 173//173 177//177
f 176//176 177//177 175//175
f 178//178 179//179 180//180
f 179//179 181//181 180//180
f 179//179 178//178 182//182
f 179//179 182//182 181//181
f 178//178 180//180 183//183
f 180//180 181//181 183//183
f 182//182 178//178 183//183
f 183//183 181//181 182//182
f 184//184 185//185 186//186
f 186//186 187//187 184//184
f 186//186 185//185 188//188
f 186//186 188//188 187//187
f 185//185 184//184 189//189
f 184//184 187//187 189//189
f 188//188 185//185 189//189
f 188//188 189//189 187//187
f 190//190 191//191 192//192
f 191//191 193//193 192//192
f 191//191 190//190 194//194
f 191//191 194//194 193//193
f 190//190 192//192 195//195
f 192//192 193//193 195//195
f 194//194 190//190 195//195
f 194//194 195//195 193//193
f 196//196 197//197 198//198
f 197//197 199//199 198//198
f 197//197 196//196 200//200
f 197//197 200//200 199//199
f 196//196 198//198 201//201
f 198//198 199//199 201//201
f 200//200 196//196 201//201
f 200//200 201//201 199//199
f 202//202 203//203 204//204
f 203//203 205//205 204//204
f 203//203 202//202 206//206
f 203//203 206//206 205//205
f 202//202 204//204 207//207
f 204//204 205//205 207//207
f 206//206 202//202 207//207
f 207//207 205//205 206//206
f 208//208 209//209 210//210
f 210//210 211//211 208//208
f 210//210 209//209 212//212
f 210//210 212//212 211//211
f 209//209 208//208 213//213
f 208//208 211//211 213//213
f 212//212 209//209 213//213
f 213//213 211//211 212//212
f 214//214 215//215 216//216
f 216//216 217//217 214//214
f 216//216 215//215 218//218
f 216//216 218//218 217//217
f 215//215 214//214 219//219
f 214//214 217//217 219//219
f 218//218 215//215 219//219
f 218//218 219//219 217//217
f 220//220 221//221 222//222
f 221//221 223//223 222//222
f 221//221 220//220 224//224
f 221//221 224//224 223//223
f 220//220 222//222 225//225
f 222//222 223//223 225//225
f 224//224 220//220 225//225
f 225//225 223//223 224//224
f 226//226 227//227 228//228
f 228//228 229//229 226//226
f 228//228 227//227 230//230
f 228//228 230//230 229//229
f 227//227 226//226 231//231
f 226//226 229//229 231//231
f 230//230 227//227 231//231
f 231//231 229//229 230//230
f 232//232 233//233 234//234
f 234//234 235//235 232//232
f 234//234 233//233 236//236
f 234//234 236//236 235//235
f 233//233 232//232 237//237
f 232//232 235//235 237//237
f 236//236 233//233 237//237
f 236//236 237//237 235//235
f 238//238 239//239 240//240
f 239//239 241//241 240//240
f 239//239 238//238 242//242
f 239//239 242//242 241//241
f 238//238 240//240 243//243
f 240//240 241//241 243//243
f 242//242 238//238 243//243
f 243//243 241//241 242//242
f 244//244 245//245 246//246
f 246//246 247//247 244//244
f 246//246 245//245 248//248
f 246//246 248//248 247//247
f 245//245 244//244 249//249
f 244//244 247//247 249//249
f 248//248 245//245 249//249
f 249//249 247//247 248//248
f 250//250 251//251 252//252
f 252//252 253//253 250//250
f 252//252 251//251 254//254
f 252//252 254//254 253//253
f 251//251 250//250 255//255
f 250//250 253//253 255//255
f 254//254 251//251 255//255
f 254//254 255//255 253//253
f 256//256 257//257 258//258
f 257//257 259//259 258//258
f 257//257 256//256 260//260
f 257//257 260//260 259//259
f 256//256 258//258 261//261
f 258//258 259//259 261//261
f 260//260 256//256 261//261
f 261//261 259//259 260//260
f 262//262 263//263 264//264
f 264//264 265//265 262//262
f 264//264 263//263 266//266
f 264//264 266//266 265//265
f 263//263 262//262 267//267
f 262//262 265//265 267//267
f 266//266 263//263 267//267
f 267//267 265//265 266//266
f 268//268 269//269 270//270
f 270//270 271//271 268//268
f 270//270 269//269 272//272
f 270//270 272//272 271//271
f 269//269 268//268 273//273
f 268//268 271//271 273//273
f 272//272 269//269 273//273
f 273//273 271//271 272//272
f 274//274 275//275 276//276
f 276//276 277//277 274//274
f 276//276 275//275 278//278
f 276//276 278//278 277//277
f 275//275 274//274 279//279
f 274//274 277//277 279//279
f 278//278 275//275 279//279
f 279//279 277//277 278//278
f 280//280 281//281 282//282
f 282//282 283//283 280//280
f 282//282 281//281 284//284
f 282//282 284//284 283//283
f 281//281 280//280 285//285
f 280//280 283//283 285//285
f 284//284 281//281 285//285
f 284//284 285//285 283//283
f 286//286 287//287 288//288
f 287//287 289//289 288//288
f 287//287 286//286 290//290
f 287//287 290//290 289//289
f 286//286 288//288 291//291
f 288//288 289//289 291//291
f 290//290 286//286 291//291
f 291//291 289//289 290//290
f 292//292 293//293 294//294
f 294//294 295//295 292//292
f 294//294 293//293 296//296
f 294//294 296//296 295//295
f 293//293 292//292 297//297
f 292//292 295//295 297//297
f 296//296 293//293 297//297
f 297//297 295//295 296//296
f 298//298 299//299 300//300
f 300//300 301//301 298//298
f 300//300 299//299 302//302
f 300//300 302//302 301//301
f 299//299 298//298 303//303
f 298//298 301//301 303//303
f 302//302 299//299 303//303
f 302//302 303//303 301//301
f 304//304 305//305 306//306
f 305//305 307//307 306//306
f 305//305 304//304 308//308
f 305//305 308//308 307//307
f 304//304 306//306 309//309
f 306//306 307//307 309//309
f 308//308 304//304 309//309
f 309//309 307//307 308//308
f 310//310 311//311 312//312
f 312//312 313//313 310//310
f 312//312 311//311 314//314
f 312//312 314//314 313//313
f 311//311 310//310 315//315
f 310//310 313//313 315//315
f 314//314 311//311 315//315
f 314//314 315//315 313//313
f 316//316 317//317 318//318
f 317//317 319//319 318//318
f 317//317 316//316 320//320
f 317//317 320//320 319//319
f 316//316 318//318 321//321
f 318//318 319//319 321//321
f 320//320 316//316 321//321
f 321//321 319//319 320//320
f 322//322 323//323 324//324
f 324//324 325//325 322//322
f 324//324 323//323 326//326
f 324//324 326//326 325//325
f 323//323 322//322 327//327
f 322//322 325//325 327//327
f 326//326 323//323 327//327
f 326//326 327//327 325//325
f 328//328 329//329 330//330
f 329//329 331//331 330//330
f 329//329 328//328 332//332
f 329//329 332//332 331//331
f 328//328 330//330 333//333
f 330//330 331//331 333//333
f 332//332 328//328 333//333
f 333//333 331//331 332//332
f 334//334 335//335 336//336
f 336//336 337//337 334//334
f 336//336 335//335 338//338
f 336//336 338//338 337//337
f 335//335 334//334 339//339
f 334//334 337//337 339//339
f 338//338 335//335 339//339
f 339//339 337//337 338//338
f 340//340 341//341 342//342
f 342//342 343//343 340//340
f 342//342 341//341 344//344
f 342//342 344//344 343//343
f 341//341 340//340 345//345
f 340//340 343//343 345//345
f 344//344 341//341 345//345
f 345//345 343//343 344//344
f 346//346 347//347 348//348
f 348//348 349//349 346//346
f 348//348 347//347 350//350
f 348//348 350//350 349//349
f 347//347 346//346 351//351
f 346//346 349//349 351//351
f 350//350 347//347 351//351
f 351//351 349//349 350//350
f 352//352 353//353 354//354
f 354//354 355//355 352//352
f 354//354 353//353 356//356
f 354//354 356//356 355//355
f 353//353 352//352 357//357
f 352//352 355//355 357//357
f 356//356 353//353 357//357
f 356//356 357//357 355//355
f 358//358 359//359 360//360
f 359//359 361//361 360//360
f 359//359 358//358 362//362
f 359//359 362//362 361//361
f 358//358 360//360 363//363
f 360//360 361//361 363//363
f 362//362 358//358 363//363
f 363//363 361//361 362//362
f 364//364 365//365 366//366
f 366//366 367//367 364//364
f 366//366 365//365 368//368
f 366//366 368//368 367//367
f 365//365 364//364 369//369
f 364//364 367//367 369//369
f 368//368 365//365 369//369
f 368//368 369//369 367//367
f 370//370 371//371 372//372
f 371//371 373//373 372//372
f 371//371 370//370 374//374
f 371//371 374//374 373//373
f 370//370 372//372 375//375
f 372//372 373//373 375//375
f 374//374 370//370 375//375
f 375//375 373//373 374//374
f 376//376 377//377 378//378
f 378//378 379//379 376//376
f 378//378 377//377 380//380
f 378//378 380//380 379//379
f 377//377 376//376 381//381
f 376//376 379//379 381//381
f 380//380 377//377 381//381
f 381//381 379//379 380//380
f 382//382 383//383 384//384
f 384//384 385//385 382//382
f 384//384 383//383 386//386
f 384//384 386//386 385//385
f 383//383 382//382 387//387
f 382//382 385//385 387//387
f 386//386 383//383 387//387
f 387//387 385//385 386//386
f 388//388 389//389 390//390
f 390//390 391//391 388//388
f 390//390 389//389 392//392
f 390//390 392//392 391//391
f 389//389 388//388 393//393
f 388//388 391//391 393//393
f 392//392 389//389 393//393
f 392//392 393//393 391//391
f 394//394 395//395 396//396
f 395//395 397//397 396//396
f 395//395 394//394 398//398
f 395//395 398//398 397//397
f 394//394 396//396 399//399
f 396//396 397//397 399//399
f 398//398 394//394 399//399
f 399//399 397//397 398//398
f 400//400 401//401 402//402
f 402//402 403//403 400//400
f 402//402 401//401 404//404
f 402//402 404//404 403//403
f 401//401 400//400 405//405
f 400//400 403//403 405//405
f 404//404 401//401 405//405
f 405//405 403//403 404//404
f 406//406 407//407 408//408
f 408//408 409//409 406//406
f 408//408 407//407 410//410
f 408//408 410//410 409//409
f 407//407 406//406 411//411
f 406//406 409//409 411//411
f 410//410 407//407 411//411
f 411//411 409//409 410//410
f 412//412 413//413 414//414
f 414//414 415//415 412//412
f 414//414 413//413 416//416
f 414//414 416//416 415//415
f 413//413 412//412 417//417
f 412//412 415//415 417//417
f 416//416 413//413 417//417
f 417//417 415//415 416//416
f 418//418 419//419 420//420
f 420//420 421//421 418//418
f 420//420 419//419 422//422
f 420//420 422//422 421//421
f 419//419 418//418 423//423
f 418//418 421//421 423//423
f 422//422 419//419 423//423
f 423//423 421//421 422//422
f 424//424 425//425 426//426
f 426//426 427//427 424//424
f 426//426 425//425 428//428
f 426//426 428//428 427//427
f 425//425 424//424 429//429
f 424//424 427//427 429//429
f 428//428 425//425 429//429
f 429//429 427//427 428//428
f 430//430 431//431 432//432
f 432//432 433//433 430//430
f 432//432 431//431 434//434
f 432//432 434//434 433//433
f 431//431 430//430 435//435
f 430//430 433//433 435//435
f 434//434 431//431 435//435
f 435//435 433//433 434//434
f 436//436 437//437 438//438
f 438//438 439//439 436//436
f 438//438 437//437 440//440
f 438//438 440//440 439//439
f 437//437 436//436 441//441
f 436//436 439//439 441//441
f 440//440 437//437 441//441
f 440//440 441//441 439//439
f 442//442 443//443 444//444
f 443//443 445//445 444//444
f 443//443 442//442 446//446
f 443//443 446//446 445//445
f 442//442 444//444 447//447
f 444//444 445//445 447//447
f 446//446 442//442 447//447
f 447//447 445//445 446//446
f 448//448 449//449 450//450
f 450//450 451//451 448//448
f 450//450 449//449 452//452
f 450//450 452//452 451//451
f 449//449 448//448 453//453
f 448//448 451//451 453//453
f 452//452 449//449 453//453
f 453//453 451//451 452//452
f 454//454 455//455 456//456
f 456//456 457//457 454//454
f 456//456 455//455 458//458
f 456//456 458//458 457//457
f 455//455 454//454 459//459
f 454//454 457//457 459//459
f 458//458 455//455 459//459
f 458//458 459//459 457//457
f 460//460 461//461 462//462
f 461//461 463//463 462//462
f 461//461 460//460 464//464
f 461//461 464//464 463//463
f 460//460 462//462 465//465
f 462//462 463//463 465//465
f 464//464 460//460 465//465
f 465//465 463//463 464//464
f 466//466 467//467 468//468
f 468//468 469//469 466//466
f 468//468 467//467 470//470
f 468//468 470//470 469//469
f 467//467 466//466 471//471
f 466//466 469//469 471//471
f 470//470 467//467 471//471
f 470//470 471//471 469//469
f 472//472 473//473 474//474
f 473//473 475//475 474//474
f 473//473 472//472 476//476
f 473//473 476//476 475//475
f 472//472 474//474 477//477
f 474//474 475//475 477//477
f 476//476 472//472 477//477
f 477//477 475//475 476//476
f 478//478 479//479 480//480
f 480//480 481//481 478//478
f 480//480 479//479 482//482
f 480//480 482//482 481//481
f 479//479 478//478 483//483
f 478//478 481//481 483//483
f 482//482 479//479 483//483
f 482//482 483//483 481//481
f 484//484 485//485 486//486
f 485//485 487//487 486//486
f 485//485 484//484 488//488
f 485//485 488//488 487//487
f 484//484 486//486 489//489
f 486//486 487//487 489//489
f 488//488 484//484 489//489
f 488//488 489//489 487//487
f 490//490 491//491 492//492
f 491//491 493//493 492//492
f 491//491 490//490 494//494
f 491//491 494//494 493//493
f 490//490 492//492 495//495
f 492//492 493//493 495//495
f 494//494 490//490 495//495
f 495//495 493//493 494//494
f 496//496 497//497 498//498
f 498//498 499//499 496//496
f 498//498 497//497 500//500
f 498//498 500//500 499//499
f 497//497 496//496 501//501
f 496//496 499//499 501//501
f 500//500 497//497 501//501
f 501//501 499//499 500//500
f 502//502 503//503 504//504
f 504//504 505//505 502//502
f 504//504 503//503 506//506
f 504//504 506//506 505//505
f 503//503 502//502 507//507
f 502//502 505//505 507//507
f 506//506 503//503 507//507
f 507//507 505//505 506//506
f 508//508 509//509 510//510
f 510//510 511//511 508//508
f 510//510 509//509 512//512
f 510//510 512//512 511//511
f 509//509 508//508 513//513
f 508//508 511//511 513//513
f 512//512 509//509 513//513
f 513//513 511//511 512//512
f 514//514 515//515 516//516
f 516//516 517//517 514//514
f 516//516 515//515 518//518
f 516//516 518//518 517//517
f 515//515 514//514 519//519
f 514//514 517//517 519//519
f 518//518 515//515 519//519
f 519//519 517//517 518//518
f 520//520 521//521 522//522
f 522//522 523//523 520//520
f 522//522 521//521 524//524
f 522//522 524//524 523//523
f 521//521 520//520 525//525
f 520//520 523//523 525//525
f 524//524 521//521 525//525
f 524//524 525//525 523//523
f 526//526 527//527 528//528
f 527//527 529//529 528//528
f 527//527 526//526 530//530
f 527//527 530//530 529//529
f 526//526 528//528 531//531
f 528//528 529//529 531//531
f 530//530 526//526 531//531
f 531//531 529//529 530//530
f 532//532 533//533 534//534
f 534//534 535//535 532//532
f 534//534 533//533 536//536
f 534//534 536//536 535//535
f 533//533 532//532 537//537
f 532//532 535//535 537//537
f 536//536 533//533 537//537
f 536//536 537//537 535//535
f 538//538 539//539 540//540
f 539//539 541//541 540//540
f 539//539 538//538 542//542
f 539//539 542//542 541//541
f 538//538 540//540 543//543
f 540//540 541//541 543//543
f 542//542 538//538 543//543
f 543//543 541//541 542//542
f 544//544 545//545 546//546
f 546//546 547//547 544//544
f 546//546 545//545 548//548
f 546//546 548//548 547//547
f 545//545 544//544 549//549
f 544//544 547//547 549//549
f 548//548 545//545 549//549
f 549//549 547//547 548//548
f 550//550 551//551 552//552
f 552//552 553//553 550//550
f 552//552 551//551 554//554
f 552//552 554//554 553//553
f 551//551 550//550 555//555
f 550//550 553//553 555//555
f 554//554 551//551 555//555
f 555//555 553//553 554//554
f 556//556 557//557 558//558
f 558//558 559//559 556//556
f 558//558 557//557 560//560
f 558//558 560//560 559//559
f 557//557 556//556 561//561
f 556//556 559//559 561//561
f 560//560 557//557 561//561
f 561//561 559//559 560//560
f 562//562 563//563 564//564
f 564//564 565//565 562//562
f 564//564 563//563 566//566
f 564//564 566//566 565//565
f 563//563 562//562 567//567
f 562//562 565//565 567//567
f 566//566 563//563 567//567
f 567//567 565//565 566//566
f 568//568 569//569 570//570
f 570//570 571//571 568//568
f 570//570 569//569 572//572
f 570//570 572//572 571//571
f 569//569 568//568 573//573
f 568//568 571//571 573//573
f 572//572 569//569 573//573
f 573//573 571//571 572//572
f 574//574 575//575 576//576
f 576//576 577//577 574//574
f 576//576 575//575 578//578
f 576//576 578//578 577//577
f 575//575 574//574 579//579
f 574//574 577//577 579//579
f 578//578 575//575 579//579
f 579//579 577//577 578//578
f 580//580 581//581 582//582
f 582//582 583//583 580//580
f 582//582 581//581 584//584
f 582//582 584//584 583//583
f 581//581 580//580 585//585
f 580//580 583//583 585//585
f 584//584 581//581 585//585
f 584//584 585//585 583//583
f 586//586 587//587 588//588
f 587//587 589//589 588//588
f 587//587 586//586 590//590
f 587//587 590//590 589//589
f 586//586 588//588 591//591
f 588//588 589//589 591//591
f 590//590 586//586 591//591
f 591//591 589//589 590//590
f 592//592 593//593 594//594
f 594//594 595//595 592//592
f 594//594 593//593 596//596
f 594//594 596//596 595//595
f 593//593 592//592 597//597
f 592//592 595//595 597//597
f 596//596 593//593 597//597
f 597//597 595//595 596//596
f 598//598 599//599 600//600
f 600//600 601//601 598//598
f 600//600 599//599 602//602
f 600//600 602//602 601//601
f 599//599 598//598 603//603
f 598//598 601//601 603//603
f 602//602 599//599 603//603
f 602//602 603//603 601//601
f 604//604 605//605 606//606
f 605//605 607//607 606//606
f 605//605 604//604 608//608
f 605//605 608//608 607//607
f 604//604 606//606 609//609
f 606//606 607//607 609//609
f 608//608 604//604 609//609
f 609//609 607//607 608//608
f 610//610 611//611 612//612
f 612//612 613//613 610//610
f 612//612 611//611 614//614
f 612//612 614//614 613//613
f 611//611 610//610 615//615
f 610//610 613//613 615//615
f 614//614 611//611 615//615
f 615//615 613//613 614//614
f 616//616 617//617 618//618
f 618//618 619//619 616//616
f 618//618 617//617 620//620
f 618//618 620//620 619//619
f 617//617 616//616 621//621
f 616//616 619//619 621//621
f 620//620 617//617 621//621
f 621//621 619//619 620//620
f 622//622 623//623 624//624
f 624//624 625//625 622//622
f 624//624 623//623 626//626
f 624//624 626//626 625//625
f 623//623 622//622 627//627
f 622//622 625//625 627//627
f 626//626 623//623 627//627
f 626//626 627//627 625//625
f 628//628 629//629 630//630
f 629//629 631//631 630//630
f 629//629 628//628 632//632
f 629//629 632//632 631//631
f 628//628 630//630 633//633
f 630//630 631//631 633//633
f 632//632 628//628 633//633
f 632//632 633//633 631//631
f 634//634 635//635 636//636
f 635//635 637//637 636//636
f 635//635 634//634 638//638
f 635//635 638//638 637//637
f 634//634 636//636 639//639
f 636//636 637//637 639//639
f 638//638 634//634 639//639
f 638//638 639//639 637//637
f 640//640 641//641 642//642
f 641//641 643//643 642//642
f 641//641 640//640 644//644
f 641//641 644//644 643//643
f 640//640 642//642 645//645
f 642//642 643//643 645//645
f 644//644 640//640 645//645
f 644//644 645//645 643//643
f 646//646 647//647 648//648
f 647//647 649//649 648//648
f 647//647 646//646 650//650
f 647//647 650//650 649//649
f 646//646 648//648 651//651
f 648//648 649//649 651//651
f 650//650 646//646 651//651
f 651//651 649//649 650//650
f 652//652 653//653 654//654
f 654//654 655//655 652//652
f 654//654 653//653 656//656
f 654//654 656//656 655//655
f 653//653 652//652 657//657
f 652//652 655//655 657//657
f 656//656 653//653 657//657
f 657//657 655//655 656//656
f 658//658 659//659 660//660
f 660//660 661//661 658//658
f 660//660 659//659 662//662
f 660//660 662//662 661//661
f 659//659 658//658 663//663
f 658//658 661//661 663//663
f 662//662 659//659 663//663
f 662//662 663//663 661//661
f 664//664 665//665 666//666
f 665//665 667//667 666//666
f 665//665 664//664 668//668
f 665//665 668//668 667//667
f 664//664 666//666 669//669
f 666//666 667//667 669//669
f 668//668 664//664 669//669
f 669//669 667//667 668//668
f 670//670 671//671 672//672
f 672//672 673//673 670//670
f 672//672 671//671 674//674
f 672//672 674//674 673//673
f 671//671 670//670 675//675
f 670//670 673//673 675//675
f 674//674 671//671 675//675
f 674//674 675//675 673//673
f 676//676 677//677 678//678
f 677//677 679//679 678//678
f 677//677 676//676 680//680
f 677//677 680//680 679//679
f 676//676 678//678 681//681
f 678//678 679//679 681//681
f 680//680 676//676 681//681
f 681//681 679//679 680//680
f 682//682 683//683 684//684
f 684//684 685//685 682//682
f 684//684 683//683 686//686
f 684//684 686//686 685//685
f 683//683 682//682 687//687
f 682//682 685//685 687//687
f 686//686 683//683 687//687
f 687//687 685//685 686//686
f 688//688 689//689 690//690
f 690//690 691//691 688//688
f 690//690 689//689 692//692
f 690//690 692//692 691//691
f 689//689 688//688 693//693
f 688//688 691//691 693//693
f 692//692 689//689 693//693
f 693//693 691//691 692//692
f 694//694 695//695 696//696
f 696//696 697//697 694//694
f 696//696 695//695 698//698
f 696//696 698//698 697//697
f 695//695 694//694 699//699
f 694//694 697//697 699//699
f 698//698 695//695 699//699
f 698//698 699//699 697//697
f 700//700 701//701 702//702
f 701//701 703//703 702//702
f 701//701 700//700 704//704
f 701//701 704//704 703//703
f 700//700 702//702 705//705
f 702//702 703//703 705//705
f 704//704 700//700 705//705
f 705//705 703//703 704//704
f 706//706 707//707 708//708
f 708//708 709//709 706//706
f 708//708 707//707 710//710
f 708//708 710//710 709//709
f 707//707 706//706 711//711
f 706//706 709//709 711//711
f 710//710 707//707 711//711
f 711//711 709//709 710//710
f 712//712 713//713 714//714
f 714//714 715//715 712//712
f 714//714 713//713 716//716
f 714//714 716//716 715//715
f 713//713 712//712 717//717
f 712//712 715//715 717//717
f 716//716 713//713 717//717
f 716//716 717//717 715//715
f 718//718 719//719 720//720
f 719//719 721//721 720//720
f 719//719 718//718 722//722
f 719//719 722//722 721//721
f 718//718 720//720 723//723
f 720//720 721//721 723//723
f 722//722 718//718 723//723
f 723//723 721//721 722//722
f 724//724 725//725 726//726
f 726//726 727//727 724//724
f 726//726 725//725 728//728
f 726//726 728//728 727//727
f 725//725 724//724 729//729
f 724//724 727//727 729//729
f 728//728 725//725 729//729
f 729//729 727//727 728//728
f 730//730 731//731 732//732
f 732//732 733//733 730//730
f 732//732 731//731 734//734
f 732//732 734//734 733//733
f 731//731 730//730 735//735
f 730//730 733//733 735//735
f 734//734 731//731 735//735
f 735//735 733//733 734//734
f 736//736 737//737 738//738
f 738//738 739//739 736//736
f 738//738 737//737 740//740
f 738//738 740//740 739//739
f 737//737 736//736 741//741
f 736//736 739//739 741//741
f 740//740 737//737 741//741
f 741//741 739//739 740//740
f 742//742 743//743 744//744
f 744//744 745//745 742//742
f 744//744 743//743 746//746
f 744//744 746//746 745//745
f 743//743 742//742 747//747
f 742//742 745//745 747//747
f 746//746 743//743 747//747
f 747//747 745//745 746//746
f 748//748 749//749 750//750
f 750//750 751//751 748//748
f 750//750 749//749 752//752
f 750//750 752//752 751//751
f 749//749 748//748 753//753
f 748//748 751//751 753//753
f 752//752 749//749 753//753
f 753//753 751//751 752//752
f 754//754 755//755 756//756
f 756//756 757//757 754//754
f 756//756 755//755 758//758
f 756//756 758//758 757//757
f 755//755 754//754 759//759
f 754//754 757//757 759//759
f 758//758 755//755 759//759
f 759//759 757//757 758//758
f 760//760 761//761 762//762
f 762//762 763//763 760//760
f 762//762 761//761 764//764
f 762//762 764//764 763//763
f 761//761 760//760 765//765
f 760//760 763//763 765//765
f 764//764 761//761 765//765
f 765//765 763//763 764//764
f 766//766 767//767 768//768
f 768//768 769//769 766//766
f 768//768 767//767 770//770
f 768//768 770//770 769//769
f 767//767 766//766 771//771
f 766//766 769//769 771//771
f 770//770 767//767 771//771
f 771//771 769//769 770//770
f 772//772 773//773 774//774
f 774//774 775//775 772//772
f 774//774 773//773 776//776
f 774//774 776//776 775//775
f 773//773 772//772 777//777
f 772//772 775//775 777//777
f 776//776 773//773 777//777
f 776//776 777//777 775//775
f 778//778 779//779 780//780
f 779//779 781//781 780//780
f 779//779 778//778 782//782
f 779//779 782//782 781//781
f 778//778 780//780 783//783
f 780//780 781//781 783//783
f 782//782 778//778 783//783
f 783//783 781//781 782//782
f 784//784 785//785 786//786
f 786//786 787//787 784//784
f 786//786 785//785 788//788
f 786//786 788//788 787//787
f 785//785 784//784 789//789
f 784//784 787//787 789//789
f 788//788 785//785 789//789
f 789//789 787//787 788//788
f 790//790 791//791 792//792
f 792//792 793//793 790//790
f 792//792 791//791 794//794
f 792//792 794//794 793//793
f 791//791 790//790 795//795
f 790//790 793//793 795//795
f 794//794 791//791 795//795
f 795//795 793//793 794//794
f 796//796 797//797 798//798
f 798//798 799//799 796//796
f 798//798 797//797 800//800
f 798//798 800//800 799//799
f 797//797 796//796 801//801
f 796//796 799//799 801//801
f 800//800 797//797 801//801
f 801//801 799//799 800//800
f 802//802 803//803 804//804
f 804//804 805//805 802//802
f 804//804 803//803 806//806
f 804//804 806//806 805//805
f 803//803 802//802 807//807
f 802//802 805//805 807//807
f 806//806 803//803 807//807
f 806//806 807//807 805//805
f 808//808 809//809 810//810
f 809//809 811//811 810//810
f 809//809 808//808 812//812
f 809//809 812//812 811//811
f 808//808 810//810 813//813
f 810//810 811//811 813//813
f 812//812 808//808 813//813
f 813//813 811//811 812//812
f 814//814 815//815 816//816
f 816//816 817//817 814//814
f 816//816 815//815 818//818
f 816//816 818//818 817//817
f 815//815 814//814 819//819
f 814//814 817//817 819//819
f 818//818 815//815 819//819
f 819//819 817//817 818//818
f 820//820 821//821 822//822
f 822//822 823//823 820//820
f 822//822 821//821 824//824
f 822//822 824//824 823//823
f 821//821 820//820 825//825
f 820//820 823//823 825//825
f 824//824 821//821 825//825
f 825//825 823//823 824//824
f 826//826 827//827 828//828
f 828//828 829//829 826//826
f 828//828 827//827 830//830
f 828//828 830//830 829//829
f 827//827 826//826 831//831
f 826//826 829//829 831//831
f 830//830 827//827 831//831
f 831//831 829//829 830//830
f 832//832 833//833 834//834
f 834//834 835//835 832//832
f 834//834 833//833 836//836
f 834//834 836//836 835//835
f 833//833 832//832 837//837
f 832//832 835//835 837//837
f 836//836 833//833 837//837
f 836//836 837//837 835//835
f 838//838 839//839 840//840
f 839//839 841//841 840//840
f 839//839 838//838 842//842
f 839//839 842//842 841//841
f 838//838 840//840 843//843
f 840//840 841//841 843//843
f 842//842 838//838 843//843
f 842//842 843//843 841//841
f 844//844 845//845 846//846
# 1122 faces, 0 coords texture

# End of File
