ply
format ascii 1.0
element vertex 978
property float x
property float y
property float z
property uchar red
property uchar green
property uchar blue
element face 1816
property list uchar int vertex_indices
end_header
-0.103448 -0.255172 -0.275862 76 204 255
-0.103448 -0.241379 -0.262069 76 204 255
-0.133005 -0.241379 -0.275862 76 204 255
-0.0689655 -0.266667 -0.275862 76 204 255
-0.0689655 -0.241379 -0.250575 76 204 255
-0.0344828 -0.273563 -0.275862 76 204 255
-0.0344828 -0.241379 -0.243678 76 204 255
-1.37821e-16 -0.275862 -0.275862 76 204 255
0 -0.275862 -0.275862 76 204 255
0 -0.241379 -0.241379 76 204 255
0.0344828 -0.273563 -0.275862 76 204 255
1.35907e-16 -0.275862 -0.275862 76 204 255
0.0344828 -0.241379 -0.243678 76 204 255
0.0689655 -0.266667 -0.275862 76 204 255
0.0689655 -0.241379 -0.250575 76 204 255
0.103448 -0.255172 -0.275862 76 204 255
0.103448 -0.241379 -0.262069 76 204 255
0.133005 -0.241379 -0.275862 76 204 255
-0.172414 -0.214854 -0.275862 76 204 255
-0.172414 -0.206897 -0.268966 76 204 255
-0.181818 -0.206897 -0.275862 76 204 255
-0.137931 -0.238727 -0.275862 76 204 255
-0.137931 -0.206897 -0.248276 76 204 255
-0.103448 -0.217507 -0.241379 76 204 255
-0.123153 -0.206897 -0.241379 76 204 255
-0.0689655 -0.230769 -0.241379 76 204 255
-0.0344828 -0.238727 -0.241379 76 204 255
0 -0.241379 -0.241379 76 204 255
0.0344828 -0.238727 -0.241379 76 204 255
0.0689655 -0.230769 -0.241379 76 204 255
0.103448 -0.217507 -0.241379 76 204 255
0.123153 -0.206897 -0.241379 76 204 255
0.137931 -0.206897 -0.248276 76 204 255
0.137931 -0.238727 -0.275862 76 204 255
0.172414 -0.214854 -0.275862 76 204 255
0.172414 -0.206897 -0.268966 76 204 255
0.181818 -0.206897 -0.275862 76 204 255
-0.206897 -0.181818 -0.275862 76 204 255
-0.206897 -0.172414 -0.268966 76 204 255
-0.214854 -0.172414 -0.275862 76 204 255
-0.172414 -0.172414 -0.243678 76 204 255
-0.137931 -0.197492 -0.241379 76 204 255
-0.168582 -0.172414 -0.241379 76 204 255
0.137931 -0.197492 -0.241379 76 204 255
0.168582 -0.172414 -0.241379 76 204 255
0.172414 -0.172414 -0.243678 76 204 255
0.206897 -0.181818 -0.275862 76 204 255
0.206897 -0.172414 -0.268966 76 204 255
0.214854 -0.172414 -0.275862 76 204 255
-0.206897 -0.137931 -0.248276 76 204 255
-0.238727 -0.137931 -0.275862 76 204 255
-0.172414 -0.168582 -0.241379 76 204 255
-0.197492 -0.137931 -0.241379 76 204 255
0.172414 -0.168582 -0.241379 76 204 255
0.197492 -0.137931 -0.241379 76 204 255
0.206897 -0.137931 -0.248276 76 204 255
0.238727 -0.137931 -0.275862 76 204 255
-0.241379 -0.133005 -0.275862 76 204 255
-0.241379 -0.103448 -0.262069 76 204 255
-0.255172 -0.103448 -0.275862 76 204 255
-0.206897 -0.123153 -0.241379 76 204 255
-0.217507 -0.103448 -0.241379 76 204 255
0.206897 -0.123153 -0.241379 76 204 255
0.217507 -0.103448 -0.241379 76 204 255
0.241379 -0.103448 -0.262069 76 204 255
0.241379 -0.133005 -0.275862 76 204 255
0.255172 -0.103448 -0.275862 76 204 255
-0.241379 -0.0689655 -0.250575 76 204 255
-0.266667 -0.0689655 -0.275862 76 204 255
-0.230769 -0.0689655 -0.241379 76 204 255
0.241379 -0.0689655 -0.250575 76 204 255
0.230769 -0.0689655 -0.241379 76 204 255
0.266667 -0.0689655 -0.275862 76 204 255
-0.241379 -0.0344828 -0.243678 76 204 255
-0.273563 -0.0344828 -0.275862 76 204 255
-0.238727 -0.0344828 -0.241379 76 204 255
0.241379 -0.0344828 -0.243678 76 204 255
0.238727 -0.0344828 -0.241379 76 204 255
0.273563 -0.0344828 -0.275862 76 204 255
-0.275862 0 -0.275862 76 204 255
-0.275862 -1.37821e-16 -0.275862 76 204 255
-0.241379 0 -0.241379 76 204 255
-0.241379 0 -0.241379 76 204 255
0.241379 0 -0.241379 76 204 255
0.241379 0 -0.241379 76 204 255
0.275862 -1.37821e-16 -0.275862 76 204 255
0.275862 0 -0.275862 76 204 255
-0.275862 1.35907e-16 -0.275862 76 204 255
-0.241379 0.0344828 -0.243678 76 204 255
-0.273563 0.0344828 -0.275862 76 204 255
-0.238727 0.0344828 -0.241379 76 204 255
0.241379 0.0344828 -0.243678 76 204 255
0.238727 0.0344828 -0.241379 76 204 255
0.273563 0.0344828 -0.275862 76 204 255
0.275862 1.35907e-16 -0.275862 76 204 255
-0.241379 0.0689655 -0.250575 76 204 255
-0.266667 0.0689655 -0.275862 76 204 255
-0.230769 0.0689655 -0.241379 76 204 255
0.241379 0.0689655 -0.250575 76 204 255
0.230769 0.0689655 -0.241379 76 204 255
0.266667 0.0689655 -0.275862 76 204 255
-0.241379 0.103448 -0.262069 76 204 255
-0.255172 0.103448 -0.275862 76 204 255
-0.217507 0.103448 -0.241379 76 204 255
0.241379 0.103448 -0.262069 76 204 255
0.217507 0.103448 -0.241379 76 204 255
0.255172 0.103448 -0.275862 76 204 255
-0.241379 0.133005 -0.275862 76 204 255
-0.206897 0.123153 -0.241379 76 204 255
-0.206897 0.137931 -0.248276 76 204 255
-0.238727 0.137931 -0.275862 76 204 255
-0.197492 0.137931 -0.241379 76 204 255
0.206897 0.123153 -0.241379 76 204 255
0.206897 0.137931 -0.248276 76 204 255
0.197492 0.137931 -0.241379 76 204 255
0.238727 0.137931 -0.275862 76 204 255
0.241379 0.133005 -0.275862 76 204 255
-0.206897 0.172414 -0.268966 76 204 255
-0.214854 0.172414 -0.275862 76 204 255
-0.172414 0.168582 -0.241379 76 204 255
-0.172414 0.172414 -0.243678 76 204 255
-0.168582 0.172414 -0.241379 76 204 255
0.172414 0.168582 -0.241379 76 204 255
0.172414 0.172414 -0.243678 76 204 255
0.168582 0.172414 -0.241379 76 204 255
0.206897 0.172414 -0.268966 76 204 255
0.214854 0.172414 -0.275862 76 204 255
-0.206897 0.181818 -0.275862 76 204 255
-0.172414 0.206897 -0.268966 76 204 255
-0.181818 0.206897 -0.275862 76 204 255
-0.137931 0.197492 -0.241379 76 204 255
-0.137931 0.206897 -0.248276 76 204 255
-0.123153 0.206897 -0.241379 76 204 255
0.137931 0.197492 -0.241379 76 204 255
0.137931 0.206897 -0.248276 76 204 255
0.123153 0.206897 -0.241379 76 204 255
0.172414 0.206897 -0.268966 76 204 255
0.181818 0.206897 -0.275862 76 204 255
0.206897 0.181818 -0.275862 76 204 255
-0.172414 0.214854 -0.275862 76 204 255
-0.137931 0.238727 -0.275862 76 204 255
-0.103448 0.217507 -0.241379 76 204 255
-0.103448 0.241379 -0.262069 76 204 255
-0.133005 0.241379 -0.275862 76 204 255
-0.0689655 0.230769 -0.241379 76 204 255
-0.0689655 0.241379 -0.250575 76 204 255
-0.0344828 0.238727 -0.241379 76 204 255
-0.0344828 0.241379 -0.243678 76 204 255
0 0.241379 -0.241379 76 204 255
0 0.241379 -0.241379 76 204 255
0.0344828 0.238727 -0.241379 76 204 255
0.0344828 0.241379 -0.243678 76 204 255
0.0689655 0.230769 -0.241379 76 204 255
0.0689655 0.241379 -0.250575 76 204 255
0.103448 0.217507 -0.241379 76 204 255
0.103448 0.241379 -0.262069 76 204 255
0.133005 0.241379 -0.275862 76 204 255
0.137931 0.238727 -0.275862 76 204 255
0.172414 0.214854 -0.275862 76 204 255
-0.103448 0.255172 -0.275862 76 204 255
-0.0689655 0.266667 -0.275862 76 204 255
-0.0344828 0.273563 -0.275862 76 204 255
0 0.275862 -0.275862 76 204 255
-1.37821e-16 0.275862 -0.275862 76 204 255
1.35907e-16 0.275862 -0.275862 76 204 255
0.0344828 0.273563 -0.275862 76 204 255
0.0689655 0.266667 -0.275862 76 204 255
0.103448 0.255172 -0.275862 76 204 255
-0.103448 -0.206897 -0.230769 76 204 255
-0.0689655 -0.206897 -0.217507 76 204 255
-0.0344828 -0.206897 -0.209549 76 204 255
0 -0.206897 -0.206897 76 204 255
0.0344828 -0.206897 -0.209549 76 204 255
0.0689655 -0.206897 -0.217507 76 204 255
0.103448 -0.206897 -0.230769 76 204 255
-0.137931 -0.172414 -0.220159 76 204 255
-0.103448 -0.178683 -0.206897 76 204 255
-0.1133 -0.172414 -0.206897 76 204 255
-0.0689655 -0.194357 -0.206897 76 204 255
-0.0344828 -0.203762 -0.206897 76 204 255
0 -0.206897 -0.206897 76 204 255
0.0344828 -0.203762 -0.206897 76 204 255
0.0689655 -0.194357 -0.206897 76 204 255
0.103448 -0.178683 -0.206897 76 204 255
0.1133 -0.172414 -0.206897 76 204 255
0.137931 -0.172414 -0.220159 76 204 255
-0.172414 -0.137931 -0.220159 76 204 255
-0.137931 -0.153257 -0.206897 76 204 255
-0.153257 -0.137931 -0.206897 76 204 255
0.137931 -0.153257 -0.206897 76 204 255
0.153257 -0.137931 -0.206897 76 204 255
0.172414 -0.137931 -0.220159 76 204 255
-0.206897 -0.103448 -0.230769 76 204 255
-0.172414 -0.1133 -0.206897 76 204 255
-0.178683 -0.103448 -0.206897 76 204 255
0.172414 -0.1133 -0.206897 76 204 255
0.178683 -0.103448 -0.206897 76 204 255
0.206897 -0.103448 -0.230769 76 204 255
-0.206897 -0.0689655 -0.217507 76 204 255
-0.194357 -0.0689655 -0.206897 76 204 255
0.206897 -0.0689655 -0.217507 76 204 255
0.194357 -0.0689655 -0.206897 76 204 255
-0.206897 -0.0344828 -0.209549 76 204 255
-0.203762 -0.0344828 -0.206897 76 204 255
0.206897 -0.0344828 -0.209549 76 204 255
0.203762 -0.0344828 -0.206897 76 204 255
-0.206897 0 -0.206897 76 204 255
-0.206897 0 -0.206897 76 204 255
0.206897 0 -0.206897 76 204 255
0.206897 0 -0.206897 76 204 255
-0.206897 0.0344828 -0.209549 76 204 255
-0.203762 0.0344828 -0.206897 76 204 255
0.206897 0.0344828 -0.209549 76 204 255
0.203762 0.0344828 -0.206897 76 204 255
-0.206897 0.0689655 -0.217507 76 204 255
-0.194357 0.0689655 -0.206897 76 204 255
0.206897 0.0689655 -0.217507 76 204 255
0.194357 0.0689655 -0.206897 76 204 255
-0.206897 0.103448 -0.230769 76 204 255
-0.178683 0.103448 -0.206897 76 204 255
0.206897 0.103448 -0.230769 76 204 255
0.178683 0.103448 -0.206897 76 204 255
-0.172414 0.1133 -0.206897 76 204 255
-0.172414 0.137931 -0.220159 76 204 255
-0.153257 0.137931 -0.206897 76 204 255
0.172414 0.1133 -0.206897 76 204 255
0.172414 0.137931 -0.220159 76 204 255
0.153257 0.137931 -0.206897 76 204 255
-0.137931 0.153257 -0.206897 76 204 255
-0.137931 0.172414 -0.220159 76 204 255
-0.1133 0.172414 -0.206897 76 204 255
0.137931 0.153257 -0.206897 76 204 255
0.137931 0.172414 -0.220159 76 204 255
0.1133 0.172414 -0.206897 76 204 255
-0.103448 0.178683 -0.206897 76 204 255
-0.103448 0.206897 -0.230769 76 204 255
-0.0689655 0.194357 -0.206897 76 204 255
-0.0689655 0.206897 -0.217507 76 204 255
-0.0344828 0.203762 -0.206897 76 204 255
-0.0344828 0.206897 -0.209549 76 204 255
0 0.206897 -0.206897 76 204 255
0 0.206897 -0.206897 76 204 255
0.0344828 0.203762 -0.206897 76 204 255
0.0344828 0.206897 -0.209549 76 204 255
0.0689655 0.194357 -0.206897 76 204 255
0.0689655 0.206897 -0.217507 76 204 255
0.103448 0.178683 -0.206897 76 204 255
0.103448 0.206897 -0.230769 76 204 255
-0.103448 -0.172414 -0.200627 76 204 255
-0.0689655 -0.172414 -0.184953 76 204 255
-0.0344828 -0.172414 -0.175549 76 204 255
0 -0.172414 -0.172414 76 204 255
-1.5792e-17 -0.172414 -0.172414 76 204 255
1.91418e-17 -0.172414 -0.172414 76 204 255
0.0344828 -0.172414 -0.175549 76 204 255
0.0689655 -0.172414 -0.184953 76 204 255
0.103448 -0.172414 -0.200627 76 204 255
-0.137931 -0.137931 -0.194357 76 204 255
-0.103448 -0.137931 -0.172414 76 204 255
-0.103448 -0.137931 -0.172414 76 204 255
-0.0689655 -0.157088 -0.172414 76 204 255
-0.0344828 -0.168582 -0.172414 76 204 255
0.0344828 -0.168582 -0.172414 76 204 255
0.0689655 -0.157088 -0.172414 76 204 255
0.103448 -0.137931 -0.172414 76 204 255
0.103448 -0.137931 -0.172414 76 204 255
0.137931 -0.137931 -0.194357 76 204 255
-0.172414 -0.103448 -0.200627 76 204 255
-0.137931 -0.103448 -0.172414 76 204 255
-0.137931 -0.103448 -0.172414 76 204 255
0.137931 -0.103448 -0.172414 76 204 255
0.137931 -0.103448 -0.172414 76 204 255
0.172414 -0.103448 -0.200627 76 204 255
-0.172414 -0.0689655 -0.184953 76 204 255
-0.157088 -0.0689655 -0.172414 76 204 255
0.172414 -0.0689655 -0.184953 76 204 255
0.157088 -0.0689655 -0.172414 76 204 255
-0.172414 -0.0344828 -0.175549 76 204 255
-0.168582 -0.0344828 -0.172414 76 204 255
0.172414 -0.0344828 -0.175549 76 204 255
0.168582 -0.0344828 -0.172414 76 204 255
-0.172414 -1.91418e-17 -0.172414 76 204 255
-0.172414 0 -0.172414 76 204 255
0.172414 -1.91418e-17 -0.172414 76 204 255
0.172414 0 -0.172414 76 204 255
-0.172414 0.0344828 -0.175549 76 204 255
-0.172414 1.5792e-17 -0.172414 76 204 255
-0.168582 0.0344828 -0.172414 76 204 255
0.172414 1.5792e-17 -0.172414 76 204 255
0.172414 0.0344828 -0.175549 76 204 255
0.168582 0.0344828 -0.172414 76 204 255
-0.172414 0.0689655 -0.184953 76 204 255
-0.157088 0.0689655 -0.172414 76 204 255
0.172414 0.0689655 -0.184953 76 204 255
0.157088 0.0689655 -0.172414 76 204 255
-0.172414 0.103448 -0.200627 76 204 255
-0.137931 0.103448 -0.172414 76 204 255
0.172414 0.103448 -0.200627 76 204 255
0.137931 0.103448 -0.172414 76 204 255
-0.137931 0.103448 -0.172414 76 204 255
-0.137931 0.137931 -0.194357 76 204 255
-0.103448 0.137931 -0.172414 76 204 255
0.137931 0.103448 -0.172414 76 204 255
0.137931 0.137931 -0.194357 76 204 255
0.103448 0.137931 -0.172414 76 204 255
-0.103448 0.137931 -0.172414 76 204 255
-0.103448 0.172414 -0.200627 76 204 255
-0.0689655 0.157088 -0.172414 76 204 255
-0.0689655 0.172414 -0.184953 76 204 255
-0.0344828 0.168582 -0.172414 76 204 255
-0.0344828 0.172414 -0.175549 76 204 255
-1.5792e-17 0.172414 -0.172414 76 204 255
0.0344828 0.168582 -0.172414 76 204 255
0.0344828 0.172414 -0.175549 76 204 255
1.91418e-17 0.172414 -0.172414 76 204 255
0.0689655 0.157088 -0.172414 76 204 255
0.0689655 0.172414 -0.184953 76 204 255
0.103448 0.137931 -0.172414 76 204 255
0.103448 0.172414 -0.200627 76 204 255
0 0.172414 -0.172414 76 204 255
0 -0.172414 -0.172414 76 204 255
-0.103448 -0.137931 -0.172414 76 204 255
-0.0689655 -0.137931 -0.153257 76 204 255
-0.0344828 -0.137931 -0.141762 76 204 255
0 -0.137931 -0.137931 76 204 255
-3.39767e-17 -0.137931 -0.137931 76 204 255
3.06268e-17 -0.137931 -0.137931 76 204 255
0.0344828 -0.137931 -0.141762 76 204 255
0.0689655 -0.137931 -0.153257 76 204 255
0.103448 -0.137931 -0.172414 76 204 255
-0.137931 -0.103448 -0.172414 76 204 255
-0.103448 -0.103448 -0.145594 76 204 255
-0.0689655 -0.118227 -0.137931 76 204 255
-0.0896552 -0.103448 -0.137931 76 204 255
-0.0344828 -0.133005 -0.137931 76 204 255
0.0344828 -0.133005 -0.137931 76 204 255
0.0689655 -0.118227 -0.137931 76 204 255
0.0896552 -0.103448 -0.137931 76 204 255
0.103448 -0.103448 -0.145594 76 204 255
0.137931 -0.103448 -0.172414 76 204 255
-0.137931 -0.0689655 -0.153257 76 204 255
-0.103448 -0.0896552 -0.137931 76 204 255
-0.118227 -0.0689655 -0.137931 76 204 255
0.103448 -0.0896552 -0.137931 76 204 255
0.118227 -0.0689655 -0.137931 76 204 255
0.137931 -0.0689655 -0.153257 76 204 255
-0.137931 -0.0344828 -0.141762 76 204 255
-0.133005 -0.0344828 -0.137931 76 204 255
0.137931 -0.0344828 -0.141762 76 204 255
0.133005 -0.0344828 -0.137931 76 204 255
-0.172414 0 -0.172414 76 204 255
-0.137931 -3.06268e-17 -0.137931 76 204 255
-0.137931 0 -0.137931 76 204 255
0.137931 -3.06268e-17 -0.137931 76 204 255
0.137931 0 -0.137931 76 204 255
0.172414 0 -0.172414 76 204 255
-0.137931 3.39767e-17 -0.137931 76 204 255
-0.137931 0.0344828 -0.141762 76 204 255
-0.133005 0.0344828 -0.137931 76 204 255
0.137931 3.39767e-17 -0.137931 76 204 255
0.137931 0.0344828 -0.141762 76 204 255
0.133005 0.0344828 -0.137931 76 204 255
-0.137931 0.0689655 -0.153257 76 204 255
-0.118227 0.0689655 -0.137931 76 204 255
0.137931 0.0689655 -0.153257 76 204 255
0.118227 0.0689655 -0.137931 76 204 255
-0.137931 0.103448 -0.172414 76 204 255
-0.103448 0.0896552 -0.137931 76 204 255
-0.103448 0.103448 -0.145594 76 204 255
-0.0896552 0.103448 -0.137931 76 204 255
0.103448 0.0896552 -0.137931 76 204 255
0.103448 0.103448 -0.145594 76 204 255
0.0896552 0.103448 -0.137931 76 204 255
0.137931 0.103448 -0.172414 76 204 255
-0.103448 0.137931 -0.172414 76 204 255
-0.0689655 0.118227 -0.137931 76 204 255
-0.0689655 0.137931 -0.153257 76 204 255
-0.0344828 0.133005 -0.137931 76 204 255
-0.0344828 0.137931 -0.141762 76 204 255
-3.39767e-17 0.137931 -0.137931 76 204 255
0.0344828 0.133005 -0.137931 76 204 255
0.0344828 0.137931 -0.141762 76 204 255
3.06268e-17 0.137931 -0.137931 76 204 255
0.0689655 0.118227 -0.137931 76 204 255
0.0689655 0.137931 -0.153257 76 204 255
0.103448 0.137931 -0.172414 76 204 255
0 0.137931 -0.137931 76 204 255
0 0.172414 -0.172414 76 204 255
0 -0.137931 -0.137931 76 204 255
-0.0689655 -0.103448 -0.123153 76 204 255
-0.0344828 -0.103448 -0.108374 76 204 255
0 -0.103448 -0.103448 76 204 255
0.0344828 -0.103448 -0.108374 76 204 255
0.0689655 -0.103448 -0.123153 76 204 255
-0.103448 -0.0689655 -0.123153 76 204 255
-0.0689655 -0.0758621 -0.103448 76 204 255
-0.0758621 -0.0689655 -0.103448 76 204 255
-0.0344828 -0.0965517 -0.103448 76 204 255
0 -0.103448 -0.103448 76 204 255
0.0344828 -0.0965517 -0.103448 76 204 255
0.0689655 -0.0758621 -0.103448 76 204 255
0.0758621 -0.0689655 -0.103448 76 204 255
0.103448 -0.0689655 -0.123153 76 204 255
-0.103448 -0.0344828 -0.108374 76 204 255
-0.0965517 -0.0344828 -0.103448 76 204 255
0.103448 -0.0344828 -0.108374 76 204 255
0.0965517 -0.0344828 -0.103448 76 204 255
-0.137931 0 -0.137931 76 204 255
-0.103448 0 -0.103448 76 204 255
-0.103448 0 -0.103448 76 204 255
0.103448 0 -0.103448 76 204 255
0.103448 0 -0.103448 76 204 255
0.137931 0 -0.137931 76 204 255
-0.103448 0.0344828 -0.108374 76 204 255
-0.0965517 0.0344828 -0.103448 76 204 255
0.103448 0.0344828 -0.108374 76 204 255
0.0965517 0.0344828 -0.103448 76 204 255
-0.103448 0.0689655 -0.123153 76 204 255
-0.0758621 0.0689655 -0.103448 76 204 255
0.103448 0.0689655 -0.123153 76 204 255
0.0758621 0.0689655 -0.103448 76 204 255
-0.0689655 0.0758621 -0.103448 76 204 255
-0.0689655 0.103448 -0.123153 76 204 255
-0.0344828 0.0965517 -0.103448 76 204 255
-0.0344828 0.103448 -0.108374 76 204 255
0 0.103448 -0.103448 76 204 255
0 0.103448 -0.103448 76 204 255
0.0344828 0.0965517 -0.103448 76 204 255
0.0344828 0.103448 -0.108374 76 204 255
0.0689655 0.0758621 -0.103448 76 204 255
0.0689655 0.103448 -0.123153 76 204 255
0 0.137931 -0.137931 76 204 255
-0.0689655 -0.0689655 -0.0965517 76 204 255
-0.0344828 -0.0689655 -0.0758621 76 204 255
0 -0.0689655 -0.0689655 76 204 255
-8.49416e-18 -0.0689655 -0.0689655 76 204 255
7.65671e-18 -0.0689655 -0.0689655 76 204 255
0.0344828 -0.0689655 -0.0758621 76 204 255
0.0689655 -0.0689655 -0.0965517 76 204 255
-0.0689655 -0.0344828 -0.0758621 76 204 255
-0.0344828 -0.0574713 -0.0689655 76 204 255
-0.0574713 -0.0344828 -0.0689655 76 204 255
0.0344828 -0.0574713 -0.0689655 76 204 255
0.0574713 -0.0344828 -0.0689655 76 204 255
0.0689655 -0.0344828 -0.0758621 76 204 255
-0.0689655 -7.65671e-18 -0.0689655 76 204 255
-0.0689655 0 -0.0689655 76 204 255
0.0689655 -7.65671e-18 -0.0689655 76 204 255
0.0689655 0 -0.0689655 76 204 255
-0.0689655 0.0344828 -0.0758621 76 204 255
-0.0689655 8.49416e-18 -0.0689655 76 204 255
-0.0574713 0.0344828 -0.0689655 76 204 255
0.0689655 8.49416e-18 -0.0689655 76 204 255
0.0689655 0.0344828 -0.0758621 76 204 255
0.0574713 0.0344828 -0.0689655 76 204 255
-0.0689655 0.0689655 -0.0965517 76 204 255
-0.0344828 0.0574713 -0.0689655 76 204 255
-0.0344828 0.0689655 -0.0758621 76 204 255
-8.49416e-18 0.0689655 -0.0689655 76 204 255
0.0344828 0.0574713 -0.0689655 76 204 255
0.0344828 0.0689655 -0.0758621 76 204 255
7.65671e-18 0.0689655 -0.0689655 76 204 255
0.0689655 0.0689655 -0.0965517 76 204 255
0 0.0689655 -0.0689655 76 204 255
0 -0.0689655 -0.0689655 76 204 255
-0.0344828 -0.0344828 -0.045977 76 204 255
0 -0.0344828 -0.0344828 76 204 255
-2.12354e-18 -0.0344828 -0.0344828 76 204 255
0 -0.0344828 -0.0344828 76 204 255
0.0344828 -0.0344828 -0.045977 76 204 255
-0.0689655 0 -0.0689655 76 204 255
-0.0344828 0 -0.0344828 76 204 255
-0.0344828 0 -0.0344828 76 204 255
0.0344828 0 -0.0344828 76 204 255
0.0344828 0 -0.0344828 76 204 255
0.0689655 0 -0.0689655 76 204 255
-0.0344828 2.12354e-18 -0.0344828 76 204 255
-0.0344828 0.0344828 -0.045977 76 204 255
-2.12354e-18 0.0344828 -0.0344828 76 204 255
0.0344828 2.12354e-18 -0.0344828 76 204 255
0.0344828 0.0344828 -0.045977 76 204 255
0 0.0344828 -0.0344828 76 204 255
0 0.0344828 -0.0344828 76 204 255
0 0.0689655 -0.0689655 76 204 255
0 -0.0344828 -0.0344828 76 204 255
-0.0344828 0 -0.0344828 76 204 255
0 0 0 76 204 255
0.0344828 0 -0.0344828 76 204 255
0 0.0344828 -0.0344828 76 204 255
0 -0.0344828 0.0344828 76 204 255
-2.12354e-18 -0.0344828 0.0344828 76 204 255
0 -0.0344828 0.0344828 76 204 255
0 -0.0344828 0.0344828 76 204 255
-0.0344828 0 0.0344828 76 204 255
-0.0344828 0 0.0344828 76 204 255
-0.0344828 0 0.0344828 76 204 255
0 0 0 76 204 255
0.0344828 0 0.0344828 76 204 255
0.0344828 0 0.0344828 76 204 255
0.0344828 0 0.0344828 76 204 255
-0.0344828 2.12354e-18 0.0344828 76 204 255
-2.12354e-18 0.0344828 0.0344828 76 204 255
0 0.0344828 0.0344828 76 204 255
0.0344828 2.12354e-18 0.0344828 76 204 255
0 0.0344828 0.0344828 76 204 255
0 0.0344828 0.0344828 76 204 255
0 -0.0689655 0.0689655 76 204 255
-8.49416e-18 -0.0689655 0.0689655 76 204 255
0 -0.0689655 0.0689655 76 204 255
7.65671e-18 -0.0689655 0.0689655 76 204 255
-0.0344828 -0.0574713 0.0689655 76 204 255
-0.0574713 -0.0344828 0.0689655 76 204 255
-0.0344828 -0.0344828 0.045977 76 204 255
0.0344828 -0.0344828 0.045977 76 204 255
0.0344828 -0.0574713 0.0689655 76 204 255
0.0574713 -0.0344828 0.0689655 76 204 255
-0.0689655 -7.65671e-18 0.0689655 76 204 255
-0.0689655 0 0.0689655 76 204 255
-0.0689655 0 0.0689655 76 204 255
0.0689655 0 0.0689655 76 204 255
0.0689655 -7.65671e-18 0.0689655 76 204 255
0.0689655 0 0.0689655 76 204 255
-0.0689655 8.49416e-18 0.0689655 76 204 255
-0.0574713 0.0344828 0.0689655 76 204 255
-0.0344828 0.0344828 0.045977 76 204 255
0.0344828 0.0344828 0.045977 76 204 255
0.0689655 8.49416e-18 0.0689655 76 204 255
0.0574713 0.0344828 0.0689655 76 204 255
-0.0344828 0.0574713 0.0689655 76 204 255
-8.49416e-18 0.0689655 0.0689655 76 204 255
0 0.0689655 0.0689655 76 204 255
0.0344828 0.0574713 0.0689655 76 204 255
7.65671e-18 0.0689655 0.0689655 76 204 255
0 0.0689655 0.0689655 76 204 255
-0.0689655 -0.0758621 0.103448 76 204 255
-0.0758621 -0.0689655 0.103448 76 204 255
-0.0689655 -0.0689655 0.0965517 76 204 255
-0.0344828 -0.0689655 0.0758621 76 204 255
-0.0344828 -0.0965517 0.103448 76 204 255
0 -0.103448 0.103448 76 204 255
0.0344828 -0.0689655 0.0758621 76 204 255
0.0344828 -0.0965517 0.103448 76 204 255
0.0689655 -0.0689655 0.0965517 76 204 255
0.0689655 -0.0758621 0.103448 76 204 255
0.0758621 -0.0689655 0.103448 76 204 255
-0.0965517 -0.0344828 0.103448 76 204 255
-0.0689655 -0.0344828 0.0758621 76 204 255
0.0689655 -0.0344828 0.0758621 76 204 255
0.0965517 -0.0344828 0.103448 76 204 255
-0.103448 0 0.103448 76 204 255
0.103448 0 0.103448 76 204 255
-0.0965517 0.0344828 0.103448 76 204 255
-0.0689655 0.0344828 0.0758621 76 204 255
0.0689655 0.0344828 0.0758621 76 204 255
0.0965517 0.0344828 0.103448 76 204 255
-0.0758621 0.0689655 0.103448 76 204 255
-0.0689655 0.0689655 0.0965517 76 204 255
-0.0344828 0.0689655 0.0758621 76 204 255
0.0344828 0.0689655 0.0758621 76 204 255
0.0689655 0.0689655 0.0965517 76 204 255
0.0758621 0.0689655 0.103448 76 204 255
-0.0689655 0.0758621 0.103448 76 204 255
-0.0344828 0.0965517 0.103448 76 204 255
0 0.103448 0.103448 76 204 255
0.0344828 0.0965517 0.103448 76 204 255
0.0689655 0.0758621 0.103448 76 204 255
0 -0.137931 0.137931 76 204 255
-3.39767e-17 -0.137931 0.137931 76 204 255
0 -0.137931 0.137931 76 204 255
3.06268e-17 -0.137931 0.137931 76 204 255
-0.0689655 -0.118227 0.137931 76 204 255
-0.0896552 -0.103448 0.137931 76 204 255
-0.0689655 -0.103448 0.123153 76 204 255
-0.0344828 -0.103448 0.108374 76 204 255
-0.0344828 -0.133005 0.137931 76 204 255
0 -0.103448 0.103448 76 204 255
0.0344828 -0.103448 0.108374 76 204 255
0.0344828 -0.133005 0.137931 76 204 255
0.0689655 -0.103448 0.123153 76 204 255
0.0689655 -0.118227 0.137931 76 204 255
0.0896552 -0.103448 0.137931 76 204 255
-0.103448 -0.0896552 0.137931 76 204 255
-0.118227 -0.0689655 0.137931 76 204 255
-0.103448 -0.0689655 0.123153 76 204 255
0.103448 -0.0689655 0.123153 76 204 255
0.103448 -0.0896552 0.137931 76 204 255
0.118227 -0.0689655 0.137931 76 204 255
-0.133005 -0.0344828 0.137931 76 204 255
-0.103448 -0.0344828 0.108374 76 204 255
0.103448 -0.0344828 0.108374 76 204 255
0.133005 -0.0344828 0.137931 76 204 255
-0.137931 -3.06268e-17 0.137931 76 204 255
-0.137931 0 0.137931 76 204 255
-0.137931 0 0.137931 76 204 255
-0.103448 0 0.103448 76 204 255
0.103448 0 0.103448 76 204 255
0.137931 0 0.137931 76 204 255
0.137931 -3.06268e-17 0.137931 76 204 255
0.137931 0 0.137931 76 204 255
-0.137931 3.39767e-17 0.137931 76 204 255
-0.133005 0.0344828 0.137931 76 204 255
-0.103448 0.0344828 0.108374 76 204 255
0.103448 0.0344828 0.108374 76 204 255
0.137931 3.39767e-17 0.137931 76 204 255
0.133005 0.0344828 0.137931 76 204 255
-0.118227 0.0689655 0.137931 76 204 255
-0.103448 0.0689655 0.123153 76 204 255
0.103448 0.0689655 0.123153 76 204 255
0.118227 0.0689655 0.137931 76 204 255
-0.103448 0.0896552 0.137931 76 204 255
-0.0896552 0.103448 0.137931 76 204 255
-0.0689655 0.103448 0.123153 76 204 255
-0.0344828 0.103448 0.108374 76 204 255
0 0.103448 0.103448 76 204 255
0.0344828 0.103448 0.108374 76 204 255
0.0689655 0.103448 0.123153 76 204 255
0.103448 0.0896552 0.137931 76 204 255
0.0896552 0.103448 0.137931 76 204 255
-0.0689655 0.118227 0.137931 76 204 255
-0.0344828 0.133005 0.137931 76 204 255
-3.39767e-17 0.137931 0.137931 76 204 255
0 0.137931 0.137931 76 204 255
0.0344828 0.133005 0.137931 76 204 255
3.06268e-17 0.137931 0.137931 76 204 255
0.0689655 0.118227 0.137931 76 204 255
0 0.137931 0.137931 76 204 255
0 -0.172414 0.172414 76 204 255
-1.5792e-17 -0.172414 0.172414 76 204 255
0 -0.172414 0.172414 76 204 255
1.91418e-17 -0.172414 0.172414 76 204 255
-0.103448 -0.137931 0.172414 76 204 255
-0.103448 -0.137931 0.172414 76 204 255
-0.103448 -0.137931 0.172414 76 204 255
-0.0689655 -0.137931 0.153257 76 204 255
-0.0689655 -0.157088 0.172414 76 204 255
-0.0344828 -0.137931 0.141762 76 204 255
-0.0344828 -0.168582 0.172414 76 204 255
0.0344828 -0.137931 0.141762 76 204 255
0.0344828 -0.168582 0.172414 76 204 255
0.0689655 -0.137931 0.153257 76 204 255
0.0689655 -0.157088 0.172414 76 204 255
0.103448 -0.137931 0.172414 76 204 255
0.103448 -0.137931 0.172414 76 204 255
0.103448 -0.137931 0.172414 76 204 255
-0.137931 -0.103448 0.172414 76 204 255
-0.137931 -0.103448 0.172414 76 204 255
-0.137931 -0.103448 0.172414 76 204 255
-0.103448 -0.103448 0.145594 76 204 255
0.103448 -0.103448 0.145594 76 204 255
0.137931 -0.103448 0.172414 76 204 255
0.137931 -0.103448 0.172414 76 204 255
0.137931 -0.103448 0.172414 76 204 255
-0.157088 -0.0689655 0.172414 76 204 255
-0.137931 -0.0689655 0.153257 76 204 255
0.137931 -0.0689655 0.153257 76 204 255
0.157088 -0.0689655 0.172414 76 204 255
-0.168582 -0.0344828 0.172414 76 204 255
-0.137931 -0.0344828 0.141762 76 204 255
0.137931 -0.0344828 0.141762 76 204 255
0.168582 -0.0344828 0.172414 76 204 255
-0.172414 -1.91418e-17 0.172414 76 204 255
-0.172414 0 0.172414 76 204 255
-0.172414 0 0.172414 76 204 255
0.172414 0 0.172414 76 204 255
0.172414 -1.91418e-17 0.172414 76 204 255
0.172414 0 0.172414 76 204 255
-0.172414 1.5792e-17 0.172414 76 204 255
-0.168582 0.0344828 0.172414 76 204 255
-0.137931 0.0344828 0.141762 76 204 255
0.137931 0.0344828 0.141762 76 204 255
0.172414 1.5792e-17 0.172414 76 204 255
0.168582 0.0344828 0.172414 76 204 255
-0.157088 0.0689655 0.172414 76 204 255
-0.137931 0.0689655 0.153257 76 204 255
0.137931 0.0689655 0.153257 76 204 255
0.157088 0.0689655 0.172414 76 204 255
-0.137931 0.103448 0.172414 76 204 255
-0.137931 0.103448 0.172414 76 204 255
-0.103448 0.103448 0.145594 76 204 255
0.103448 0.103448 0.145594 76 204 255
0.137931 0.103448 0.172414 76 204 255
0.137931 0.103448 0.172414 76 204 255
-0.137931 0.103448 0.172414 76 204 255
-0.103448 0.137931 0.172414 76 204 255
-0.103448 0.137931 0.172414 76 204 255
-0.0689655 0.137931 0.153257 76 204 255
-0.0344828 0.137931 0.141762 76 204 255
0.0344828 0.137931 0.141762 76 204 255
0.0689655 0.137931 0.153257 76 204 255
0.103448 0.137931 0.172414 76 204 255
0.137931 0.103448 0.172414 76 204 255
0.103448 0.137931 0.172414 76 204 255
-0.103448 0.137931 0.172414 76 204 255
-0.0689655 0.157088 0.172414 76 204 255
-0.0344828 0.168582 0.172414 76 204 255
-1.5792e-17 0.172414 0.172414 76 204 255
0 0.172414 0.172414 76 204 255
0.0344828 0.168582 0.172414 76 204 255
1.91418e-17 0.172414 0.172414 76 204 255
0.0689655 0.157088 0.172414 76 204 255
0.103448 0.137931 0.172414 76 204 255
0 0.172414 0.172414 76 204 255
-0.103448 -0.178683 0.206897 76 204 255
-0.1133 -0.172414 0.206897 76 204 255
-0.103448 -0.172414 0.200627 76 204 255
-0.0689655 -0.172414 0.184953 76 204 255
-0.0689655 -0.194357 0.206897 76 204 255
-0.0344828 -0.172414 0.175549 76 204 255
-0.0344828 -0.203762 0.206897 76 204 255
0 -0.206897 0.206897 76 204 255
0.0344828 -0.172414 0.175549 76 204 255
0.0344828 -0.203762 0.206897 76 204 255
0.0689655 -0.172414 0.184953 76 204 255
0.0689655 -0.194357 0.206897 76 204 255
0.103448 -0.172414 0.200627 76 204 255
0.103448 -0.178683 0.206897 76 204 255
0.1133 -0.172414 0.206897 76 204 255
-0.137931 -0.153257 0.206897 76 204 255
-0.153257 -0.137931 0.206897 76 204 255
-0.137931 -0.137931 0.194357 76 204 255
0.137931 -0.137931 0.194357 76 204 255
0.137931 -0.153257 0.206897 76 204 255
0.153257 -0.137931 0.206897 76 204 255
-0.172414 -0.1133 0.206897 76 204 255
-0.178683 -0.103448 0.206897 76 204 255
-0.172414 -0.103448 0.200627 76 204 255
0.172414 -0.103448 0.200627 76 204 255
0.172414 -0.1133 0.206897 76 204 255
0.178683 -0.103448 0.206897 76 204 255
-0.194357 -0.0689655 0.206897 76 204 255
-0.172414 -0.0689655 0.184953 76 204 255
0.172414 -0.0689655 0.184953 76 204 255
0.194357 -0.0689655 0.206897 76 204 255
-0.203762 -0.0344828 0.206897 76 204 255
-0.172414 -0.0344828 0.175549 76 204 255
0.172414 -0.0344828 0.175549 76 204 255
0.203762 -0.0344828 0.206897 76 204 255
-0.206897 0 0.206897 76 204 255
0.206897 0 0.206897 76 204 255
-0.203762 0.0344828 0.206897 76 204 255
-0.172414 0.0344828 0.175549 76 204 255
0.172414 0.0344828 0.175549 76 204 255
0.203762 0.0344828 0.206897 76 204 255
-0.194357 0.0689655 0.206897 76 204 255
-0.172414 0.0689655 0.184953 76 204 255
0.172414 0.0689655 0.184953 76 204 255
0.194357 0.0689655 0.206897 76 204 255
-0.178683 0.103448 0.206897 76 204 255
-0.172414 0.103448 0.200627 76 204 255
0.172414 0.103448 0.200627 76 204 255
0.178683 0.103448 0.206897 76 204 255
-0.172414 0.1133 0.206897 76 204 255
-0.153257 0.137931 0.206897 76 204 255
-0.137931 0.137931 0.194357 76 204 255
0.137931 0.137931 0.194357 76 204 255
0.172414 0.1133 0.206897 76 204 255
0.153257 0.137931 0.206897 76 204 255
-0.137931 0.153257 0.206897 76 204 255
-0.1133 0.172414 0.206897 76 204 255
-0.103448 0.172414 0.200627 76 204 255
-0.0689655 0.172414 0.184953 76 204 255
-0.0344828 0.172414 0.175549 76 204 255
0.0344828 0.172414 0.175549 76 204 255
0.0689655 0.172414 0.184953 76 204 255
0.103448 0.172414 0.200627 76 204 255
0.137931 0.153257 0.206897 76 204 255
0.1133 0.172414 0.206897 76 204 255
-0.103448 0.178683 0.206897 76 204 255
-0.0689655 0.194357 0.206897 76 204 255
-0.0344828 0.203762 0.206897 76 204 255
0 0.206897 0.206897 76 204 255
0.0344828 0.203762 0.206897 76 204 255
0.0689655 0.194357 0.206897 76 204 255
0.103448 0.178683 0.206897 76 204 255
-0.103448 -0.217507 0.241379 76 204 255
-0.123153 -0.206897 0.241379 76 204 255
-0.103448 -0.206897 0.230769 76 204 255
-0.0689655 -0.206897 0.217507 76 204 255
-0.0689655 -0.230769 0.241379 76 204 255
-0.0344828 -0.206897 0.209549 76 204 255
-0.0344828 -0.238727 0.241379 76 204 255
0 -0.206897 0.206897 76 204 255
0 -0.241379 0.241379 76 204 255
0.0344828 -0.206897 0.209549 76 204 255
0.0344828 -0.238727 0.241379 76 204 255
0.0689655 -0.206897 0.217507 76 204 255
0.0689655 -0.230769 0.241379 76 204 255
0.103448 -0.206897 0.230769 76 204 255
0.103448 -0.217507 0.241379 76 204 255
0.123153 -0.206897 0.241379 76 204 255
-0.137931 -0.197492 0.241379 76 204 255
-0.168582 -0.172414 0.241379 76 204 255
-0.137931 -0.172414 0.220159 76 204 255
0.137931 -0.172414 0.220159 76 204 255
0.137931 -0.197492 0.241379 76 204 255
0.168582 -0.172414 0.241379 76 204 255
-0.172414 -0.168582 0.241379 76 204 255
-0.197492 -0.137931 0.241379 76 204 255
-0.172414 -0.137931 0.220159 76 204 255
0.172414 -0.137931 0.220159 76 204 255
0.172414 -0.168582 0.241379 76 204 255
0.197492 -0.137931 0.241379 76 204 255
-0.206897 -0.123153 0.241379 76 204 255
-0.217507 -0.103448 0.241379 76 204 255
-0.206897 -0.103448 0.230769 76 204 255
0.206897 -0.103448 0.230769 76 204 255
0.206897 -0.123153 0.241379 76 204 255
0.217507 -0.103448 0.241379 76 204 255
-0.230769 -0.0689655 0.241379 76 204 255
-0.206897 -0.0689655 0.217507 76 204 255
0.206897 -0.0689655 0.217507 76 204 255
0.230769 -0.0689655 0.241379 76 204 255
-0.238727 -0.0344828 0.241379 76 204 255
-0.206897 -0.0344828 0.209549 76 204 255
0.206897 -0.0344828 0.209549 76 204 255
0.238727 -0.0344828 0.241379 76 204 255
-0.241379 0 0.241379 76 204 255
-0.206897 0 0.206897 76 204 255
0.206897 0 0.206897 76 204 255
0.241379 0 0.241379 76 204 255
-0.238727 0.0344828 0.241379 76 204 255
-0.206897 0.0344828 0.209549 76 204 255
0.206897 0.0344828 0.209549 76 204 255
0.238727 0.0344828 0.241379 76 204 255
-0.230769 0.0689655 0.241379 76 204 255
-0.206897 0.0689655 0.217507 76 204 255
0.206897 0.0689655 0.217507 76 204 255
0.230769 0.0689655 0.241379 76 204 255
-0.217507 0.103448 0.241379 76 204 255
-0.206897 0.103448 0.230769 76 204 255
0.206897 0.103448 0.230769 76 204 255
0.217507 0.103448 0.241379 76 204 255
-0.206897 0.123153 0.241379 76 204 255
-0.197492 0.137931 0.241379 76 204 255
-0.172414 0.137931 0.220159 76 204 255
0.172414 0.137931 0.220159 76 204 255
0.206897 0.123153 0.241379 76 204 255
0.197492 0.137931 0.241379 76 204 255
-0.172414 0.168582 0.241379 76 204 255
-0.168582 0.172414 0.241379 76 204 255
-0.137931 0.172414 0.220159 76 204 255
0.137931 0.172414 0.220159 76 204 255
0.172414 0.168582 0.241379 76 204 255
0.168582 0.172414 0.241379 76 204 255
-0.137931 0.197492 0.241379 76 204 255
-0.123153 0.206897 0.241379 76 204 255
-0.103448 0.206897 0.230769 76 204 255
-0.0689655 0.206897 0.217507 76 204 255
-0.0344828 0.206897 0.209549 76 204 255
0 0.206897 0.206897 76 204 255
0.0344828 0.206897 0.209549 76 204 255
0.0689655 0.206897 0.217507 76 204 255
0.103448 0.206897 0.230769 76 204 255
0.137931 0.197492 0.241379 76 204 255
0.123153 0.206897 0.241379 76 204 255
-0.103448 0.217507 0.241379 76 204 255
-0.0689655 0.230769 0.241379 76 204 255
-0.0344828 0.238727 0.241379 76 204 255
0 0.241379 0.241379 76 204 255
0.0344828 0.238727 0.241379 76 204 255
0.0689655 0.230769 0.241379 76 204 255
0.103448 0.217507 0.241379 76 204 255
-0.103448 -0.255172 0.275862 76 204 255
-0.133005 -0.241379 0.275862 76 204 255
-0.103448 -0.241379 0.262069 76 204 255
-0.0689655 -0.241379 0.250575 76 204 255
-0.0689655 -0.266667 0.275862 76 204 255
-0.0344828 -0.241379 0.243678 76 204 255
-0.0344828 -0.273563 0.275862 76 204 255
0 -0.275862 0.275862 76 204 255
-1.35907e-16 -0.275862 0.275862 76 204 255
0 -0.241379 0.241379 76 204 255
1.37821e-16 -0.275862 0.275862 76 204 255
0.0344828 -0.241379 0.243678 76 204 255
0.0344828 -0.273563 0.275862 76 204 255
0.0689655 -0.241379 0.250575 76 204 255
0.0689655 -0.266667 0.275862 76 204 255
0.103448 -0.241379 0.262069 76 204 255
0.103448 -0.255172 0.275862 76 204 255
0.133005 -0.241379 0.275862 76 204 255
-0.172414 -0.214854 0.275862 76 204 255
-0.181818 -0.206897 0.275862 76 204 255
-0.172414 -0.206897 0.268966 76 204 255
-0.137931 -0.206897 0.248276 76 204 255
-0.137931 -0.238727 0.275862 76 204 255
0.137931 -0.206897 0.248276 76 204 255
0.137931 -0.238727 0.275862 76 204 255
0.172414 -0.206897 0.268966 76 204 255
0.172414 -0.214854 0.275862 76 204 255
0.181818 -0.206897 0.275862 76 204 255
-0.206897 -0.181818 0.275862 76 204 255
-0.214854 -0.172414 0.275862 76 204 255
-0.206897 -0.172414 0.268966 76 204 255
-0.172414 -0.172414 0.243678 76 204 255
0.172414 -0.172414 0.243678 76 204 255
0.206897 -0.172414 0.268966 76 204 255
0.206897 -0.181818 0.275862 76 204 255
0.214854 -0.172414 0.275862 76 204 255
-0.238727 -0.137931 0.275862 76 204 255
-0.206897 -0.137931 0.248276 76 204 255
0.206897 -0.137931 0.248276 76 204 255
0.238727 -0.137931 0.275862 76 204 255
-0.241379 -0.133005 0.275862 76 204 255
-0.255172 -0.103448 0.275862 76 204 255
-0.241379 -0.103448 0.262069 76 204 255
0.241379 -0.103448 0.262069 76 204 255
0.241379 -0.133005 0.275862 76 204 255
0.255172 -0.103448 0.275862 76 204 255
-0.266667 -0.0689655 0.275862 76 204 255
-0.241379 -0.0689655 0.250575 76 204 255
0.241379 -0.0689655 0.250575 76 204 255
0.266667 -0.0689655 0.275862 76 204 255
-0.273563 -0.0344828 0.275862 76 204 255
-0.241379 -0.0344828 0.243678 76 204 255
0.241379 -0.0344828 0.243678 76 204 255
0.273563 -0.0344828 0.275862 76 204 255
-0.275862 -1.37821e-16 0.275862 76 204 255
-0.275862 0 0.275862 76 204 255
-0.241379 0 0.241379 76 204 255
0.241379 0 0.241379 76 204 255
0.275862 0 0.275862 76 204 255
0.275862 -1.37821e-16 0.275862 76 204 255
-0.273563 0.0344828 0.275862 76 204 255
-0.275862 1.35907e-16 0.275862 76 204 255
-0.241379 0.0344828 0.243678 76 204 255
0.241379 0.0344828 0.243678 76 204 255
0.275862 1.35907e-16 0.275862 76 204 255
0.273563 0.0344828 0.275862 76 204 255
-0.266667 0.0689655 0.275862 76 204 255
-0.241379 0.0689655 0.250575 76 204 255
0.241379 0.0689655 0.250575 76 204 255
0.266667 0.0689655 0.275862 76 204 255
-0.255172 0.103448 0.275862 76 204 255
-0.241379 0.103448 0.262069 76 204 255
0.241379 0.103448 0.262069 76 204 255
0.255172 0.103448 0.275862 76 204 255
-0.241379 0.133005 0.275862 76 204 255
-0.238727 0.137931 0.275862 76 204 255
-0.206897 0.137931 0.248276 76 204 255
0.206897 0.137931 0.248276 76 204 255
0.241379 0.133005 0.275862 76 204 255
0.238727 0.137931 0.275862 76 204 255
-0.214854 0.172414 0.275862 76 204 255
-0.206897 0.172414 0.268966 76 204 255
-0.172414 0.172414 0.243678 76 204 255
0.172414 0.172414 0.243678 76 204 255
0.206897 0.172414 0.268966 76 204 255
0.214854 0.172414 0.275862 76 204 255
-0.206897 0.181818 0.275862 76 204 255
-0.181818 0.206897 0.275862 76 204 255
-0.172414 0.206897 0.268966 76 204 255
-0.137931 0.206897 0.248276 76 204 255
0.137931 0.206897 0.248276 76 204 255
0.172414 0.206897 0.268966 76 204 255
0.206897 0.181818 0.275862 76 204 255
0.181818 0.206897 0.275862 76 204 255
-0.172414 0.214854 0.275862 76 204 255
-0.137931 0.238727 0.275862 76 204 255
-0.133005 0.241379 0.275862 76 204 255
-0.103448 0.241379 0.262069 76 204 255
-0.0689655 0.241379 0.250575 76 204 255
-0.0344828 0.241379 0.243678 76 204 255
0 0.241379 0.241379 76 204 255
0.0344828 0.241379 0.243678 76 204 255
0.0689655 0.241379 0.250575 76 204 255
0.103448 0.241379 0.262069 76 204 255
0.137931 0.238727 0.275862 76 204 255
0.133005 0.241379 0.275862 76 204 255
0.172414 0.214854 0.275862 76 204 255
-0.103448 0.255172 0.275862 76 204 255
-0.0689655 0.266667 0.275862 76 204 255
-0.0344828 0.273563 0.275862 76 204 255
-1.35907e-16 0.275862 0.275862 76 204 255
0 0.275862 0.275862 76 204 255
0.0344828 0.273563 0.275862 76 204 255
1.37821e-16 0.275862 0.275862 76 204 255
0.0689655 0.266667 0.275862 76 204 255
0.103448 0.255172 0.275862 76 204 255
3 0 1 2
3 3 1 0
3 4 1 3
3 5 4 3
3 6 4 5
3 7 6 5
3 7 8 6
3 8 9 6
3 10 8 11
3 10 12 8
3 12 9 8
3 13 12 10
3 14 12 13
3 15 14 13
3 16 14 15
3 17 16 15
3 18 19 20
3 21 19 18
3 22 19 21
3 23 24 22
3 1 23 22
3 1 22 21
3 1 21 2
3 1 4 25
3 23 1 25
3 4 6 26
3 25 4 26
3 6 9 27
3 26 6 27
3 9 12 28
3 27 9 28
3 12 14 29
3 28 12 29
3 14 16 30
3 29 14 30
3 16 31 30
3 17 31 16
3 17 32 31
3 17 33 32
3 34 32 33
3 35 32 34
3 36 35 34
3 37 38 39
3 20 38 37
3 20 19 38
3 19 40 38
3 41 42 40
3 41 40 22
3 22 40 19
3 22 24 41
3 32 43 31
3 44 43 32
3 44 32 45
3 45 32 35
3 46 35 36
3 46 47 35
3 47 45 35
3 48 47 46
3 39 49 50
3 38 49 39
3 51 52 49
3 51 49 40
3 40 49 38
3 40 42 51
3 45 53 44
3 54 53 45
3 54 45 55
3 55 45 47
3 56 47 48
3 55 47 56
3 57 58 59
3 60 61 58
3 49 60 58
3 49 58 57
3 49 57 50
3 49 52 60
3 55 62 54
3 55 63 62
3 56 63 55
3 56 64 63
3 56 65 64
3 66 64 65
3 59 67 68
3 58 67 59
3 67 58 61
3 69 67 61
3 64 70 71
3 63 64 71
3 72 64 66
3 70 64 72
3 68 73 74
3 67 73 68
3 73 67 69
3 75 73 69
3 70 76 77
3 71 70 77
3 78 70 72
3 76 70 78
3 74 79 80
3 74 73 79
3 73 81 79
3 81 73 75
3 82 81 75
3 76 83 84
3 77 76 84
3 85 76 78
3 85 86 76
3 86 83 76
3 87 88 89
3 87 79 88
3 79 81 88
3 88 81 82
3 90 88 82
3 83 91 92
3 84 83 92
3 93 86 94
3 93 91 86
3 91 83 86
3 89 95 96
3 88 95 89
3 95 88 90
3 97 95 90
3 91 98 99
3 92 91 99
3 100 91 93
3 98 91 100
3 96 101 102
3 95 101 96
3 101 95 97
3 103 101 97
3 98 104 105
3 99 98 105
3 106 98 100
3 104 98 106
3 102 101 107
3 103 108 109
3 101 103 109
3 101 109 110
3 101 110 107
3 109 108 111
3 112 113 114
3 115 113 112
3 116 115 112
3 116 112 105
3 116 105 104
3 106 116 104
3 110 117 118
3 109 117 110
3 111 119 120
3 111 120 109
3 109 120 117
3 120 119 121
3 122 123 124
3 122 114 113
3 122 113 123
3 123 113 125
3 126 113 115
3 125 113 126
3 118 117 127
3 127 128 129
3 127 117 128
3 117 120 128
3 121 130 131
3 121 131 120
3 120 131 128
3 131 130 132
3 133 134 135
3 133 124 123
3 133 123 134
3 134 123 136
3 137 125 138
3 137 136 125
3 136 123 125
3 126 138 125
3 129 128 139
3 131 139 128
3 140 139 131
3 132 141 142
3 131 132 142
3 131 142 143
3 131 143 140
3 141 144 145
3 142 141 145
3 144 146 147
3 145 144 147
3 146 148 149
3 147 146 149
3 148 150 151
3 149 148 151
3 150 152 153
3 151 150 153
3 152 154 155
3 153 152 155
3 156 155 154
3 157 156 154
3 157 154 135
3 157 135 134
3 136 157 134
3 158 157 136
3 137 158 136
3 143 142 159
3 145 159 142
3 160 159 145
3 147 160 145
3 161 160 147
3 161 162 163
3 161 147 162
3 147 149 162
3 164 151 165
3 164 162 151
3 162 149 151
3 153 165 151
3 166 165 153
3 155 166 153
3 167 166 155
3 156 167 155
3 23 168 24
3 25 168 23
3 169 168 25
3 26 169 25
3 170 169 26
3 27 170 26
3 171 170 27
3 28 171 27
3 172 171 28
3 29 172 28
3 173 172 29
3 30 173 29
3 174 173 30
3 31 174 30
3 41 175 42
3 176 177 175
3 168 176 175
3 168 175 41
3 168 41 24
3 168 169 178
3 176 168 178
3 169 170 179
3 178 169 179
3 170 171 180
3 179 170 180
3 171 172 181
3 180 171 181
3 172 173 182
3 181 172 182
3 173 174 183
3 182 173 183
3 174 184 183
3 31 184 174
3 31 185 184
3 31 43 185
3 44 185 43
3 51 186 52
3 187 188 186
3 175 187 186
3 175 186 51
3 175 51 42
3 175 177 187
3 185 189 184
3 185 190 189
3 44 190 185
3 44 191 190
3 44 53 191
3 54 191 53
3 60 192 61
3 193 194 192
3 186 193 192
3 186 192 60
3 186 60 52
3 186 188 193
3 191 195 190
3 191 196 195
3 54 196 191
3 54 197 196
3 54 62 197
3 63 197 62
3 61 198 69
3 192 198 61
3 198 192 194
3 199 198 194
3 197 200 201
3 196 197 201
3 71 197 63
3 200 197 71
3 69 202 75
3 198 202 69
3 202 198 199
3 203 202 199
3 200 204 205
3 201 200 205
3 77 200 71
3 204 200 77
3 75 206 82
3 202 206 75
3 206 202 203
3 207 206 203
3 204 208 209
3 205 204 209
3 84 204 77
3 208 204 84
3 82 210 90
3 206 210 82
3 210 206 207
3 211 210 207
3 208 212 213
3 209 208 213
3 92 208 84
3 212 208 92
3 90 214 97
3 210 214 90
3 214 210 211
3 215 214 211
3 212 216 217
3 213 212 217
3 99 212 92
3 216 212 99
3 97 218 103
3 214 218 97
3 218 214 215
3 219 218 215
3 216 220 221
3 217 216 221
3 105 216 99
3 220 216 105
3 103 218 108
3 219 222 223
3 218 219 223
3 218 223 111
3 218 111 108
3 223 222 224
3 225 226 227
3 114 226 225
3 112 114 225
3 112 225 221
3 112 221 220
3 105 112 220
3 111 223 119
3 224 228 229
3 223 224 229
3 223 229 121
3 223 121 119
3 229 228 230
3 231 232 233
3 124 232 231
3 122 124 231
3 122 231 227
3 122 227 226
3 114 122 226
3 121 229 130
3 230 234 235
3 229 230 235
3 229 235 132
3 229 132 130
3 234 236 237
3 235 234 237
3 236 238 239
3 237 236 239
3 238 240 241
3 239 238 241
3 240 242 243
3 241 240 243
3 242 244 245
3 243 242 245
3 244 246 247
3 245 244 247
3 135 247 246
3 133 135 246
3 133 246 233
3 133 233 232
3 124 133 232
3 132 235 141
3 237 141 235
3 144 141 237
3 239 144 237
3 146 144 239
3 241 146 239
3 148 146 241
3 243 148 241
3 150 148 243
3 245 150 243
3 152 150 245
3 247 152 245
3 154 152 247
3 135 154 247
3 176 248 177
3 178 248 176
3 249 248 178
3 179 249 178
3 250 249 179
3 250 251 252
3 250 179 251
3 179 180 251
3 253 181 254
3 253 251 181
3 251 180 181
3 182 254 181
3 255 254 182
3 183 255 182
3 256 255 183
3 184 256 183
3 187 257 188
3 258 259 257
3 248 258 257
3 248 257 187
3 248 187 177
3 248 249 260
3 258 248 260
3 249 250 261
3 260 249 261
3 250 252 261
3 254 262 253
3 254 255 263
3 262 254 263
3 255 256 264
3 263 255 264
3 256 265 264
3 184 265 256
3 184 266 265
3 184 189 266
3 190 266 189
3 193 267 194
3 268 269 267
3 257 268 267
3 257 267 193
3 257 193 188
3 257 259 268
3 266 270 265
3 266 271 270
3 190 271 266
3 190 272 271
3 190 195 272
3 196 272 195
3 194 273 199
3 267 273 194
3 273 267 269
3 274 273 269
3 272 275 276
3 271 272 276
3 201 272 196
3 275 272 201
3 199 277 203
3 273 277 199
3 277 273 274
3 278 277 274
3 275 279 280
3 276 275 280
3 205 275 201
3 279 275 205
3 281 203 277
3 281 282 203
3 282 207 203
3 277 278 281
3 279 283 280
3 279 284 283
3 279 205 284
3 205 209 284
3 285 282 286
3 285 211 282
3 211 207 282
3 285 286 287
3 288 289 290
3 288 213 289
3 288 284 213
3 284 209 213
3 211 291 215
3 285 291 211
3 291 285 287
3 292 291 287
3 289 293 294
3 290 289 294
3 217 289 213
3 293 289 217
3 215 295 219
3 291 295 215
3 295 291 292
3 296 295 292
3 293 297 298
3 294 293 298
3 221 293 217
3 297 293 221
3 219 295 222
3 296 299 300
3 295 296 300
3 295 300 224
3 295 224 222
3 300 299 301
3 302 303 304
3 227 303 302
3 225 227 302
3 225 302 298
3 225 298 297
3 221 225 297
3 224 300 228
3 301 305 306
3 300 301 306
3 300 306 230
3 300 230 228
3 305 307 308
3 306 305 308
3 307 309 310
3 308 307 310
3 310 309 311
3 312 313 314
3 312 315 316
3 313 312 316
3 315 317 318
3 316 315 318
3 233 318 317
3 231 233 317
3 231 317 304
3 231 304 303
3 227 231 303
3 230 306 234
3 308 234 306
3 236 234 308
3 310 236 308
3 238 236 310
3 311 238 310
3 311 319 238
3 319 240 238
3 313 319 314
3 313 242 319
3 242 240 319
3 316 242 313
3 244 242 316
3 318 244 316
3 246 244 318
3 233 246 318
3 251 320 252
3 253 320 251
3 258 321 259
3 260 321 258
3 322 321 260
3 261 322 260
3 323 322 261
3 324 325 323
3 320 324 323
3 320 323 261
3 320 261 252
3 320 326 324
3 253 326 320
3 253 327 326
3 253 262 327
3 263 327 262
3 328 327 263
3 264 328 263
3 329 328 264
3 265 329 264
3 268 330 269
3 259 330 268
3 259 321 330
3 321 331 330
3 332 333 331
3 332 331 322
3 322 331 321
3 322 323 334
3 332 322 334
3 323 325 334
3 327 335 326
3 327 328 336
3 335 327 336
3 337 336 328
3 337 328 338
3 338 328 329
3 270 329 265
3 270 339 329
3 339 338 329
3 271 339 270
3 269 340 274
3 330 340 269
3 341 342 340
3 341 340 331
3 331 340 330
3 331 333 341
3 338 343 337
3 344 343 338
3 344 338 345
3 345 338 339
3 276 339 271
3 345 339 276
3 274 346 278
3 340 346 274
3 346 340 342
3 347 346 342
3 345 348 349
3 344 345 349
3 280 345 276
3 348 345 280
3 281 350 282
3 351 352 350
3 346 351 350
3 346 350 281
3 346 281 278
3 346 347 351
3 348 353 349
3 348 354 353
3 280 354 348
3 280 355 354
3 280 283 355
3 284 355 283
3 282 350 286
3 352 356 357
3 350 352 357
3 350 357 287
3 350 287 286
3 357 356 358
3 359 360 361
3 290 360 359
3 288 290 359
3 288 359 354
3 288 354 355
3 284 288 355
3 287 362 292
3 357 362 287
3 362 357 358
3 363 362 358
3 360 364 365
3 361 360 365
3 294 360 290
3 364 360 294
3 292 366 296
3 362 366 292
3 363 367 368
3 363 368 362
3 362 368 366
3 368 367 369
3 370 371 372
3 370 365 364
3 370 364 371
3 371 364 373
3 298 364 294
3 373 364 298
3 296 366 299
3 299 374 301
3 299 366 374
3 366 368 374
3 369 375 376
3 369 376 368
3 368 376 374
3 375 377 378
3 376 375 378
3 378 377 379
3 380 381 382
3 380 383 384
3 381 380 384
3 383 372 371
3 383 371 384
3 384 371 385
3 304 373 302
3 304 385 373
3 385 371 373
3 298 302 373
3 301 374 305
3 376 305 374
3 307 305 376
3 378 307 376
3 309 307 378
3 379 386 387
3 378 379 387
3 378 387 311
3 378 311 309
3 314 387 386
3 312 314 386
3 312 386 382
3 312 382 381
3 384 312 381
3 315 312 384
3 385 315 384
3 317 315 385
3 304 317 385
3 311 387 319
3 314 319 387
3 324 388 325
3 326 388 324
3 332 389 333
3 334 389 332
3 390 389 334
3 325 390 334
3 325 388 390
3 388 391 390
3 335 388 326
3 335 392 388
3 392 391 388
3 336 392 335
3 393 392 336
3 337 393 336
3 341 394 342
3 395 396 394
3 389 395 394
3 389 394 341
3 389 341 333
3 389 390 397
3 395 389 397
3 390 391 398
3 397 390 398
3 391 392 399
3 398 391 399
3 392 393 400
3 399 392 400
3 393 401 400
3 337 401 393
3 337 402 401
3 337 343 402
3 344 402 343
3 342 403 347
3 394 403 342
3 403 394 396
3 404 403 396
3 402 405 406
3 401 402 406
3 349 402 344
3 405 402 349
3 351 407 352
3 347 407 351
3 347 403 407
3 403 408 407
3 408 403 404
3 409 408 404
3 405 410 411
3 406 405 411
3 353 405 349
3 353 412 405
3 412 410 405
3 354 412 353
3 352 407 356
3 356 413 358
3 356 407 413
3 407 408 413
3 413 408 409
3 414 413 409
3 410 415 416
3 411 410 416
3 361 412 359
3 361 415 412
3 415 410 412
3 354 359 412
3 358 417 363
3 413 417 358
3 417 413 414
3 418 417 414
3 415 419 420
3 416 415 420
3 365 415 361
3 419 415 365
3 363 417 367
3 418 421 422
3 417 418 422
3 417 422 369
3 417 369 367
3 421 423 424
3 422 421 424
3 423 425 426
3 424 423 426
3 425 427 428
3 426 425 428
3 427 429 430
3 428 427 430
3 372 430 429
3 370 372 429
3 370 429 420
3 370 420 419
3 365 370 419
3 369 422 375
3 424 375 422
3 377 375 424
3 377 431 379
3 377 424 431
3 424 426 431
3 382 428 380
3 382 431 428
3 431 426 428
3 430 380 428
3 383 380 430
3 372 383 430
3 379 431 386
3 382 386 431
3 395 432 396
3 397 432 395
3 433 432 397
3 433 434 435
3 433 397 434
3 397 398 434
3 436 399 437
3 436 434 399
3 434 398 399
3 400 437 399
3 438 437 400
3 401 438 400
3 396 439 404
3 432 439 396
3 440 441 439
3 440 439 433
3 433 439 432
3 433 435 440
3 437 442 436
3 443 442 437
3 443 437 444
3 444 437 438
3 406 438 401
3 444 438 406
3 445 404 439
3 445 446 404
3 446 409 404
3 439 441 445
3 444 447 443
3 444 448 447
3 444 406 448
3 406 411 448
3 449 446 450
3 449 414 446
3 414 409 446
3 449 450 451
3 452 453 454
3 452 416 453
3 452 448 416
3 448 411 416
3 414 455 418
3 449 455 414
3 451 456 457
3 451 457 449
3 449 457 455
3 457 456 458
3 459 460 461
3 459 454 453
3 459 453 460
3 460 453 462
3 420 453 416
3 462 453 420
3 418 455 421
3 457 421 455
3 423 421 457
3 458 423 457
3 458 463 423
3 463 425 423
3 460 463 461
3 460 427 463
3 427 425 463
3 462 427 460
3 429 427 462
3 420 429 462
3 434 464 435
3 436 464 434
3 440 465 441
3 466 467 465
3 464 466 465
3 464 465 440
3 464 440 435
3 464 468 466
3 436 468 464
3 436 469 468
3 436 442 469
3 443 469 442
3 445 470 446
3 471 472 470
3 465 471 470
3 465 470 445
3 465 445 441
3 465 467 471
3 469 473 468
3 469 474 473
3 443 474 469
3 443 475 474
3 443 447 475
3 448 475 447
3 446 470 450
3 472 476 477
3 470 472 477
3 470 477 451
3 470 451 450
3 477 476 478
3 479 480 481
3 454 480 479
3 452 454 479
3 452 479 474
3 452 474 475
3 448 452 475
3 451 477 456
3 478 482 483
3 477 478 483
3 477 483 458
3 477 458 456
3 461 483 482
3 459 461 482
3 459 482 481
3 459 481 480
3 454 459 480
3 458 483 463
3 461 463 483
3 466 484 467
3 468 484 466
3 471 485 472
3 467 485 471
3 467 484 485
3 484 486 485
3 473 484 468
3 473 487 484
3 487 486 484
3 474 487 473
3 472 485 476
3 476 488 478
3 476 485 488
3 485 486 488
3 481 487 479
3 481 488 487
3 488 486 487
3 474 479 487
3 478 488 482
3 481 482 488
3 489 490 491
3 491 492 489
3 493 494 495
3 493 491 490
3 493 495 491
3 495 496 491
3 492 497 498
3 492 491 497
3 491 496 497
3 497 499 498
3 495 494 500
3 501 495 500
3 501 502 495
3 502 496 495
3 503 502 504
3 503 497 502
3 497 496 502
3 497 503 499
3 502 501 505
3 502 505 504
3 506 507 508
3 508 509 506
3 510 511 512
3 490 510 512
3 489 510 490
3 489 507 510
3 489 508 507
3 509 513 514
3 508 513 509
3 508 492 513
3 508 489 492
3 513 515 514
3 516 517 518
3 494 516 518
3 493 516 494
3 493 511 516
3 493 512 511
3 490 512 493
3 492 498 513
3 515 519 520
3 513 519 515
3 513 499 519
3 513 498 499
3 519 521 520
3 518 517 522
3 518 522 523
3 494 518 523
3 494 523 524
3 494 524 500
3 501 500 524
3 503 504 525
3 526 525 527
3 519 525 526
3 519 503 525
3 519 499 503
3 519 526 521
3 524 523 528
3 524 528 529
3 501 524 529
3 501 529 530
3 501 530 505
3 531 530 532
3 525 530 531
3 525 505 530
3 525 504 505
3 525 531 527
3 530 529 533
3 530 533 532
3 534 535 536
3 534 537 538
3 536 537 534
3 507 538 537
3 507 506 538
3 506 539 538
3 540 506 509
3 540 541 506
3 541 539 506
3 541 542 543
3 540 542 541
3 542 544 543
3 536 545 546
3 535 545 536
3 511 510 537
3 511 537 546
3 546 537 536
3 507 537 510
3 509 514 540
3 514 515 547
3 514 547 540
3 540 547 542
3 547 544 542
3 548 544 547
3 546 517 516
3 546 545 517
3 545 549 517
3 511 546 516
3 515 520 547
3 520 548 547
3 520 521 548
3 521 550 548
3 522 551 552
3 522 517 551
3 517 549 551
3 523 522 552
3 526 527 553
3 553 521 526
3 553 554 521
3 554 550 521
3 552 555 556
3 551 555 552
3 528 523 552
3 528 552 557
3 557 552 556
3 529 528 557
3 531 532 558
3 527 531 558
3 527 558 553
3 553 558 559
3 559 554 553
3 560 554 559
3 556 555 561
3 556 562 557
3 561 562 556
3 557 533 529
3 557 562 533
3 562 563 533
3 532 564 558
3 532 533 564
3 533 563 564
3 558 565 559
3 564 565 558
3 559 565 560
3 566 567 568
3 568 569 566
3 570 571 572
3 570 573 574
3 572 573 570
3 574 568 567
3 574 573 568
3 573 575 568
3 569 576 577
3 569 568 576
3 568 575 576
3 577 578 579
3 576 578 577
3 578 580 579
3 581 582 583
3 535 581 583
3 534 581 535
3 534 571 581
3 534 572 571
3 573 572 534
3 538 573 534
3 575 573 538
3 539 575 538
3 576 575 539
3 541 576 539
3 578 576 541
3 543 578 541
3 580 584 585
3 578 584 580
3 578 544 584
3 578 543 544
3 584 586 585
3 583 587 588
3 582 587 583
3 545 535 583
3 588 545 583
3 544 548 589
3 584 544 589
3 589 586 584
3 590 586 589
3 591 592 593
3 591 588 587
3 591 593 588
3 593 594 588
3 549 545 588
3 594 549 588
3 548 550 595
3 589 548 595
3 590 596 597
3 590 589 596
3 589 595 596
3 596 598 597
3 593 592 599
3 600 593 599
3 600 601 593
3 601 594 593
3 551 549 594
3 601 551 594
3 550 554 602
3 595 550 602
3 603 602 604
3 603 596 602
3 596 595 602
3 596 603 598
3 601 605 606
3 600 605 601
3 555 551 601
3 606 555 601
3 554 560 607
3 602 554 607
3 607 604 602
3 608 604 607
3 606 605 609
3 606 609 610
3 555 606 610
3 555 610 611
3 555 611 561
3 562 561 611
3 612 562 611
3 563 562 612
3 613 563 612
3 564 563 613
3 614 564 613
3 565 564 614
3 615 565 614
3 616 615 617
3 607 615 616
3 607 565 615
3 607 560 565
3 607 616 608
3 611 610 618
3 611 619 612
3 618 619 611
3 620 612 619
3 620 621 612
3 621 613 612
3 622 621 623
3 622 614 621
3 614 613 621
3 614 624 615
3 622 624 614
3 615 624 617
3 621 620 625
3 621 625 623
3 626 627 628
3 628 629 626
3 630 631 632
3 630 633 634
3 632 633 630
3 634 635 636
3 633 635 634
3 567 636 635
3 566 636 567
3 566 627 636
3 566 628 627
3 629 637 638
3 628 637 629
3 628 569 637
3 628 566 569
3 638 639 640
3 637 639 638
3 640 641 642
3 639 641 640
3 641 643 642
3 644 645 646
3 644 632 631
3 644 646 632
3 646 647 632
3 571 570 633
3 571 633 647
3 647 633 632
3 635 633 570
3 574 635 570
3 567 635 574
3 569 577 637
3 639 637 577
3 579 639 577
3 579 580 648
3 579 648 639
3 639 648 641
3 643 649 650
3 643 641 649
3 641 648 649
3 649 651 650
3 646 652 653
3 645 652 646
3 582 581 647
3 582 647 653
3 653 647 646
3 571 647 581
3 580 585 648
3 585 586 654
3 585 654 648
3 648 654 649
3 654 651 649
3 655 651 654
3 653 656 657
3 652 656 653
3 587 582 653
3 657 587 653
3 586 590 658
3 654 586 658
3 658 655 654
3 659 655 658
3 660 661 662
3 592 660 662
3 591 660 592
3 591 656 660
3 591 657 656
3 587 657 591
3 590 597 658
3 659 663 664
3 658 663 659
3 658 598 663
3 658 597 598
3 663 665 664
3 662 661 666
3 662 666 667
3 592 662 667
3 592 667 668
3 592 668 599
3 600 599 668
3 603 604 669
3 670 669 671
3 663 669 670
3 663 603 669
3 663 598 603
3 663 670 665
3 668 672 673
3 667 672 668
3 605 600 668
3 673 605 668
3 604 608 674
3 669 604 674
3 674 671 669
3 675 671 674
3 673 676 677
3 672 676 673
3 609 605 673
3 609 673 678
3 678 673 677
3 610 609 678
3 616 617 679
3 608 616 679
3 608 679 674
3 674 679 680
3 680 675 674
3 681 675 680
3 677 676 682
3 683 677 682
3 683 684 677
3 684 678 677
3 618 610 678
3 618 678 685
3 685 678 684
3 619 618 685
3 686 619 685
3 620 619 686
3 622 623 687
3 624 622 687
3 688 624 687
3 617 624 688
3 617 688 679
3 679 688 689
3 690 689 691
3 690 680 689
3 680 679 689
3 680 690 681
3 684 683 692
3 684 693 685
3 692 693 684
3 685 694 686
3 693 694 685
3 686 694 695
3 620 686 695
3 620 695 696
3 620 696 625
3 697 696 698
3 687 696 697
3 687 625 696
3 687 623 625
3 687 699 688
3 697 699 687
3 688 700 689
3 699 700 688
3 689 700 691
3 696 695 701
3 696 701 698
3 702 703 704
3 702 705 706
3 704 705 702
3 706 707 708
3 705 707 706
3 627 708 707
3 627 626 708
3 626 709 708
3 710 626 629
3 710 711 626
3 711 709 626
3 711 712 713
3 710 712 711
3 713 714 715
3 712 714 713
3 714 716 715
3 717 718 719
3 631 717 719
3 630 717 631
3 630 703 717
3 630 704 703
3 705 704 630
3 634 705 630
3 707 705 634
3 636 707 634
3 627 707 636
3 629 638 710
3 712 710 638
3 640 712 638
3 714 712 640
3 642 714 640
3 716 720 721
3 714 720 716
3 714 643 720
3 714 642 643
3 720 722 721
3 723 724 725
3 645 723 725
3 644 723 645
3 644 718 723
3 644 719 718
3 631 719 644
3 643 650 720
3 722 726 727
3 720 726 722
3 720 651 726
3 720 650 651
3 726 728 727
3 725 729 730
3 724 729 725
3 652 645 725
3 730 652 725
3 651 655 731
3 726 651 731
3 731 728 726
3 732 728 731
3 730 733 734
3 729 733 730
3 656 652 730
3 734 656 730
3 655 659 735
3 731 655 735
3 735 732 731
3 736 732 735
3 734 661 660
3 734 733 661
3 733 737 661
3 656 734 660
3 659 664 735
3 664 736 735
3 664 665 736
3 665 738 736
3 666 739 740
3 666 661 739
3 661 737 739
3 667 666 740
3 670 671 741
3 741 665 670
3 741 742 665
3 742 738 665
3 740 743 744
3 739 743 740
3 672 667 740
3 744 672 740
3 671 675 745
3 741 671 745
3 745 742 741
3 746 742 745
3 744 747 748
3 743 747 744
3 676 672 744
3 748 676 744
3 675 681 749
3 745 675 749
3 749 746 745
3 750 746 749
3 748 747 751
3 748 751 752
3 676 748 752
3 676 752 753
3 676 753 682
3 683 682 753
3 690 691 754
3 755 754 756
3 749 754 755
3 749 690 754
3 749 681 690
3 749 755 750
3 753 752 757
3 753 757 758
3 683 753 758
3 683 758 759
3 683 759 692
3 693 692 759
3 760 693 759
3 694 693 760
3 761 694 760
3 695 694 761
3 697 698 762
3 699 697 762
3 763 699 762
3 700 699 763
3 764 700 763
3 765 764 766
3 754 764 765
3 754 700 764
3 754 691 700
3 754 765 756
3 759 758 767
3 759 768 760
3 767 768 759
3 760 769 761
3 768 769 760
3 761 701 695
3 761 769 701
3 769 770 701
3 698 771 762
3 698 701 771
3 701 770 771
3 762 772 763
3 771 772 762
3 763 773 764
3 772 773 763
3 764 773 766
3 774 775 776
3 774 777 778
3 776 777 774
3 778 779 780
3 777 779 778
3 780 781 782
3 779 781 780
3 782 783 784
3 781 783 782
3 784 785 786
3 783 785 784
3 786 787 788
3 785 787 786
3 787 789 788
3 790 791 792
3 703 790 792
3 702 790 703
3 702 775 790
3 702 776 775
3 777 776 702
3 706 777 702
3 779 777 706
3 708 779 706
3 781 779 708
3 709 781 708
3 783 781 709
3 711 783 709
3 785 783 711
3 713 785 711
3 787 785 713
3 715 787 713
3 789 793 794
3 787 793 789
3 787 716 793
3 787 715 716
3 793 795 794
3 796 797 798
3 718 796 798
3 717 796 718
3 717 791 796
3 717 792 791
3 703 792 717
3 716 721 793
3 795 799 800
3 793 799 795
3 793 722 799
3 793 721 722
3 799 801 800
3 802 803 804
3 724 802 804
3 723 802 724
3 723 797 802
3 723 798 797
3 718 798 723
3 722 727 799
3 801 805 806
3 799 805 801
3 799 728 805
3 799 727 728
3 805 807 806
3 804 808 809
3 803 808 804
3 729 724 804
3 809 729 804
3 728 732 810
3 805 728 810
3 810 807 805
3 811 807 810
3 809 812 813
3 808 812 809
3 733 729 809
3 813 733 809
3 732 736 814
3 810 732 814
3 814 811 810
3 815 811 814
3 813 816 817
3 812 816 813
3 737 733 813
3 817 737 813
3 736 738 818
3 814 736 818
3 818 815 814
3 819 815 818
3 817 820 821
3 816 820 817
3 739 737 817
3 821 739 817
3 738 742 822
3 818 738 822
3 822 819 818
3 823 819 822
3 821 824 825
3 820 824 821
3 743 739 821
3 825 743 821
3 742 746 826
3 822 742 826
3 826 823 822
3 827 823 826
3 825 828 829
3 824 828 825
3 747 743 825
3 829 747 825
3 746 750 830
3 826 746 830
3 830 827 826
3 831 827 830
3 829 828 832
3 829 832 833
3 747 829 833
3 747 833 834
3 747 834 751
3 752 751 834
3 755 756 835
3 836 835 837
3 830 835 836
3 830 755 835
3 830 750 755
3 830 836 831
3 834 833 838
3 834 838 839
3 752 834 839
3 752 839 840
3 752 840 757
3 758 757 840
3 765 766 841
3 842 841 843
3 835 841 842
3 835 765 841
3 835 756 765
3 835 842 837
3 840 839 844
3 840 844 845
3 758 840 845
3 758 845 846
3 758 846 767
3 768 767 846
3 847 768 846
3 769 768 847
3 848 769 847
3 770 769 848
3 849 770 848
3 771 770 849
3 850 771 849
3 772 771 850
3 851 772 850
3 773 772 851
3 852 773 851
3 853 852 854
3 841 852 853
3 841 773 852
3 841 766 773
3 841 853 843
3 846 845 855
3 846 856 847
3 855 856 846
3 847 857 848
3 856 857 847
3 848 858 849
3 857 858 848
3 849 859 850
3 858 859 849
3 850 860 851
3 859 860 850
3 851 861 852
3 860 861 851
3 852 861 854
3 862 863 864
3 862 865 866
3 864 865 862
3 866 867 868
3 865 867 866
3 868 869 870
3 868 867 869
3 867 871 869
3 872 873 874
3 872 869 873
3 869 871 873
3 874 875 876
3 873 875 874
3 876 877 878
3 875 877 876
3 877 879 878
3 880 881 882
3 880 883 884
3 882 883 880
3 775 884 883
3 774 884 775
3 774 863 884
3 774 864 863
3 865 864 774
3 778 865 774
3 867 865 778
3 780 867 778
3 871 867 780
3 782 871 780
3 873 871 782
3 784 873 782
3 875 873 784
3 786 875 784
3 877 875 786
3 788 877 786
3 879 885 886
3 877 885 879
3 877 789 885
3 877 788 789
3 886 887 888
3 885 887 886
3 887 889 888
3 890 891 892
3 890 882 881
3 890 892 882
3 892 893 882
3 791 790 883
3 791 883 893
3 893 883 882
3 775 883 790
3 789 794 885
3 794 795 894
3 794 894 885
3 885 894 887
3 889 895 896
3 889 887 895
3 887 894 895
3 895 897 896
3 892 898 899
3 891 898 892
3 797 796 893
3 797 893 899
3 899 893 892
3 791 893 796
3 795 800 894
3 800 801 900
3 800 900 894
3 894 900 895
3 900 897 895
3 901 897 900
3 902 903 904
3 803 902 904
3 802 902 803
3 802 898 902
3 802 899 898
3 797 899 802
3 801 806 900
3 901 905 906
3 900 905 901
3 900 807 905
3 900 806 807
3 905 907 906
3 904 908 909
3 903 908 904
3 808 803 904
3 909 808 904
3 807 811 910
3 905 807 910
3 910 907 905
3 911 907 910
3 909 912 913
3 908 912 909
3 812 808 909
3 913 812 909
3 811 815 914
3 910 811 914
3 914 911 910
3 915 911 914
3 916 913 912
3 916 917 913
3 917 918 913
3 816 812 913
3 918 816 913
3 815 819 919
3 914 815 919
3 915 920 921
3 915 914 920
3 914 919 920
3 922 917 923
3 922 924 917
3 924 918 917
3 820 816 918
3 924 820 918
3 819 823 925
3 919 819 925
3 926 925 927
3 926 920 925
3 920 919 925
3 924 928 929
3 922 928 924
3 824 820 924
3 929 824 924
3 823 827 930
3 925 823 930
3 930 927 925
3 931 927 930
3 929 932 933
3 928 932 929
3 828 824 929
3 933 828 929
3 827 831 934
3 930 827 934
3 934 931 930
3 935 931 934
3 933 932 936
3 933 936 937
3 828 933 937
3 828 937 938
3 828 938 832
3 833 832 938
3 836 837 939
3 940 939 941
3 934 939 940
3 934 836 939
3 934 831 836
3 934 940 935
3 938 942 943
3 937 942 938
3 838 833 938
3 838 938 944
3 944 938 943
3 839 838 944
3 842 843 945
3 837 842 945
3 837 945 939
3 939 945 946
3 946 941 939
3 947 941 946
3 943 942 948
3 949 943 948
3 949 950 943
3 950 944 943
3 844 839 944
3 844 944 951
3 951 944 950
3 845 844 951
3 853 854 952
3 843 853 952
3 843 952 945
3 945 952 953
3 954 953 955
3 954 946 953
3 946 945 953
3 946 954 947
3 950 949 956
3 950 957 951
3 956 957 950
3 951 957 958
3 845 951 958
3 845 958 959
3 845 959 855
3 856 855 959
3 960 856 959
3 857 856 960
3 961 857 960
3 858 857 961
3 962 858 961
3 859 858 962
3 963 859 962
3 860 859 963
3 964 860 963
3 861 860 964
3 965 861 964
3 966 965 967
3 952 965 966
3 952 861 965
3 952 854 861
3 952 968 953
3 966 968 952
3 953 968 955
3 959 958 969
3 959 970 960
3 969 970 959
3 960 971 961
3 970 971 960
3 972 961 971
3 972 973 961
3 973 962 961
3 974 973 975
3 974 963 973
3 963 962 973
3 963 976 964
3 974 976 963
3 964 977 965
3 976 977 964
3 965 977 967
